<?xml version="1.0" encoding="utf-8"?>
<!-- Generator: Adobe Illustrator 22.0.0, SVG Export Plug-In . SVG Version: 6.00 Build 0)  -->
<svg version="1.1" id="Layer_1" xmlns="http://www.w3.org/2000/svg" xmlns:xlink="http://www.w3.org/1999/xlink" x="0px" y="0px"
	 viewBox="0 0 513.3 306.1" style="enable-background:new 0 0 513.3 306.1;" xml:space="preserve">
<style type="text/css">
	.st0{fill:none;}
	.st1{fill:#231F20;}
	.st2{fill:#FFFFFF;}
	.st3{stroke:#FFFFFF;stroke-miterlimit:10;}
	.st4{fill:#FFFFFF;stroke:#9900CC;stroke-width:1.7225;stroke-miterlimit:10;}
	.st5{fill:#993366;}
	.st6{fill:#660066;stroke:#FFFFFF;stroke-width:8.6123;stroke-miterlimit:10;}
	.st7{fill:#FFFFFF;stroke:#660066;stroke-width:8.6123;stroke-miterlimit:10;}
	.st8{fill:#FFFFFF;stroke:#9900CC;stroke-width:2.0652;stroke-miterlimit:10;}
	.st9{fill:#660066;stroke:#FFFFFF;stroke-width:10.3259;stroke-miterlimit:10;}
	.st10{fill:#9900CC;}
	.st11{fill:#FFFFFF;stroke:#9900CC;stroke-width:2.545;stroke-miterlimit:10;}
	.st12{fill:#660066;stroke:#FFFFFF;stroke-width:12.7252;stroke-miterlimit:10;}
</style>
<symbol  id="Arrow_24" viewBox="-10.7 -17.9 21.4 35.9">
	<rect x="-10.7" y="-17.9" class="st0" width="21.4" height="35.9"/>
	<g>
		<polygon class="st1" points="-10.7,-17.9 -0.3,0 -10.7,17.9 0.3,17.9 10.7,0 0.3,-17.9 		"/>
	</g>
</symbol>
<g>
	<g>
		<path d="M-1001.1,100.4c0-2,0-3.6,0-5.3c0-64,0-128.1-0.1-192.1c0-3.6,1.2-5.6,4-7.5c43-29,89-32.6,137.3-16.7
			c17.6,5.8,34.3,13.5,48,26.3c2.7,2.5,5,6.5,5.6,10.1c9.2,57.2,18.1,114.5,27,171.7c0.2,1,0.1,2.1,0.2,3.8
			c-5.1-1.6-9.7-3.1-14.4-4.5c-35-10.8-70.7-18.2-107.5-17.8c-27.8,0.3-54.8,4.9-79.6,18.4C-987.4,90.6-993.8,95.5-1001.1,100.4z"/>
		<path d="M-1228.1,90.2c1.1-7.3,2.1-14.6,3.3-21.9c8-51,16-102,23.9-153c0.7-4.3,2.4-7.8,5.8-10.6c20-16.9,43.6-26.3,68.8-31.6
			c42.1-8.8,81.4-1.8,117.2,22.8c2.4,1.7,3.3,3.4,3.3,6.4c-0.1,64.2-0.1,128.4-0.1,192.6c0,1.8,0,3.6,0,5.2
			c-8.3-5.2-15.8-10.9-24.1-15.1c-28.4-14.3-58.9-17.7-90.2-16.4c-35,1.5-68.8,9.4-102,20.3c-1.5,0.5-2.9,0.9-4.4,1.4
			C-1226.9,90.4-1227.2,90.2-1228.1,90.2z"/>
		<path d="M-787.1,106c-21.4-5.1-42.4-10.8-63.8-14.9c-36.8-7.1-74-9.6-111-1.4c-11.4,2.5-22.2,7.3-33.3,11.1
			c-0.7,0.2-1.3,0.5-2.1,0.5c12.4-9.8,26.4-16.3,41.5-20.7c29.2-8.5,58.9-8.8,88.7-5.3c24.2,2.9,47.7,8.5,70.9,15.7
			c5.9,1.8,9,4.5,8.7,10.7C-787.5,103.3-787.2,104.8-787.1,106z"/>
		<path d="M-1009.7,101.2c-32.5-15.2-66.7-17.8-101.6-15.8c-35.9,2.1-70.6,9.9-104.8,20.5c-1.1,0.3-2.3,0.6-3.9,1
			c0.5-3.9,0.7-7.5,1.6-10.9c0.4-1.4,2.2-2.8,3.7-3.3c22.5-7.9,45.7-13.4,69.3-16.6c27.7-3.8,55.5-4.3,83,1.7
			C-1043.3,81.9-1025.4,89.1-1009.7,101.2z"/>
		<path d="M-1010.5,103c-69.2-11.1-136.2-0.9-202.5,20.8c0.4-3.9,0.6-7.5,1.3-10.9c0.2-1.1,1.8-2.4,3-2.8
			c27.9-9.4,56.4-16.1,85.7-19.4c26.8-3.1,53.7-3.7,80.3,2c11,2.4,21.8,6.1,32.7,9.2C-1010.2,102.3-1010.4,102.7-1010.5,103z"/>
		<path d="M-794.4,123.7c-64.9-21.4-131.1-31.5-199.4-21.2c0-0.3-0.1-0.7-0.1-0.7c1.2-0.6,2.5-1.2,3.8-1.7
			c23.3-9,47.6-11.8,72.3-11.5c40.9,0.5,80.3,8.7,119.1,21.3c2.7,0.9,3.8,2.2,3.9,4.9c0.1,2.6,0.5,5.2,0.8,7.8
			C-794,122.8-794.2,123.1-794.4,123.7z"/>
	</g>
	<g>
		<path class="st2" d="M-1183.2-69.5c11.5-6.8,24-11.8,37-15.3c13-3.5,26.4-5.3,39.9-5.5c6.7-0.1,13.5,0.2,20.1,1
			c6.7,0.8,13.3,1.9,19.8,3.5c13,3.2,25.7,7.9,37.3,14.5c-12.4-4.7-25.1-8.5-38.1-10.9c-6.5-1.2-13-2.2-19.5-2.7
			c-6.5-0.6-13.1-0.9-19.6-0.7c-1.6,0-3.3,0-4.9,0.1l-4.9,0.2c-3.3,0.3-6.5,0.5-9.8,0.9c-6.5,0.7-13,1.8-19.4,3.2
			C-1158.2-78.6-1170.8-74.5-1183.2-69.5z"/>
	</g>
	<g>
		<path class="st2" d="M-1191.9,15.3c11.5-6.8,24-11.8,37-15.3c13-3.5,26.4-5.3,39.9-5.5c6.7-0.1,13.5,0.2,20.1,1
			c6.7,0.8,13.3,1.9,19.8,3.5c13,3.2,25.7,7.9,37.3,14.5c-12.4-4.7-25.1-8.5-38.1-10.9c-6.5-1.2-13-2.2-19.5-2.7
			c-6.5-0.6-13.1-0.9-19.6-0.7c-1.6,0-3.3,0-4.9,0.1l-4.9,0.2c-3.3,0.3-6.5,0.5-9.8,0.9c-6.5,0.7-13,1.8-19.4,3.2
			C-1167,6.3-1179.6,10.3-1191.9,15.3z"/>
	</g>
	<g>
		<path class="st2" d="M-1191.9,44.7c11.5-6.8,24-11.8,37-15.3c13-3.5,26.4-5.3,39.9-5.5c6.7-0.1,13.5,0.2,20.1,1
			c6.7,0.8,13.3,1.9,19.8,3.5c13,3.2,25.7,7.9,37.3,14.5c-12.4-4.7-25.1-8.5-38.1-10.9c-6.5-1.2-13-2.2-19.5-2.7
			c-6.5-0.6-13.1-0.9-19.6-0.7c-1.6,0-3.3,0-4.9,0.1l-4.9,0.2c-3.3,0.3-6.5,0.5-9.8,0.9c-6.5,0.7-13,1.8-19.4,3.2
			C-1167,35.6-1179.6,39.6-1191.9,44.7z"/>
	</g>
	<g>
		<path class="st2" d="M-982.8-69.5c11.5-6.8,24-11.8,37-15.3c13-3.5,26.4-5.3,39.9-5.5c6.7-0.1,13.5,0.2,20.1,1
			c6.7,0.8,13.3,1.9,19.8,3.5c13,3.2,25.7,7.9,37.3,14.5c-12.4-4.7-25.1-8.5-38.1-10.9c-6.5-1.2-13-2.2-19.5-2.7
			c-6.5-0.6-13.1-0.9-19.6-0.7c-1.6,0-3.3,0-4.9,0.1l-4.9,0.2c-3.3,0.3-6.5,0.5-9.8,0.9c-6.5,0.7-13,1.8-19.4,3.2
			C-957.9-78.6-970.5-74.5-982.8-69.5z"/>
	</g>
	<g>
		<path class="st2" d="M-982.8-36.7c11.5-6.8,24-11.8,37-15.3c13-3.5,26.4-5.3,39.9-5.5c6.7-0.1,13.5,0.2,20.1,1
			c6.7,0.8,13.3,1.9,19.8,3.5c13,3.2,25.7,7.9,37.3,14.5c-12.4-4.7-25.1-8.5-38.1-10.9c-6.5-1.2-13-2.2-19.5-2.7
			c-6.5-0.6-13.1-0.9-19.6-0.7c-1.6,0-3.3,0-4.9,0.1l-4.9,0.2c-3.3,0.3-6.5,0.5-9.8,0.9c-6.5,0.7-13,1.8-19.4,3.2
			C-957.9-45.7-970.5-41.7-982.8-36.7z"/>
	</g>
	<g>
		<path class="st2" d="M-982.8-5.9c11.5-6.8,24-11.8,37-15.3c13-3.5,26.4-5.3,39.9-5.5c6.7-0.1,13.5,0.2,20.1,1
			c6.7,0.8,13.3,1.9,19.8,3.5c13,3.2,25.7,7.9,37.3,14.5c-12.4-4.7-25.1-8.5-38.1-10.9c-6.5-1.2-13-2.2-19.5-2.7
			c-6.5-0.6-13.1-0.9-19.6-0.7c-1.6,0-3.3,0-4.9,0.1l-4.9,0.2c-3.3,0.3-6.5,0.5-9.8,0.9c-6.5,0.7-13,1.8-19.4,3.2
			C-957.9-15-970.5-11-982.8-5.9z"/>
	</g>
	<g>
		<path class="st2" d="M-1183.2-46c8-4,16.5-7,25.2-9c8.7-2,17.7-3.1,26.7-3.2c4.5,0,9,0.1,13.5,0.6c4.5,0.5,8.9,1.1,13.3,2
			c8.8,1.8,17.4,4.6,25.5,8.4c-8.5-2.6-17.2-4.6-25.9-6c-8.7-1.3-17.5-2-26.3-1.9c-4.4,0-8.8,0.3-13.2,0.7c-4.4,0.4-8.7,1-13.1,1.8
			C-1166.2-51-1174.7-48.7-1183.2-46z"/>
	</g>
	<g>
		<path class="st2" d="M-1183.2-22.4c8-4,16.5-7,25.2-9c8.7-2,17.7-3.1,26.7-3.2c4.5,0,9,0.1,13.5,0.6c4.5,0.5,8.9,1.1,13.3,2
			c8.8,1.8,17.4,4.6,25.5,8.4c-8.5-2.6-17.2-4.6-25.9-6c-8.7-1.3-17.5-2-26.3-1.9c-4.4,0-8.8,0.3-13.2,0.7c-4.4,0.4-8.7,1-13.1,1.8
			C-1166.2-27.5-1174.7-25.2-1183.2-22.4z"/>
	</g>
	<g>
		<path class="st2" d="M-933,20.6c8-4,16.5-7,25.2-9c8.7-2,17.7-3.1,26.7-3.2c4.5,0,9,0.1,13.5,0.6c4.5,0.5,8.9,1.1,13.3,2
			c8.8,1.8,17.4,4.6,25.5,8.4c-8.5-2.6-17.2-4.6-25.9-6c-8.7-1.3-17.5-2-26.3-1.9c-4.4,0-8.8,0.3-13.2,0.7c-4.4,0.4-8.7,1-13.1,1.8
			C-915.9,15.6-924.5,17.9-933,20.6z"/>
	</g>
	<g>
		<path class="st2" d="M-933,47.2c8-4,16.5-7,25.2-9c8.7-2,17.7-3.1,26.7-3.2c4.5,0,9,0.1,13.5,0.6c4.5,0.5,8.9,1.1,13.3,2
			c8.8,1.8,17.4,4.6,25.5,8.4c-8.5-2.6-17.2-4.6-25.9-6c-8.7-1.3-17.5-2-26.3-1.9c-4.4,0-8.8,0.3-13.2,0.7c-4.4,0.4-8.7,1-13.1,1.8
			C-915.9,42.2-924.5,44.4-933,47.2z"/>
	</g>
</g>
<g>
	<g>
		<g>
			<path d="M-395.9,88.9c0-1.8,0-3.3,0-4.8c0-57.4,0-114.8-0.1-172.2c0-3.2,1-5,3.6-6.7c38.5-26,79.8-29.2,123.1-15
				c15.8,5.2,30.7,12.1,43,23.6c2.4,2.2,4.5,5.8,5,9.1C-213-25.9-205,25.5-197,76.8c0.1,0.9,0.1,1.9,0.2,3.4
				c-4.6-1.4-8.7-2.8-12.9-4c-31.4-9.7-63.3-16.3-96.4-16c-24.9,0.3-49.2,4.4-71.3,16.5C-383.6,80.1-389.4,84.5-395.9,88.9z"/>
			<path d="M-599.4,79.7c1-6.6,1.9-13.1,2.9-19.6c7.1-45.7,14.3-91.4,21.4-137.1c0.6-3.9,2.2-6.9,5.2-9.5
				c17.9-15.2,39-23.6,61.7-28.3c37.8-7.9,73-1.6,105,20.5c2.2,1.5,3,3.1,3,5.8c-0.1,57.5-0.1,115.1-0.1,172.6c0,1.6,0,3.2,0,4.7
				c-7.4-4.7-14.2-9.8-21.6-13.5c-25.4-12.8-52.8-15.9-80.9-14.7c-31.4,1.4-61.7,8.4-91.4,18.2c-1.3,0.4-2.6,0.8-4,1.2
				C-598.3,79.9-598.6,79.8-599.4,79.7z"/>
			<path d="M-204.1,93.9c-19.2-4.5-38-9.7-57.2-13.4c-33-6.4-66.3-8.6-99.5-1.2c-10.2,2.3-19.9,6.6-29.8,9.9
				c-0.6,0.2-1.2,0.5-1.9,0.5c11.1-8.8,23.7-14.6,37.2-18.5c26.1-7.6,52.8-7.9,79.5-4.7c21.7,2.6,42.8,7.6,63.6,14.1
				c5.3,1.7,8.1,4,7.8,9.6C-204.4,91.5-204.2,92.9-204.1,93.9z"/>
			<path d="M-403.6,89.6c-29.1-13.6-59.8-16-91.1-14.1c-32.1,1.9-63.3,8.9-94,18.4c-1,0.3-2,0.5-3.5,0.9c0.5-3.5,0.6-6.7,1.4-9.8
				c0.3-1.2,2-2.5,3.3-3c20.2-7.1,40.9-12,62.1-14.9c24.9-3.4,49.7-3.9,74.4,1.5C-433.7,72.3-417.6,78.8-403.6,89.6z"/>
			<path d="M-404.3,91.3c-62-10-122.1-0.8-181.6,18.7c0.4-3.5,0.5-6.7,1.1-9.8c0.2-1,1.6-2.2,2.7-2.5c25-8.4,50.6-14.4,76.8-17.4
				c24.1-2.8,48.1-3.3,72,1.8c9.9,2.1,19.5,5.5,29.3,8.3C-404.1,90.6-404.2,90.9-404.3,91.3z"/>
			<path d="M-210.7,109.8c-58.2-19.2-117.5-28.2-178.7-19c0-0.3-0.1-0.6-0.1-0.7c1.1-0.5,2.2-1.1,3.4-1.5
				c20.9-8.1,42.6-10.6,64.8-10.3c36.6,0.4,72,7.8,106.7,19.1c2.4,0.8,3.4,2,3.5,4.4c0.1,2.3,0.5,4.7,0.7,7
				C-210.3,109-210.5,109.3-210.7,109.8z"/>
		</g>
		<g>
			<path class="st2" d="M-559.1-63.4c10.3-6.1,21.5-10.6,33.1-13.7c11.6-3.1,23.7-4.8,35.7-4.9c6,0,12.1,0.2,18.1,0.9
				c6,0.7,11.9,1.7,17.8,3.2c11.7,2.8,23,7.1,33.4,13c-11.1-4.3-22.5-7.6-34.1-9.8c-5.8-1.1-11.6-1.9-17.5-2.4
				c-5.9-0.6-11.7-0.8-17.6-0.7c-2.9,0-5.9,0.1-8.8,0.3c-2.9,0.2-5.9,0.4-8.8,0.8c-5.8,0.6-11.7,1.6-17.4,2.8
				C-536.7-71.5-548.1-67.9-559.1-63.4z"/>
		</g>
		<g>
			<path class="st2" d="M-567,12.6c10.3-6.1,21.5-10.6,33.1-13.7c11.6-3.1,23.7-4.8,35.7-4.9c6,0,12.1,0.2,18.1,0.9
				c6,0.7,11.9,1.7,17.8,3.2c11.7,2.8,23,7.1,33.4,13C-440,6.7-451.4,3.4-463,1.2c-5.8-1.1-11.6-1.9-17.5-2.4
				c-5.9-0.6-11.7-0.8-17.6-0.7c-2.9,0-5.9,0.1-8.8,0.3c-2.9,0.2-5.9,0.4-8.8,0.8c-5.8,0.6-11.7,1.6-17.4,2.8
				C-544.6,4.5-555.9,8.1-567,12.6z"/>
		</g>
		<g>
			<path class="st2" d="M-567,39c10.3-6.1,21.5-10.6,33.1-13.7c11.6-3.1,23.7-4.8,35.7-4.9c6,0,12.1,0.2,18.1,0.9
				c6,0.7,11.9,1.7,17.8,3.2c11.7,2.8,23,7.1,33.4,13c-11.1-4.3-22.5-7.6-34.1-9.8c-5.8-1.1-11.6-1.9-17.5-2.4
				c-5.9-0.6-11.7-0.8-17.6-0.7c-2.9,0-5.9,0.1-8.8,0.3c-2.9,0.2-5.9,0.4-8.8,0.8c-5.8,0.6-11.7,1.6-17.4,2.8
				C-544.6,30.8-555.9,34.4-567,39z"/>
		</g>
		<g>
			<path class="st2" d="M-379.5-63.4c10.3-6.1,21.5-10.6,33.1-13.7c11.6-3.1,23.7-4.8,35.7-4.9c6,0,12.1,0.2,18.1,0.9
				c6,0.7,11.9,1.7,17.8,3.2c11.7,2.8,23,7.1,33.4,13c-11.1-4.3-22.5-7.6-34.1-9.8c-5.8-1.1-11.6-1.9-17.5-2.4
				c-5.9-0.6-11.7-0.8-17.6-0.7c-2.9,0-5.9,0.1-8.8,0.3c-2.9,0.2-5.9,0.4-8.8,0.8c-5.8,0.6-11.7,1.6-17.4,2.8
				C-357.2-71.5-368.5-67.9-379.5-63.4z"/>
		</g>
		<g>
			<path class="st2" d="M-379.5-34c10.3-6.1,21.5-10.6,33.1-13.7c11.6-3.1,23.7-4.8,35.7-4.9c6,0,12.1,0.2,18.1,0.9
				c6,0.7,11.9,1.7,17.8,3.2c11.7,2.8,23,7.1,33.4,13c-11.1-4.3-22.5-7.6-34.1-9.8c-5.8-1.1-11.6-1.9-17.5-2.4
				c-5.9-0.6-11.7-0.8-17.6-0.7c-2.9,0-5.9,0.1-8.8,0.3c-2.9,0.2-5.9,0.4-8.8,0.8c-5.8,0.6-11.7,1.6-17.4,2.8
				C-357.2-42.1-368.5-38.5-379.5-34z"/>
		</g>
		<g>
			<path class="st2" d="M-379.5-6.4c10.3-6.1,21.5-10.6,33.1-13.7c11.6-3.1,23.7-4.8,35.7-4.9c6,0,12.1,0.2,18.1,0.9
				c6,0.7,11.9,1.7,17.8,3.2c11.7,2.8,23,7.1,33.4,13c-11.1-4.3-22.5-7.6-34.1-9.8c-5.8-1.1-11.6-1.9-17.5-2.4
				c-5.9-0.6-11.7-0.8-17.6-0.7c-2.9,0-5.9,0.1-8.8,0.3c-2.9,0.2-5.9,0.4-8.8,0.8c-5.8,0.6-11.7,1.6-17.4,2.8
				C-357.2-14.5-368.5-10.9-379.5-6.4z"/>
		</g>
		<g>
			<path class="st2" d="M-559.1-42.3c7.2-3.6,14.8-6.2,22.6-8c7.8-1.8,15.9-2.8,24-2.9c4,0,8.1,0.1,12.1,0.5c4,0.4,8,1,11.9,1.8
				c7.9,1.6,15.6,4.1,22.8,7.5c-7.7-2.3-15.4-4.2-23.2-5.3c-7.8-1.2-15.7-1.8-23.6-1.7c-3.9,0-7.9,0.3-11.8,0.6
				c-3.9,0.3-7.8,0.9-11.7,1.6C-543.9-46.8-551.5-44.8-559.1-42.3z"/>
		</g>
		<g>
			<path class="st2" d="M-559.1-21.2c7.2-3.6,14.8-6.2,22.6-8c7.8-1.8,15.9-2.8,24-2.9c4,0,8.1,0.1,12.1,0.5c4,0.4,8,1,11.9,1.8
				c7.9,1.6,15.6,4.1,22.8,7.5c-7.7-2.3-15.4-4.2-23.2-5.3c-7.8-1.2-15.7-1.8-23.6-1.7c-3.9,0-7.9,0.3-11.8,0.6
				c-3.9,0.3-7.8,0.9-11.7,1.6C-543.9-25.7-551.5-23.7-559.1-21.2z"/>
		</g>
		<g>
			<path class="st2" d="M-334.8,17.4c7.2-3.6,14.8-6.2,22.6-8c7.8-1.8,15.9-2.8,24-2.9c4,0,8.1,0.1,12.1,0.5c4,0.4,8,1,11.9,1.8
				c7.9,1.6,15.6,4.1,22.8,7.5c-7.7-2.3-15.4-4.2-23.2-5.3c-7.8-1.2-15.7-1.8-23.6-1.7c-3.9,0-7.9,0.3-11.8,0.6
				c-3.9,0.3-7.8,0.9-11.7,1.6C-319.5,12.9-327.2,14.9-334.8,17.4z"/>
		</g>
		<g>
			<path class="st2" d="M-334.8,41.2c7.2-3.6,14.8-6.2,22.6-8c7.8-1.8,15.9-2.8,24-2.9c4,0,8.1,0.1,12.1,0.5c4,0.4,8,1,11.9,1.8
				c7.9,1.6,15.6,4.1,22.8,7.5c-7.7-2.3-15.4-4.2-23.2-5.3c-7.8-1.2-15.7-1.8-23.6-1.7c-3.9,0-7.9,0.3-11.8,0.6
				c-3.9,0.3-7.8,0.9-11.7,1.6C-319.5,36.7-327.2,38.7-334.8,41.2z"/>
		</g>
	</g>
	<path class="st3" d="M-90.3-194.8c0,40.9-33.1,74-74,74c-6,0-11.8-0.7-17.4-2.1l-44.3,24.9l15.9-38.6
		c-17.2-13.6-28.3-34.6-28.3-58.2c0-40.9,33.1-74,74-74S-90.3-235.6-90.3-194.8z"/>
</g>
<g>
	<g>
		<path class="st4" d="M279.3-175.5c0-1.5,0-2.9,0-4.2c0-50.1,0-100.1-0.1-150.2c0-2.8,0.9-4.4,3.1-5.9
			c33.6-22.6,69.6-25.5,107.4-13.1c13.7,4.5,26.8,10.6,37.5,20.6c2.1,2,3.9,5.1,4.4,7.9c7.2,44.7,14.1,89.5,21.1,134.3
			c0.1,0.8,0.1,1.6,0.2,3c-4-1.2-7.6-2.4-11.2-3.5c-27.4-8.5-55.2-14.2-84.1-13.9c-21.7,0.2-42.9,3.8-62.2,14.4
			C290.1-183.2,285.1-179.3,279.3-175.5z"/>
		<path class="st4" d="M101.9-183.5c0.9-5.7,1.7-11.4,2.6-17.1c6.2-39.9,12.5-79.7,18.7-119.6c0.5-3.4,1.9-6.1,4.6-8.3
			c15.6-13.3,34.1-20.6,53.8-24.7c32.9-6.9,63.6-1.4,91.6,17.8c1.9,1.3,2.6,2.7,2.6,5c-0.1,50.2-0.1,100.4-0.1,150.6
			c0,1.4,0,2.8,0,4.1c-6.5-4.1-12.4-8.5-18.8-11.8c-22.2-11.2-46.1-13.9-70.5-12.8c-27.4,1.2-53.8,7.4-79.7,15.8
			c-1.1,0.4-2.3,0.7-3.5,1.1C102.9-183.4,102.6-183.5,101.9-183.5z"/>
		<path class="st4" d="M446.7-171.2c-16.7-4-33.2-8.4-49.9-11.7c-28.8-5.6-57.8-7.5-86.8-1.1c-8.9,2-17.4,5.7-26,8.7
			c-0.5,0.2-1,0.4-1.7,0.4c9.7-7.6,20.7-12.7,32.4-16.2c22.8-6.6,46-6.9,69.4-4.1c18.9,2.2,37.3,6.6,55.5,12.3
			c4.6,1.4,7,3.5,6.8,8.4C446.4-173.3,446.6-172.1,446.7-171.2z"/>
		<path class="st4" d="M272.6-175c-25.4-11.9-52.1-13.9-79.5-12.3c-28,1.6-55.2,7.8-82,16c-0.9,0.3-1.8,0.5-3,0.8
			c0.4-3.1,0.5-5.9,1.2-8.5c0.3-1.1,1.7-2.2,2.9-2.6c17.6-6.2,35.7-10.5,54.2-13c21.7-2.9,43.4-3.4,64.9,1.3
			C246.4-190,260.4-184.4,272.6-175z"/>
		<path class="st4" d="M272-173.5c-54.1-8.7-106.5-0.7-158.4,16.3c0.3-3.1,0.4-5.8,1-8.5c0.2-0.9,1.4-1.9,2.4-2.2
			c21.8-7.4,44.1-12.6,67-15.2c21-2.4,42-2.9,62.8,1.5c8.6,1.8,17,4.8,25.5,7.2C272.2-174.1,272.1-173.8,272-173.5z"/>
		<path class="st4" d="M440.9-157.3C390.2-174,338.5-181.9,285-173.9c0-0.2-0.1-0.5-0.1-0.6c1-0.5,1.9-1,3-1.3
			c18.2-7,37.2-9.2,56.6-9c32,0.4,62.8,6.8,93.1,16.6c2.1,0.7,2.9,1.7,3.1,3.8c0.1,2,0.4,4.1,0.6,6.1
			C441.3-158,441.1-157.8,440.9-157.3z"/>
	</g>
	<g>
		<g>
			<path class="st5" d="M136.2-308.4c4.6-2.5,9.3-4.6,14.2-6.5c4.9-1.9,9.8-3.4,14.9-4.7c5-1.3,10.2-2.3,15.4-3
				c5.2-0.7,10.4-1.1,15.6-1.1c10.4-0.2,20.9,1,31.1,3.3c5.1,1.2,10.1,2.6,15,4.4c4.9,1.8,9.7,3.8,14.3,6.2c-2.4-1-4.8-2-7.2-2.9
				c-2.4-0.9-4.9-1.7-7.4-2.5c-4.9-1.6-9.9-2.9-15-3.9c-10.1-2-20.5-3.1-30.8-2.9c-5.2,0-10.3,0.4-15.4,1
				c-5.1,0.6-10.2,1.5-15.3,2.6c-5,1.1-10,2.6-14.9,4.3C145.7-312.5,140.9-310.5,136.2-308.4z"/>
		</g>
		<g>
			<path class="st5" d="M129.3-242.1c4.6-2.5,9.3-4.6,14.2-6.5c4.9-1.9,9.8-3.4,14.9-4.7c5-1.3,10.2-2.3,15.4-3
				c5.2-0.7,10.4-1.1,15.6-1.1c10.4-0.2,20.9,1,31.1,3.3c5.1,1.2,10.1,2.6,15,4.4c4.9,1.8,9.7,3.8,14.3,6.2c-2.4-1-4.8-2-7.2-2.9
				c-2.4-0.9-4.9-1.7-7.4-2.5c-4.9-1.6-9.9-2.9-15-3.9c-10.1-2-20.5-3.1-30.8-2.9c-5.2,0-10.3,0.4-15.4,1
				c-5.1,0.6-10.2,1.5-15.3,2.6c-5,1.1-10,2.6-14.9,4.3C138.9-246.2,134.1-244.2,129.3-242.1z"/>
		</g>
		<g>
			<path class="st5" d="M129.3-219.1c4.6-2.5,9.3-4.6,14.2-6.5c4.9-1.9,9.8-3.4,14.9-4.7c5-1.3,10.2-2.3,15.4-3
				c5.2-0.7,10.4-1.1,15.6-1.1c10.4-0.2,20.9,1,31.1,3.3c5.1,1.2,10.1,2.6,15,4.4c4.9,1.8,9.7,3.8,14.3,6.2c-2.4-1-4.8-2-7.2-2.9
				c-2.4-0.9-4.9-1.7-7.4-2.5c-4.9-1.6-9.9-2.9-15-3.9c-10.1-2-20.5-3.1-30.8-2.9c-5.2,0-10.3,0.4-15.4,1
				c-5.1,0.6-10.2,1.5-15.3,2.6c-5,1.1-10,2.6-14.9,4.3C138.9-223.2,134.1-221.2,129.3-219.1z"/>
		</g>
		<g>
			<path class="st5" d="M293.7-308.4c4.6-2.5,9.3-4.6,14.2-6.5c4.9-1.9,9.8-3.4,14.9-4.7c5-1.3,10.2-2.3,15.4-3
				c5.2-0.7,10.4-1.1,15.6-1.1c10.4-0.2,20.9,1,31.1,3.3c5.1,1.2,10.1,2.6,15,4.4c4.9,1.8,9.7,3.8,14.3,6.2c-2.4-1-4.8-2-7.2-2.9
				c-2.4-0.9-4.9-1.7-7.4-2.5c-4.9-1.6-9.9-2.9-15-3.9c-10.1-2-20.5-3.1-30.8-2.9c-5.2,0-10.3,0.4-15.4,1
				c-5.1,0.6-10.2,1.5-15.3,2.6c-5,1.1-10,2.6-14.9,4.3C303.2-312.5,298.4-310.5,293.7-308.4z"/>
		</g>
		<g>
			<path class="st5" d="M293.7-282.7c4.6-2.5,9.3-4.6,14.2-6.5c4.9-1.9,9.8-3.4,14.9-4.7c5-1.3,10.2-2.3,15.4-3
				c5.2-0.7,10.4-1.1,15.6-1.1c10.4-0.2,20.9,1,31.1,3.3c5.1,1.2,10.1,2.6,15,4.4c4.9,1.8,9.7,3.8,14.3,6.2c-2.4-1-4.8-2-7.2-2.9
				c-2.4-0.9-4.9-1.7-7.4-2.5c-4.9-1.6-9.9-2.9-15-3.9c-10.1-2-20.5-3.1-30.8-2.9c-5.2,0-10.3,0.4-15.4,1
				c-5.1,0.6-10.2,1.5-15.3,2.6c-5,1.1-10,2.6-14.9,4.3C303.2-286.8,298.4-284.8,293.7-282.7z"/>
		</g>
		<g>
			<path class="st5" d="M293.7-258.7c4.6-2.5,9.3-4.6,14.2-6.5c4.9-1.9,9.8-3.4,14.9-4.7c5-1.3,10.2-2.3,15.4-3
				c5.2-0.7,10.4-1.1,15.6-1.1c10.4-0.2,20.9,1,31.1,3.3c5.1,1.2,10.1,2.6,15,4.4c4.9,1.8,9.7,3.8,14.3,6.2c-2.4-1-4.8-2-7.2-2.9
				c-2.4-0.9-4.9-1.7-7.4-2.5c-4.9-1.6-9.9-2.9-15-3.9c-10.1-2-20.5-3.1-30.8-2.9c-5.2,0-10.3,0.4-15.4,1
				c-5.1,0.6-10.2,1.5-15.3,2.6c-5,1.1-10,2.6-14.9,4.3C303.2-262.8,298.4-260.8,293.7-258.7z"/>
		</g>
		<g>
			<path class="st5" d="M136.2-290c12.6-5.9,26.6-9,40.6-9.2c3.5,0,7,0.1,10.5,0.4c3.5,0.3,7,0.8,10.4,1.5c6.9,1.3,13.6,3.5,20,6.3
				c-13.2-4.3-27-6.7-40.8-6.5c-6.9,0.1-13.8,0.8-20.6,2C149.4-294.1,142.7-292.3,136.2-290z"/>
		</g>
		<g>
			<path class="st5" d="M136.2-271.6c12.6-5.9,26.6-9,40.6-9.2c3.5,0,7,0.1,10.5,0.4c3.5,0.3,7,0.8,10.4,1.5
				c6.9,1.3,13.6,3.5,20,6.3c-13.2-4.3-27-6.7-40.8-6.5c-6.9,0.1-13.8,0.8-20.6,2C149.4-275.7,142.7-273.9,136.2-271.6z"/>
		</g>
		<g>
			<path class="st5" d="M332.6-237.9c12.6-5.9,26.6-9,40.6-9.2c3.5,0,7,0.1,10.5,0.4c3.5,0.3,7,0.8,10.4,1.5
				c6.9,1.3,13.6,3.5,20,6.3c-13.2-4.3-27-6.7-40.8-6.5c-6.9,0.1-13.8,0.8-20.6,2C345.9-242.1,339.2-240.3,332.6-237.9z"/>
		</g>
		<g>
			<path class="st5" d="M332.6-217.1c12.6-5.9,26.6-9,40.6-9.2c3.5,0,7,0.1,10.5,0.4c3.5,0.3,7,0.8,10.4,1.5
				c6.9,1.3,13.6,3.5,20,6.3c-13.2-4.3-27-6.7-40.8-6.5c-6.9,0.1-13.8,0.8-20.6,2C345.9-221.3,339.2-219.5,332.6-217.1z"/>
		</g>
	</g>
	<path class="st6" d="M524.4-391c0,35.2-28.5,63.7-63.7,63.7c-5.2,0-10.2-0.6-15-1.8l-38.1,21.4l13.7-33.3
		c-14.8-11.7-24.3-29.8-24.3-50.1c0-35.2,28.5-63.7,63.7-63.7S524.4-426.2,524.4-391z"/>
	<path class="st6" d="M19.6-394c0,35.2,28.5,63.7,63.7,63.7c5.2,0,10.2-0.6,15-1.8l38.1,21.4l-13.7-33.3
		c14.8-11.7,24.3-29.8,24.3-50.1c0-35.2-28.5-63.7-63.7-63.7S19.6-429.2,19.6-394z"/>
</g>
<g>
	<g>
		<path class="st4" d="M264,286.5c0-1.5,0-2.9,0-4.2c0-50.1,0-100.1-0.1-150.2c0-2.8,0.9-4.4,3.1-5.9
			c33.6-22.6,69.6-25.5,107.4-13.1c13.7,4.5,26.8,10.6,37.5,20.6c2.1,2,3.9,5.1,4.4,7.9c7.2,44.7,14.1,89.5,21.1,134.3
			c0.1,0.8,0.1,1.6,0.2,3c-4-1.2-7.6-2.4-11.2-3.5c-27.4-8.5-55.2-14.2-84.1-13.9c-21.7,0.2-42.9,3.8-62.2,14.4
			C274.7,278.8,269.7,282.7,264,286.5z"/>
		<path class="st4" d="M86.6,278.5c0.9-5.7,1.7-11.4,2.6-17.1c6.2-39.9,12.5-79.7,18.7-119.6c0.5-3.4,1.9-6.1,4.6-8.3
			c15.6-13.3,34.1-20.6,53.8-24.7c32.9-6.9,63.6-1.4,91.6,17.8c1.9,1.3,2.6,2.7,2.6,5c-0.1,50.2-0.1,100.4-0.1,150.6
			c0,1.4,0,2.8,0,4.1c-6.5-4.1-12.4-8.5-18.8-11.8c-22.2-11.2-46.1-13.9-70.5-12.8c-27.4,1.2-53.8,7.4-79.7,15.8
			c-1.1,0.4-2.3,0.7-3.5,1.1C87.5,278.6,87.3,278.5,86.6,278.5z"/>
		<path class="st4" d="M431.4,290.8c-16.7-4-33.2-8.4-49.9-11.7c-28.8-5.6-57.8-7.5-86.8-1.1c-8.9,2-17.4,5.7-26,8.7
			c-0.5,0.2-1,0.4-1.7,0.4c9.7-7.6,20.7-12.7,32.4-16.2c22.8-6.6,46-6.9,69.4-4.1c18.9,2.2,37.3,6.6,55.5,12.3
			c4.6,1.4,7,3.5,6.8,8.4C431.1,288.7,431.3,289.9,431.4,290.8z"/>
		<path class="st4" d="M257.3,287.1c-25.4-11.9-52.1-13.9-79.5-12.3c-28,1.6-55.2,7.8-82,16c-0.9,0.3-1.8,0.5-3,0.8
			c0.4-3.1,0.5-5.9,1.2-8.5c0.3-1.1,1.7-2.2,2.9-2.6c17.6-6.2,35.7-10.5,54.2-13c21.7-2.9,43.4-3.4,64.9,1.3
			C231.1,272,245.1,277.6,257.3,287.1z"/>
		<path class="st4" d="M256.7,288.5c-54.1-8.7-106.5-0.7-158.4,16.3c0.3-3.1,0.4-5.8,1-8.5c0.2-0.9,1.4-1.9,2.4-2.2
			c21.8-7.4,44.1-12.6,67-15.2c21-2.4,42-2.9,62.8,1.5c8.6,1.8,17,4.8,25.5,7.2C256.9,287.9,256.8,288.2,256.7,288.5z"/>
		<path class="st4" d="M425.6,304.7c-50.8-16.7-102.5-24.6-155.9-16.6c0-0.2-0.1-0.5-0.1-0.6c1-0.5,1.9-1,3-1.3
			c18.2-7,37.2-9.2,56.6-9c32,0.4,62.8,6.8,93.1,16.6c2.1,0.7,2.9,1.7,3.1,3.8c0.1,2,0.4,4.1,0.6,6.1
			C425.9,304,425.8,304.2,425.6,304.7z"/>
	</g>
	<g>
		<g>
			<path class="st5" d="M120.9,153.6c4.6-2.5,9.3-4.6,14.2-6.5c4.9-1.9,9.8-3.4,14.9-4.7c5-1.3,10.2-2.3,15.4-3
				c5.2-0.7,10.4-1.1,15.6-1.1c10.4-0.2,20.9,1,31.1,3.3c5.1,1.2,10.1,2.6,15,4.4c4.9,1.8,9.7,3.8,14.3,6.2c-2.4-1-4.8-2-7.2-2.9
				c-2.4-0.9-4.9-1.7-7.4-2.5c-4.9-1.6-9.9-2.9-15-3.9c-10.1-2-20.5-3.1-30.8-2.9c-5.2,0-10.3,0.4-15.4,1
				c-5.1,0.6-10.2,1.5-15.3,2.6c-5,1.1-10,2.6-14.9,4.3C130.4,149.5,125.6,151.5,120.9,153.6z"/>
		</g>
		<g>
			<path class="st5" d="M114,219.9c4.6-2.5,9.3-4.6,14.2-6.5c4.9-1.9,9.8-3.4,14.9-4.7c5-1.3,10.2-2.3,15.4-3
				c5.2-0.7,10.4-1.1,15.6-1.1c10.4-0.2,20.9,1,31.1,3.3c5.1,1.2,10.1,2.6,15,4.4c4.9,1.8,9.7,3.8,14.3,6.2c-2.4-1-4.8-2-7.2-2.9
				c-2.4-0.9-4.9-1.7-7.4-2.5c-4.9-1.6-9.9-2.9-15-3.9c-10.1-2-20.5-3.1-30.8-2.9c-5.2,0-10.3,0.4-15.4,1
				c-5.1,0.6-10.2,1.5-15.3,2.6c-5,1.1-10,2.6-14.9,4.3C123.5,215.8,118.8,217.8,114,219.9z"/>
		</g>
		<g>
			<path class="st5" d="M114,242.9c4.6-2.5,9.3-4.6,14.2-6.5c4.9-1.9,9.8-3.4,14.9-4.7c5-1.3,10.2-2.3,15.4-3
				c5.2-0.7,10.4-1.1,15.6-1.1c10.4-0.2,20.9,1,31.1,3.3c5.1,1.2,10.1,2.6,15,4.4c4.9,1.8,9.7,3.8,14.3,6.2c-2.4-1-4.8-2-7.2-2.9
				c-2.4-0.9-4.9-1.7-7.4-2.5c-4.9-1.6-9.9-2.9-15-3.9c-10.1-2-20.5-3.1-30.8-2.9c-5.2,0-10.3,0.4-15.4,1
				c-5.1,0.6-10.2,1.5-15.3,2.6c-5,1.1-10,2.6-14.9,4.3C123.5,238.8,118.8,240.8,114,242.9z"/>
		</g>
		<g>
			<path class="st5" d="M278.3,153.6c4.6-2.5,9.3-4.6,14.2-6.5c4.9-1.9,9.8-3.4,14.9-4.7c5-1.3,10.2-2.3,15.4-3
				c5.2-0.7,10.4-1.1,15.6-1.1c10.4-0.2,20.9,1,31.1,3.3c5.1,1.2,10.1,2.6,15,4.4c4.9,1.8,9.7,3.8,14.3,6.2c-2.4-1-4.8-2-7.2-2.9
				c-2.4-0.9-4.9-1.7-7.4-2.5c-4.9-1.6-9.9-2.9-15-3.9c-10.1-2-20.5-3.1-30.8-2.9c-5.2,0-10.3,0.4-15.4,1
				c-5.1,0.6-10.2,1.5-15.3,2.6c-5,1.1-10,2.6-14.9,4.3C287.9,149.5,283.1,151.5,278.3,153.6z"/>
		</g>
		<g>
			<path class="st5" d="M278.3,179.3c4.6-2.5,9.3-4.6,14.2-6.5c4.9-1.9,9.8-3.4,14.9-4.7c5-1.3,10.2-2.3,15.4-3
				c5.2-0.7,10.4-1.1,15.6-1.1c10.4-0.2,20.9,1,31.1,3.3c5.1,1.2,10.1,2.6,15,4.4c4.9,1.8,9.7,3.8,14.3,6.2c-2.4-1-4.8-2-7.2-2.9
				c-2.4-0.9-4.9-1.7-7.4-2.5c-4.9-1.6-9.9-2.9-15-3.9c-10.1-2-20.5-3.1-30.8-2.9c-5.2,0-10.3,0.4-15.4,1
				c-5.1,0.6-10.2,1.5-15.3,2.6c-5,1.1-10,2.6-14.9,4.3C287.9,175.2,283.1,177.2,278.3,179.3z"/>
		</g>
		<g>
			<path class="st5" d="M278.3,203.3c4.6-2.5,9.3-4.6,14.2-6.5c4.9-1.9,9.8-3.4,14.9-4.7c5-1.3,10.2-2.3,15.4-3
				c5.2-0.7,10.4-1.1,15.6-1.1c10.4-0.2,20.9,1,31.1,3.3c5.1,1.2,10.1,2.6,15,4.4c4.9,1.8,9.7,3.8,14.3,6.2c-2.4-1-4.8-2-7.2-2.9
				c-2.4-0.9-4.9-1.7-7.4-2.5c-4.9-1.6-9.9-2.9-15-3.9c-10.1-2-20.5-3.1-30.8-2.9c-5.2,0-10.3,0.4-15.4,1
				c-5.1,0.6-10.2,1.5-15.3,2.6c-5,1.1-10,2.6-14.9,4.3C287.9,199.2,283.1,201.2,278.3,203.3z"/>
		</g>
		<g>
			<path class="st5" d="M120.8,172c12.6-5.9,26.6-9,40.6-9.2c3.5,0,7,0.1,10.5,0.4c3.5,0.3,7,0.8,10.4,1.5c6.9,1.3,13.6,3.5,20,6.3
				c-13.2-4.3-27-6.7-40.8-6.5c-6.9,0.1-13.8,0.8-20.6,2C134.1,167.9,127.4,169.7,120.8,172z"/>
		</g>
		<g>
			<path class="st5" d="M120.8,190.4c12.6-5.9,26.6-9,40.6-9.2c3.5,0,7,0.1,10.5,0.4c3.5,0.3,7,0.8,10.4,1.5
				c6.9,1.3,13.6,3.5,20,6.3c-13.2-4.3-27-6.7-40.8-6.5c-6.9,0.1-13.8,0.8-20.6,2C134.1,186.3,127.4,188.1,120.8,190.4z"/>
		</g>
		<g>
			<path class="st5" d="M317.3,224.1c12.6-5.9,26.6-9,40.6-9.2c3.5,0,7,0.1,10.5,0.4c3.5,0.3,7,0.8,10.4,1.5
				c6.9,1.3,13.6,3.5,20,6.3c-13.2-4.3-27-6.7-40.8-6.5c-6.9,0.1-13.8,0.8-20.6,2C330.6,219.9,323.9,221.8,317.3,224.1z"/>
		</g>
		<g>
			<path class="st5" d="M317.3,244.9c12.6-5.9,26.6-9,40.6-9.2c3.5,0,7,0.1,10.5,0.4c3.5,0.3,7,0.8,10.4,1.5
				c6.9,1.3,13.6,3.5,20,6.3c-13.2-4.3-27-6.7-40.8-6.5c-6.9,0.1-13.8,0.8-20.6,2C330.6,240.7,323.9,242.5,317.3,244.9z"/>
		</g>
	</g>
	<path class="st7" d="M509,71.1c0,35.2-28.5,63.7-63.7,63.7c-5.2,0-10.2-0.6-15-1.8l-38.1,21.4l13.7-33.3
		c-14.8-11.7-24.3-29.8-24.3-50.1c0-35.2,28.5-63.7,63.7-63.7S509,35.9,509,71.1z"/>
	<path class="st7" d="M4.3,68c0,35.2,28.5,63.7,63.7,63.7c5.2,0,10.2-0.6,15-1.8l38.1,21.4l-13.7-33.3
		c14.8-11.7,24.3-29.8,24.3-50.1c0-35.2-28.5-63.7-63.7-63.7S4.3,32.8,4.3,68z"/>
</g>
<g>
	<g>
		<g>
			<path class="st8" d="M1225.2-156c0-1.9,0-3.5,0-5.2c0-62.3,0-124.6-0.1-186.9c0-3.5,1.1-5.4,3.6-7.3
				c38.8-28.2,80.4-31.7,124.1-16.3c15.9,5.6,31,13.2,43.4,25.6c2.4,2.4,4.5,6.3,5,9.9c8.3,55.7,16.3,111.4,24.4,167.1
				c0.1,1,0.1,2,0.2,3.7c-4.6-1.6-8.8-3-13-4.4c-31.6-10.5-63.8-17.7-97.1-17.3c-25.1,0.3-49.5,4.7-71.9,17.9
				C1237.6-165.5,1231.8-160.8,1225.2-156z"/>
			<path class="st8" d="M1020.2-166c1-7.1,1.9-14.2,3-21.3c7.2-49.6,14.4-99.2,21.6-148.8c0.6-4.2,2.2-7.5,5.3-10.3
				c18.1-16.5,39.3-25.6,62.1-30.8c38.1-8.6,73.5-1.7,105.8,22.2c2.2,1.6,3,3.3,3,6.3c-0.1,62.4-0.1,124.9-0.1,187.3
				c0,1.8,0,3.5,0,5.1c-7.5-5.1-14.3-10.6-21.8-14.7c-25.6-13.9-53.2-17.3-81.5-16c-31.6,1.5-62.1,9.2-92.1,19.7
				c-1.3,0.5-2.7,0.9-4,1.3C1021.4-165.8,1021.1-165.9,1020.2-166z"/>
			<path class="st8" d="M1418.5-150.6c-19.3-4.9-38.3-10.5-57.6-14.5c-33.3-6.9-66.8-9.3-100.2-1.4c-10.3,2.4-20.1,7.1-30.1,10.8
				c-0.6,0.2-1.2,0.5-1.9,0.5c11.2-9.5,23.9-15.9,37.5-20.1c26.3-8.2,53.2-8.6,80.1-5.1c21.8,2.8,43.1,8.2,64.1,15.3
				c5.3,1.8,8.1,4.4,7.9,10.4C1418.2-153.2,1418.5-151.7,1418.5-150.6z"/>
			<path class="st8" d="M1217.5-155.3c-29.3-14.8-60.2-17.3-91.8-15.3c-32.4,2-63.8,9.7-94.7,19.9c-1,0.3-2.1,0.6-3.5,1
				c0.5-3.8,0.6-7.3,1.4-10.6c0.3-1.3,2-2.7,3.3-3.2c20.3-7.7,41.2-13.1,62.6-16.2c25.1-3.7,50.1-4.2,75,1.6
				C1187.2-174,1203.4-167,1217.5-155.3z"/>
			<path class="st8" d="M1216.8-153.5c-62.5-10.8-123-0.9-182.9,20.3c0.4-3.8,0.5-7.3,1.1-10.6c0.2-1.1,1.6-2.4,2.7-2.8
				c25.2-9.2,51-15.6,77.4-18.9c24.2-3,48.5-3.6,72.5,1.9c10,2.3,19.7,6,29.5,9C1217-154.2,1216.9-153.8,1216.8-153.5z"/>
			<path class="st8" d="M1411.9-133.3c-58.6-20.8-118.4-30.6-180.1-20.6c0-0.3-0.1-0.7-0.1-0.7c1.1-0.6,2.2-1.2,3.4-1.7
				c21-8.8,43-11.5,65.3-11.2c36.9,0.5,72.6,8.5,107.5,20.7c2.4,0.8,3.4,2.2,3.5,4.8c0.1,2.5,0.5,5.1,0.7,7.6
				C1412.3-134.2,1412.1-133.9,1411.9-133.3z"/>
		</g>
		<g>
			<g>
				<path class="st5" d="M1059.9-321.3c10.4-6,21.7-10.7,33.4-14c5.8-1.7,11.8-2.8,17.8-3.7c6-0.9,12.1-1.3,18.1-1.4
					c12.1-0.2,24.3,1.2,36.1,4.1c11.8,2.9,23.2,7.3,33.7,13.1c-2.7-1.3-5.5-2.4-8.3-3.6c-2.8-1.1-5.6-2.2-8.5-3.1
					c-5.7-1.9-11.5-3.6-17.3-4.8c-5.9-1.3-11.8-2.3-17.7-2.9c-6-0.7-12-0.9-17.9-0.8c-3,0-6,0.2-9,0.3c-3,0.3-6,0.5-8.9,0.9
					c-5.9,0.8-11.8,1.9-17.7,3.3C1082-330.8,1070.7-326.7,1059.9-321.3z"/>
			</g>
			<g>
				<path class="st5" d="M1051.9-238.8c10.4-6,21.7-10.7,33.4-14c5.8-1.7,11.8-2.8,17.8-3.7c6-0.9,12.1-1.3,18.1-1.4
					c12.1-0.2,24.3,1.2,36.1,4.1c11.8,2.9,23.2,7.3,33.7,13.1c-2.7-1.3-5.5-2.4-8.3-3.6c-2.8-1.1-5.6-2.2-8.5-3.1
					c-5.7-1.9-11.5-3.6-17.3-4.8c-5.9-1.3-11.8-2.3-17.7-2.9c-6-0.7-12-0.9-17.9-0.8c-3,0-6,0.2-9,0.3c-3,0.3-6,0.5-8.9,0.9
					c-5.9,0.8-11.8,1.9-17.7,3.3C1074.1-248.3,1062.8-244.1,1051.9-238.8z"/>
			</g>
			<g>
				<path class="st5" d="M1051.9-210.2c10.4-6,21.7-10.7,33.4-14c5.8-1.7,11.8-2.8,17.8-3.7c6-0.9,12.1-1.3,18.1-1.4
					c12.1-0.2,24.3,1.2,36.1,4.1c11.8,2.9,23.2,7.3,33.7,13.1c-2.7-1.3-5.5-2.4-8.3-3.6c-2.8-1.1-5.6-2.2-8.5-3.1
					c-5.7-1.9-11.5-3.6-17.3-4.8c-5.9-1.3-11.8-2.3-17.7-2.9c-6-0.7-12-0.9-17.9-0.8c-3,0-6,0.2-9,0.3c-3,0.3-6,0.5-8.9,0.9
					c-5.9,0.8-11.8,1.9-17.7,3.3C1074.1-219.7,1062.8-215.6,1051.9-210.2z"/>
			</g>
			<g>
				<path class="st5" d="M1241.8-321.3c10.4-6,21.7-10.7,33.4-14c5.8-1.7,11.8-2.8,17.8-3.7c6-0.9,12.1-1.3,18.1-1.4
					c12.1-0.2,24.3,1.2,36.1,4.1c11.8,2.9,23.2,7.3,33.7,13.1c-2.7-1.3-5.5-2.4-8.3-3.6c-2.8-1.1-5.6-2.2-8.5-3.1
					c-5.7-1.9-11.5-3.6-17.3-4.8c-5.9-1.3-11.8-2.3-17.7-2.9c-6-0.7-12-0.9-17.9-0.8c-3,0-6,0.2-9,0.3c-3,0.3-6,0.5-8.9,0.9
					c-5.9,0.8-11.8,1.9-17.7,3.3C1263.9-330.8,1252.6-326.7,1241.8-321.3z"/>
			</g>
			<g>
				<path class="st5" d="M1241.8-289.4c10.4-6,21.7-10.7,33.4-14c5.8-1.7,11.8-2.8,17.8-3.7c6-0.9,12.1-1.3,18.1-1.4
					c12.1-0.2,24.3,1.2,36.1,4.1c11.8,2.9,23.2,7.3,33.7,13.1c-2.7-1.3-5.5-2.4-8.3-3.6c-2.8-1.1-5.6-2.2-8.5-3.1
					c-5.7-1.9-11.5-3.6-17.3-4.8c-5.9-1.3-11.8-2.3-17.7-2.9c-6-0.7-12-0.9-17.9-0.8c-3,0-6,0.2-9,0.3c-3,0.3-6,0.5-8.9,0.9
					c-5.9,0.8-11.8,1.9-17.7,3.3C1263.9-298.9,1252.6-294.7,1241.8-289.4z"/>
			</g>
			<g>
				<path class="st5" d="M1241.8-259.5c10.4-6,21.7-10.7,33.4-14c5.8-1.7,11.8-2.8,17.8-3.7c6-0.9,12.1-1.3,18.1-1.4
					c12.1-0.2,24.3,1.2,36.1,4.1c11.8,2.9,23.2,7.3,33.7,13.1c-2.7-1.3-5.5-2.4-8.3-3.6c-2.8-1.1-5.6-2.2-8.5-3.1
					c-5.7-1.9-11.5-3.6-17.3-4.8c-5.9-1.3-11.8-2.3-17.7-2.9c-6-0.7-12-0.9-17.9-0.8c-3,0-6,0.2-9,0.3c-3,0.3-6,0.5-8.9,0.9
					c-5.9,0.8-11.8,1.9-17.7,3.3C1263.9-269,1252.6-264.8,1241.8-259.5z"/>
			</g>
			<g>
				<path class="st5" d="M1059.8-298.4c7.2-3.6,14.9-6.5,22.8-8.3c7.9-1.9,16-2.9,24.2-3c4.1,0,8.1,0.1,12.2,0.5c4,0.4,8.1,1,12,1.9
					c7.9,1.7,15.7,4.3,23,7.7c-15.2-5.4-31.2-8.3-47.2-8.1c-8,0.1-16,1-23.8,2.5C1075.1-303.6,1067.4-301.3,1059.8-298.4z"/>
			</g>
			<g>
				<path class="st5" d="M1059.8-275.5c7.2-3.6,14.9-6.5,22.8-8.3c7.9-1.9,16-2.9,24.2-3c4.1,0,8.1,0.1,12.2,0.5c4,0.4,8.1,1,12,1.9
					c7.9,1.7,15.7,4.3,23,7.7c-15.2-5.4-31.2-8.3-47.2-8.1c-8,0.1-16,1-23.8,2.5C1075.1-280.7,1067.4-278.4,1059.8-275.5z"/>
			</g>
			<g>
				<path class="st5" d="M1286.8-233.6c7.2-3.6,14.9-6.5,22.8-8.3c7.9-1.9,16-2.9,24.2-3c4.1,0,8.1,0.1,12.2,0.5c4,0.4,8.1,1,12,1.9
					c7.9,1.7,15.7,4.3,23,7.7c-15.2-5.4-31.2-8.3-47.2-8.1c-8,0.1-16,1-23.8,2.5C1302.1-238.8,1294.3-236.5,1286.8-233.6z"/>
			</g>
			<g>
				<path class="st5" d="M1286.8-207.8c7.2-3.6,14.9-6.5,22.8-8.3c7.9-1.9,16-2.9,24.2-3c4.1,0,8.1,0.1,12.2,0.5c4,0.4,8.1,1,12,1.9
					c7.9,1.7,15.7,4.3,23,7.7c-15.2-5.4-31.2-8.3-47.2-8.1c-8,0.1-16,1-23.8,2.5C1302.1-212.9,1294.3-210.7,1286.8-207.8z"/>
			</g>
		</g>
	</g>
	<path class="st9" d="M1508.3-424.1c0,43.8-33,79.3-73.6,79.3c-6,0-11.8-0.8-17.3-2.2l-44,26.7l15.8-41.4
		c-17.1-14.5-28.1-37.1-28.1-62.4c0-43.8,33-79.3,73.6-79.3S1508.3-467.9,1508.3-424.1z"/>
	<path class="st9" d="M925.2-427.8c0,43.8,33,79.3,73.6,79.3c6,0,11.8-0.8,17.3-2.2l44,26.7l-15.8-41.4
		c17.1-14.5,28.1-37.1,28.1-62.4c0-43.8-33-79.3-73.6-79.3C958.2-507.1,925.2-471.6,925.2-427.8z"/>
</g>
<rect x="-1271.3" y="790.8" class="st10" width="832" height="832"/>
<rect x="-445.3" y="1622.8" class="st10" width="802" height="775"/>
<g>
	<g>
		<g>
			<path class="st11" d="M-889.8,1373.3c0-2.6,0-4.8,0-7c0-84.2,0-168.4-0.1-252.6c0-4.7,1.2-7.3,4.1-9.9
				c43.6-38.1,90.3-42.9,139.4-22c17.8,7.6,34.8,17.8,48.7,34.6c2.7,3.3,5.1,8.6,5.7,13.3c9.3,75.2,18.4,150.5,27.4,225.8
				c0.2,1.4,0.1,2.8,0.3,5c-5.2-2.1-9.9-4-14.6-5.9c-35.5-14.3-71.7-24-109.1-23.4c-28.2,0.4-55.6,6.4-80.8,24.2
				C-875.9,1360.5-882.3,1367-889.8,1373.3z"/>
			<path class="st11" d="M-1120.1,1359.9c1.1-9.6,2.2-19.2,3.3-28.8c8.1-67.1,16.2-134.1,24.3-201.2c0.7-5.7,2.5-10.2,5.9-14
				c20.3-22.3,44.2-34.6,69.8-41.6c42.8-11.6,82.6-2.3,118.9,30c2.5,2.2,3.4,4.5,3.4,8.5c-0.1,84.4-0.1,168.8-0.1,253.2
				c0,2.4,0,4.7,0,6.9c-8.4-6.9-16-14.3-24.5-19.8c-28.8-18.8-59.8-23.3-91.6-21.6c-35.5,2-69.8,12.4-103.5,26.6
				c-1.5,0.6-3,1.2-4.5,1.8C-1118.8,1360.1-1119.2,1360-1120.1,1359.9z"/>
			<path class="st11" d="M-672.6,1380.7c-21.7-6.7-43.1-14.2-64.7-19.6c-37.4-9.4-75.1-12.6-112.6-1.8c-11.5,3.3-22.5,9.6-33.8,14.6
				c-0.7,0.3-1.4,0.7-2.1,0.7c12.6-12.9,26.8-21.4,42.1-27.2c29.6-11.1,59.7-11.6,90-6.9c24.5,3.8,48.4,11.1,72,20.7
				c6,2.4,9.1,5.9,8.9,14.1C-672.9,1377.1-672.7,1379.2-672.6,1380.7z"/>
			<path class="st11" d="M-898.5,1374.3c-32.9-19.9-67.7-23.4-103.2-20.7c-36.4,2.8-71.7,13-106.4,26.9c-1.1,0.5-2.3,0.8-3.9,1.3
				c0.5-5.2,0.7-9.9,1.6-14.3c0.4-1.8,2.2-3.7,3.7-4.4c22.9-10.4,46.3-17.7,70.3-21.9c28.2-4.9,56.3-5.7,84.3,2.2
				C-932.5,1349-914.4,1358.5-898.5,1374.3z"/>
			<path class="st11" d="M-899.2,1376.8c-70.2-14.6-138.2-1.2-205.5,27.4c0.4-5.2,0.6-9.8,1.3-14.3c0.2-1.5,1.8-3.2,3.1-3.7
				c28.3-12.4,57.2-21.1,86.9-25.6c27.2-4.1,54.5-4.9,81.5,2.6c11.2,3.1,22.1,8.1,33.1,12.2C-899,1375.8-899.1,1376.3-899.2,1376.8z
				"/>
			<path class="st11" d="M-680,1404.1c-65.9-28.1-133-41.4-202.4-27.9c0-0.4-0.1-0.9-0.1-1c1.3-0.8,2.5-1.6,3.8-2.3
				c23.6-11.8,48.3-15.5,73.4-15.2c41.5,0.6,81.5,11.5,120.8,28c2.7,1.1,3.8,2.9,4,6.4c0.1,3.4,0.5,6.9,0.8,10.3
				C-679.6,1402.9-679.8,1403.2-680,1404.1z"/>
		</g>
		<g>
			<g>
				<path class="st5" d="M-1075.6,1149.9c5.7-3.9,11.6-7.5,17.8-10.6c6.2-3.1,12.6-5.7,19.2-8c6.6-2.2,13.3-3.9,20.2-5.1
					c3.4-0.7,6.9-1,10.3-1.4c3.5-0.2,6.9-0.6,10.4-0.6c13.9-0.3,27.8,1.7,41.1,5.7c6.6,2,13.1,4.5,19.4,7.4
					c6.2,3,12.3,6.3,18.1,10.1c-3-1.7-6.1-3.2-9.2-4.8c-3.1-1.5-6.2-2.9-9.4-4.2c-6.3-2.6-12.8-4.9-19.4-6.6
					c-13.2-3.5-26.9-5.4-40.5-5.1c-3.4,0-6.8,0.3-10.2,0.5c-3.4,0.4-6.8,0.7-10.2,1.3c-6.7,1.1-13.4,2.6-20,4.6
					c-6.5,2-13,4.4-19.2,7.2C-1063.6,1143.2-1069.6,1146.5-1075.6,1149.9z"/>
			</g>
			<g>
				<path class="st5" d="M-1084.5,1261.5c5.7-3.9,11.6-7.5,17.8-10.6c6.2-3.1,12.6-5.7,19.2-8c6.6-2.2,13.3-3.9,20.2-5.1
					c3.4-0.7,6.9-1,10.3-1.4c3.5-0.2,6.9-0.6,10.4-0.6c13.9-0.3,27.8,1.7,41.1,5.7c6.6,2,13.1,4.5,19.4,7.4
					c6.2,3,12.3,6.3,18.1,10.1c-3-1.7-6.1-3.2-9.2-4.8c-3.1-1.5-6.2-2.9-9.4-4.2c-6.3-2.6-12.8-4.9-19.4-6.6
					c-13.2-3.5-26.9-5.4-40.5-5.1c-3.4,0-6.8,0.3-10.2,0.5c-3.4,0.4-6.8,0.7-10.2,1.3c-6.7,1.1-13.4,2.6-20,4.6
					c-6.5,2-13,4.4-19.2,7.2C-1072.5,1254.7-1078.5,1258-1084.5,1261.5z"/>
			</g>
			<g>
				<path class="st5" d="M-1084.5,1300.1c5.7-3.9,11.6-7.5,17.8-10.6c6.2-3.1,12.6-5.7,19.2-8c6.6-2.2,13.3-3.9,20.2-5.1
					c3.4-0.7,6.9-1,10.3-1.4c3.5-0.2,6.9-0.6,10.4-0.6c13.9-0.3,27.8,1.7,41.1,5.7c6.6,2,13.1,4.5,19.4,7.4
					c6.2,3,12.3,6.3,18.1,10.1c-3-1.7-6.1-3.2-9.2-4.8c-3.1-1.5-6.2-2.9-9.4-4.2c-6.3-2.6-12.8-4.9-19.4-6.6
					c-13.2-3.5-26.9-5.4-40.5-5.1c-3.4,0-6.8,0.3-10.2,0.5c-3.4,0.4-6.8,0.7-10.2,1.3c-6.7,1.1-13.4,2.6-20,4.6
					c-6.5,2-13,4.4-19.2,7.2C-1072.5,1293.3-1078.5,1296.6-1084.5,1300.1z"/>
			</g>
			<g>
				<path class="st5" d="M-871.2,1149.9c5.7-3.9,11.6-7.5,17.8-10.6c6.2-3.1,12.6-5.7,19.2-8c6.6-2.2,13.3-3.9,20.2-5.1
					c3.4-0.7,6.9-1,10.3-1.4c3.5-0.2,6.9-0.6,10.4-0.6c13.9-0.3,27.8,1.7,41.1,5.7c6.6,2,13.1,4.5,19.4,7.4
					c6.2,3,12.3,6.3,18.1,10.1c-3-1.7-6.1-3.2-9.2-4.8c-3.1-1.5-6.2-2.9-9.4-4.2c-6.3-2.6-12.8-4.9-19.4-6.6
					c-13.2-3.5-26.9-5.4-40.5-5.1c-3.4,0-6.8,0.3-10.2,0.5c-3.4,0.4-6.8,0.7-10.2,1.3c-6.7,1.1-13.4,2.6-20,4.6
					c-6.5,2-13,4.4-19.2,7.2C-859.2,1143.2-865.2,1146.5-871.2,1149.9z"/>
			</g>
			<g>
				<path class="st5" d="M-871.2,1193.1c5.7-3.9,11.6-7.5,17.8-10.6c6.2-3.1,12.6-5.7,19.2-8c6.6-2.2,13.3-3.9,20.2-5.1
					c3.4-0.7,6.9-1,10.3-1.4c3.5-0.2,6.9-0.6,10.4-0.6c13.9-0.3,27.8,1.7,41.1,5.7c6.6,2,13.1,4.5,19.4,7.4
					c6.2,3,12.3,6.3,18.1,10.1c-3-1.7-6.1-3.2-9.2-4.8c-3.1-1.5-6.2-2.9-9.4-4.2c-6.3-2.6-12.8-4.9-19.4-6.6
					c-13.2-3.5-26.9-5.4-40.5-5.1c-3.4,0-6.8,0.3-10.2,0.5c-3.4,0.4-6.8,0.7-10.2,1.3c-6.7,1.1-13.4,2.6-20,4.6
					c-6.5,2-13,4.4-19.2,7.2C-859.2,1186.3-865.2,1189.6-871.2,1193.1z"/>
			</g>
			<g>
				<path class="st5" d="M-871.2,1233.5c5.7-3.9,11.6-7.5,17.8-10.6c6.2-3.1,12.6-5.7,19.2-8c6.6-2.2,13.3-3.9,20.2-5.1
					c3.4-0.7,6.9-1,10.3-1.4c3.5-0.2,6.9-0.6,10.4-0.6c13.9-0.3,27.8,1.7,41.1,5.7c6.6,2,13.1,4.5,19.4,7.4
					c6.2,3,12.3,6.3,18.1,10.1c-3-1.7-6.1-3.2-9.2-4.8c-3.1-1.5-6.2-2.9-9.4-4.2c-6.3-2.6-12.8-4.9-19.4-6.6
					c-13.2-3.5-26.9-5.4-40.5-5.1c-3.4,0-6.8,0.3-10.2,0.5c-3.4,0.4-6.8,0.7-10.2,1.3c-6.7,1.1-13.4,2.6-20,4.6
					c-6.5,2-13,4.4-19.2,7.2C-859.2,1226.8-865.2,1230.1-871.2,1233.5z"/>
			</g>
			<g>
				<path class="st5" d="M-1075.6,1180.9c7.8-4.8,16.4-8.5,25.3-11.1c8.9-2.6,18.1-4,27.4-4.2c4.6,0,9.3,0.1,13.9,0.7
					c4.6,0.6,9.2,1.4,13.6,2.6c9,2.3,17.6,5.8,25.6,10.3c-8.5-3.6-17.1-6.5-26-8.4c-8.9-1.9-18-2.8-27-2.7c-4.5,0-9.1,0.4-13.6,1
					c-4.5,0.6-9,1.5-13.4,2.5C-1058.7,1173.9-1067.3,1177-1075.6,1180.9z"/>
			</g>
			<g>
				<path class="st5" d="M-1075.6,1211.8c7.8-4.8,16.4-8.5,25.3-11.1c8.9-2.6,18.1-4,27.4-4.2c4.6,0,9.3,0.1,13.9,0.7
					c4.6,0.6,9.2,1.4,13.6,2.6c9,2.3,17.6,5.8,25.6,10.3c-8.5-3.6-17.1-6.5-26-8.4c-8.9-1.9-18-2.8-27-2.7c-4.5,0-9.1,0.4-13.6,1
					c-4.5,0.6-9,1.5-13.4,2.5C-1058.7,1204.8-1067.3,1208-1075.6,1211.8z"/>
			</g>
			<g>
				<path class="st5" d="M-820.6,1268.5c7.8-4.8,16.4-8.5,25.3-11.1c8.9-2.6,18.1-4,27.4-4.2c4.6,0,9.3,0.1,13.9,0.7
					c4.6,0.6,9.2,1.4,13.6,2.6c9,2.3,17.6,5.8,25.6,10.3c-8.5-3.6-17.1-6.5-26-8.4c-8.9-1.9-18-2.8-27-2.7c-4.5,0-9.1,0.4-13.6,1
					c-4.5,0.6-9,1.5-13.4,2.5C-803.7,1261.5-812.3,1264.6-820.6,1268.5z"/>
			</g>
			<g>
				<path class="st5" d="M-820.6,1303.4c7.8-4.8,16.4-8.5,25.3-11.1c8.9-2.6,18.1-4,27.4-4.2c4.6,0,9.3,0.1,13.9,0.7
					c4.6,0.6,9.2,1.4,13.6,2.6c9,2.3,17.6,5.8,25.6,10.3c-8.5-3.6-17.1-6.5-26-8.4c-8.9-1.9-18-2.8-27-2.7c-4.5,0-9.1,0.4-13.6,1
					c-4.5,0.6-9,1.5-13.4,2.5C-803.7,1296.4-812.3,1299.6-820.6,1303.4z"/>
			</g>
		</g>
	</g>
	<path class="st12" d="M-571.8,1011c0,59.2-37,107.2-82.7,107.2c-6.7,0-13.2-1-19.4-3l-49.5,36.1l17.8-56
		c-19.2-19.6-31.6-50.1-31.6-84.3c0-59.2,37-107.2,82.7-107.2S-571.8,951.8-571.8,1011z"/>
	<path class="st12" d="M-1226.9,1006c0,59.2,37,107.2,82.7,107.2c6.7,0,13.2-1,19.4-3l49.5,36.1l-17.8-56
		c19.2-19.6,31.6-50.1,31.6-84.3c0-59.2-37-107.2-82.7-107.2S-1226.9,946.7-1226.9,1006z"/>
</g>
<g>
	<g>
		<g>
			<path class="st11" d="M-59.8,1347.4c0-2.6,0-4.8,0-7c0-84.2,0-168.4-0.1-252.6c0-4.7,1.2-7.3,4.1-9.9
				c43.6-38.1,90.3-42.9,139.4-22c17.8,7.6,34.8,17.8,48.7,34.6c2.7,3.3,5.1,8.6,5.7,13.3c9.3,75.2,18.4,150.5,27.4,225.8
				c0.2,1.4,0.1,2.8,0.3,5c-5.2-2.1-9.9-4-14.6-5.9c-35.5-14.3-71.7-24-109.1-23.4c-28.2,0.4-55.6,6.4-80.8,24.2
				C-45.9,1334.5-52.4,1341-59.8,1347.4z"/>
			<path class="st11" d="M-290.1,1333.9c1.1-9.6,2.2-19.2,3.3-28.8c8.1-67.1,16.2-134.1,24.3-201.2c0.7-5.7,2.5-10.2,5.9-14
				c20.3-22.3,44.2-34.6,69.8-41.6c42.8-11.6,82.6-2.3,118.9,30c2.5,2.2,3.4,4.5,3.4,8.5c-0.1,84.4-0.1,168.8-0.1,253.2
				c0,2.4,0,4.7,0,6.9c-8.4-6.9-16-14.3-24.5-19.8c-28.8-18.8-59.8-23.3-91.6-21.6c-35.5,2-69.8,12.4-103.5,26.6
				c-1.5,0.6-3,1.2-4.5,1.8C-288.9,1334.1-289.2,1334-290.1,1333.9z"/>
			<path class="st11" d="M157.4,1354.7c-21.7-6.7-43.1-14.2-64.7-19.6c-37.4-9.4-75.1-12.6-112.6-1.8c-11.5,3.3-22.5,9.6-33.8,14.6
				c-0.7,0.3-1.4,0.7-2.1,0.7c12.6-12.9,26.8-21.4,42.1-27.2c29.6-11.1,59.7-11.6,90-6.9c24.5,3.8,48.4,11.1,72,20.7
				c6,2.4,9.1,5.9,8.9,14.1C157,1351.1,157.3,1353.2,157.4,1354.7z"/>
			<path class="st11" d="M-68.5,1348.4c-32.9-19.9-67.7-23.4-103.2-20.7c-36.4,2.8-71.7,13-106.4,26.9c-1.1,0.5-2.3,0.8-3.9,1.3
				c0.5-5.2,0.7-9.9,1.6-14.3c0.4-1.8,2.2-3.7,3.7-4.4c22.9-10.4,46.3-17.7,70.3-21.9c28.2-4.9,56.3-5.7,84.3,2.2
				C-102.5,1323-84.4,1332.5-68.5,1348.4z"/>
			<path class="st11" d="M-69.3,1350.8c-70.2-14.6-138.2-1.2-205.5,27.4c0.4-5.2,0.6-9.8,1.3-14.3c0.2-1.5,1.8-3.2,3.1-3.7
				c28.3-12.4,57.2-21.1,86.9-25.6c27.2-4.1,54.5-4.9,81.5,2.6c11.2,3.1,22.1,8.1,33.1,12.2C-69,1349.9-69.1,1350.3-69.3,1350.8z"/>
			<path class="st11" d="M150,1378.1c-65.9-28.1-133-41.4-202.4-27.9c0-0.4-0.1-0.9-0.1-1c1.3-0.8,2.5-1.6,3.8-2.3
				c23.6-11.8,48.3-15.5,73.4-15.2c41.5,0.6,81.5,11.5,120.8,28c2.7,1.1,3.8,2.9,4,6.4c0.1,3.4,0.5,6.9,0.8,10.3
				C150.4,1376.9,150.2,1377.2,150,1378.1z"/>
		</g>
		<g>
			<g>
				<path class="st5" d="M-245.6,1123.9c5.7-3.9,11.6-7.5,17.8-10.6c6.2-3.1,12.6-5.7,19.2-8c6.6-2.2,13.3-3.9,20.2-5.1
					c3.4-0.7,6.9-1,10.3-1.4c3.5-0.2,6.9-0.6,10.4-0.6c13.9-0.3,27.8,1.7,41.1,5.7c6.6,2,13.1,4.5,19.4,7.4
					c6.2,3,12.3,6.3,18.1,10.1c-3-1.7-6.1-3.2-9.2-4.8c-3.1-1.5-6.2-2.9-9.4-4.2c-6.3-2.6-12.8-4.9-19.4-6.6
					c-13.2-3.5-26.9-5.4-40.5-5.1c-3.4,0-6.8,0.3-10.2,0.5c-3.4,0.4-6.8,0.7-10.2,1.3c-6.7,1.1-13.4,2.6-20,4.6
					c-6.5,2-13,4.4-19.2,7.2C-233.6,1117.2-239.6,1120.5-245.6,1123.9z"/>
			</g>
			<g>
				<path class="st5" d="M-254.5,1235.5c5.7-3.9,11.6-7.5,17.8-10.6c6.2-3.1,12.6-5.7,19.2-8c6.6-2.2,13.3-3.9,20.2-5.1
					c3.4-0.7,6.9-1,10.3-1.4c3.5-0.2,6.9-0.6,10.4-0.6c13.9-0.3,27.8,1.7,41.1,5.7c6.6,2,13.1,4.5,19.4,7.4
					c6.2,3,12.3,6.3,18.1,10.1c-3-1.7-6.1-3.2-9.2-4.8c-3.1-1.5-6.2-2.9-9.4-4.2c-6.3-2.6-12.8-4.9-19.4-6.6
					c-13.2-3.5-26.9-5.4-40.5-5.1c-3.4,0-6.8,0.3-10.2,0.5c-3.4,0.4-6.8,0.7-10.2,1.3c-6.7,1.1-13.4,2.6-20,4.6
					c-6.5,2-13,4.4-19.2,7.2C-242.5,1228.7-248.5,1232-254.5,1235.5z"/>
			</g>
			<g>
				<path class="st5" d="M-254.5,1274.1c5.7-3.9,11.6-7.5,17.8-10.6c6.2-3.1,12.6-5.7,19.2-8c6.6-2.2,13.3-3.9,20.2-5.1
					c3.4-0.7,6.9-1,10.3-1.4c3.5-0.2,6.9-0.6,10.4-0.6c13.9-0.3,27.8,1.7,41.1,5.7c6.6,2,13.1,4.5,19.4,7.4
					c6.2,3,12.3,6.3,18.1,10.1c-3-1.7-6.1-3.2-9.2-4.8c-3.1-1.5-6.2-2.9-9.4-4.2c-6.3-2.6-12.8-4.9-19.4-6.6
					c-13.2-3.5-26.9-5.4-40.5-5.1c-3.4,0-6.8,0.3-10.2,0.5c-3.4,0.4-6.8,0.7-10.2,1.3c-6.7,1.1-13.4,2.6-20,4.6
					c-6.5,2-13,4.4-19.2,7.2C-242.5,1267.3-248.5,1270.6-254.5,1274.1z"/>
			</g>
			<g>
				<path class="st5" d="M-41.2,1123.9c5.7-3.9,11.6-7.5,17.8-10.6c6.2-3.1,12.6-5.7,19.2-8c6.6-2.2,13.3-3.9,20.2-5.1
					c3.4-0.7,6.9-1,10.3-1.4c3.5-0.2,6.9-0.6,10.4-0.6c13.9-0.3,27.8,1.7,41.1,5.7c6.6,2,13.1,4.5,19.4,7.4
					c6.2,3,12.3,6.3,18.1,10.1c-3-1.7-6.1-3.2-9.2-4.8c-3.1-1.5-6.2-2.9-9.4-4.2c-6.3-2.6-12.8-4.9-19.4-6.6
					c-13.2-3.5-26.9-5.4-40.5-5.1c-3.4,0-6.8,0.3-10.2,0.5c-3.4,0.4-6.8,0.7-10.2,1.3c-6.7,1.1-13.4,2.6-20,4.6
					c-6.5,2-13,4.4-19.2,7.2C-29.2,1117.2-35.3,1120.5-41.2,1123.9z"/>
			</g>
			<g>
				<path class="st5" d="M-41.2,1167.1c5.7-3.9,11.6-7.5,17.8-10.6c6.2-3.1,12.6-5.7,19.2-8c6.6-2.2,13.3-3.9,20.2-5.1
					c3.4-0.7,6.9-1,10.3-1.4c3.5-0.2,6.9-0.6,10.4-0.6c13.9-0.3,27.8,1.7,41.1,5.7c6.6,2,13.1,4.5,19.4,7.4
					c6.2,3,12.3,6.3,18.1,10.1c-3-1.7-6.1-3.2-9.2-4.8c-3.1-1.5-6.2-2.9-9.4-4.2c-6.3-2.6-12.8-4.9-19.4-6.6
					c-13.2-3.5-26.9-5.4-40.5-5.1c-3.4,0-6.8,0.3-10.2,0.5c-3.4,0.4-6.8,0.7-10.2,1.3c-6.7,1.1-13.4,2.6-20,4.6
					c-6.5,2-13,4.4-19.2,7.2C-29.2,1160.3-35.3,1163.6-41.2,1167.1z"/>
			</g>
			<g>
				<path class="st5" d="M-41.2,1207.5c5.7-3.9,11.6-7.5,17.8-10.6c6.2-3.1,12.6-5.7,19.2-8c6.6-2.2,13.3-3.9,20.2-5.1
					c3.4-0.7,6.9-1,10.3-1.4c3.5-0.2,6.9-0.6,10.4-0.6c13.9-0.3,27.8,1.7,41.1,5.7c6.6,2,13.1,4.5,19.4,7.4
					c6.2,3,12.3,6.3,18.1,10.1c-3-1.7-6.1-3.2-9.2-4.8c-3.1-1.5-6.2-2.9-9.4-4.2c-6.3-2.6-12.8-4.9-19.4-6.6
					c-13.2-3.5-26.9-5.4-40.5-5.1c-3.4,0-6.8,0.3-10.2,0.5c-3.4,0.4-6.8,0.7-10.2,1.3c-6.7,1.1-13.4,2.6-20,4.6
					c-6.5,2-13,4.4-19.2,7.2C-29.2,1200.8-35.3,1204.1-41.2,1207.5z"/>
			</g>
			<g>
				<path class="st5" d="M-245.6,1154.9c7.8-4.8,16.4-8.5,25.3-11.1c8.9-2.6,18.1-4,27.4-4.2c4.6,0,9.3,0.1,13.9,0.7
					c4.6,0.6,9.2,1.4,13.6,2.6c9,2.3,17.6,5.8,25.6,10.3c-8.5-3.6-17.1-6.5-26-8.4c-8.9-1.9-18-2.8-27-2.7c-4.5,0-9.1,0.4-13.6,1
					c-4.5,0.6-9,1.5-13.4,2.5C-228.7,1147.9-237.3,1151-245.6,1154.9z"/>
			</g>
			<g>
				<path class="st5" d="M-245.6,1185.8c7.8-4.8,16.4-8.5,25.3-11.1c8.9-2.6,18.1-4,27.4-4.2c4.6,0,9.3,0.1,13.9,0.7
					c4.6,0.6,9.2,1.4,13.6,2.6c9,2.3,17.6,5.8,25.6,10.3c-8.5-3.6-17.1-6.5-26-8.4c-8.9-1.9-18-2.8-27-2.7c-4.5,0-9.1,0.4-13.6,1
					c-4.5,0.6-9,1.5-13.4,2.5C-228.7,1178.8-237.3,1182-245.6,1185.8z"/>
			</g>
			<g>
				<path class="st5" d="M9.4,1242.5c7.8-4.8,16.4-8.5,25.3-11.1c8.9-2.6,18.1-4,27.4-4.2c4.6,0,9.3,0.1,13.9,0.7
					c4.6,0.6,9.2,1.4,13.6,2.6c9,2.3,17.6,5.8,25.6,10.3c-8.5-3.6-17.1-6.5-26-8.4c-8.9-1.9-18-2.8-27-2.7c-4.5,0-9.1,0.4-13.6,1
					c-4.5,0.6-9,1.5-13.4,2.5C26.3,1235.5,17.7,1238.6,9.4,1242.5z"/>
			</g>
			<g>
				<path class="st5" d="M9.4,1277.4c7.8-4.8,16.4-8.5,25.3-11.1c8.9-2.6,18.1-4,27.4-4.2c4.6,0,9.3,0.1,13.9,0.7
					c4.6,0.6,9.2,1.4,13.6,2.6c9,2.3,17.6,5.8,25.6,10.3c-8.5-3.6-17.1-6.5-26-8.4c-8.9-1.9-18-2.8-27-2.7c-4.5,0-9.1,0.4-13.6,1
					c-4.5,0.6-9,1.5-13.4,2.5C26.3,1270.4,17.7,1273.6,9.4,1277.4z"/>
			</g>
		</g>
	</g>
	<path class="st12" d="M258.2,985c0,59.2-37,107.2-82.7,107.2c-6.7,0-13.2-1-19.4-3l-49.5,36.1l17.8-56
		c-19.2-19.6-31.6-50.1-31.6-84.3c0-59.2,37-107.2,82.7-107.2S258.2,925.8,258.2,985z"/>
	<path class="st12" d="M-396.9,980c0,59.2,37,107.2,82.7,107.2c6.7,0,13.2-1,19.4-3l49.5,36.1l-17.8-56
		c19.2-19.6,31.6-50.1,31.6-84.3c0-59.2-37-107.2-82.7-107.2S-396.9,920.8-396.9,980z"/>
</g>
<g>
	<g>
		<g>
			<path class="st11" d="M-79.7,2191.4c0-2.6,0-4.8,0-7c0-84.2,0-168.4-0.1-252.6c0-4.7,1.2-7.3,4.1-9.9
				c43.6-38.1,90.3-42.9,139.4-22c17.8,7.6,34.8,17.8,48.7,34.6c2.7,3.3,5.1,8.6,5.7,13.3c9.3,75.2,18.4,150.5,27.4,225.8
				c0.2,1.4,0.1,2.8,0.3,5c-5.2-2.1-9.9-4-14.6-5.9c-35.5-14.3-71.7-24-109.1-23.4c-28.2,0.4-55.6,6.4-80.8,24.2
				C-65.8,2178.5-72.3,2185-79.7,2191.4z"/>
			<path class="st11" d="M-310,2177.9c1.1-9.6,2.2-19.2,3.3-28.8c8.1-67.1,16.2-134.1,24.3-201.2c0.7-5.7,2.5-10.2,5.9-14
				c20.3-22.3,44.2-34.6,69.8-41.6c42.8-11.6,82.6-2.3,118.9,30c2.5,2.2,3.4,4.5,3.4,8.5c-0.1,84.4-0.1,168.8-0.1,253.2
				c0,2.4,0,4.7,0,6.9c-8.4-6.9-16-14.3-24.5-19.8c-28.8-18.8-59.8-23.3-91.6-21.6c-35.5,2-69.8,12.4-103.5,26.6
				c-1.5,0.6-3,1.2-4.5,1.8C-308.8,2178.1-309.1,2178-310,2177.9z"/>
			<path class="st11" d="M137.5,2198.7c-21.7-6.7-43.1-14.2-64.7-19.6c-37.4-9.4-75.1-12.6-112.6-1.8c-11.5,3.3-22.5,9.6-33.8,14.6
				c-0.7,0.3-1.4,0.7-2.1,0.7c12.6-12.9,26.8-21.4,42.1-27.2c29.6-11.1,59.7-11.6,90-6.9c24.5,3.8,48.4,11.1,72,20.7
				c6,2.4,9.1,5.9,8.9,14.1C137.1,2195.1,137.4,2197.2,137.5,2198.7z"/>
			<path class="st11" d="M-88.4,2192.4c-32.9-19.9-67.7-23.4-103.2-20.7c-36.4,2.8-71.7,13-106.4,26.9c-1.1,0.5-2.3,0.8-3.9,1.3
				c0.5-5.2,0.7-9.9,1.6-14.3c0.4-1.8,2.2-3.7,3.7-4.4c22.9-10.4,46.3-17.7,70.3-21.9c28.2-4.9,56.3-5.7,84.3,2.2
				C-122.4,2167-104.3,2176.5-88.4,2192.4z"/>
			<path class="st11" d="M-89.2,2194.8c-70.2-14.6-138.2-1.2-205.5,27.4c0.4-5.2,0.6-9.8,1.3-14.3c0.2-1.5,1.8-3.2,3.1-3.7
				c28.3-12.4,57.2-21.1,86.9-25.6c27.2-4.1,54.5-4.9,81.5,2.6c11.2,3.1,22.1,8.1,33.1,12.2C-88.9,2193.9-89,2194.3-89.2,2194.8z"/>
			<path class="st11" d="M130.1,2222.1c-65.9-28.1-133-41.4-202.4-27.9c0-0.4-0.1-0.9-0.1-1c1.3-0.8,2.5-1.6,3.8-2.3
				c23.6-11.8,48.3-15.5,73.4-15.2c41.5,0.6,81.5,11.5,120.8,28c2.7,1.1,3.8,2.9,4,6.4c0.1,3.4,0.5,6.9,0.8,10.3
				C130.5,2220.9,130.3,2221.2,130.1,2222.1z"/>
		</g>
		<g>
			<g>
				<path class="st5" d="M-265.5,1967.9c5.7-3.9,11.6-7.5,17.8-10.6c6.2-3.1,12.6-5.7,19.2-8c6.6-2.2,13.3-3.9,20.2-5.1
					c3.4-0.7,6.9-1,10.3-1.4c3.5-0.2,6.9-0.6,10.4-0.6c13.9-0.3,27.8,1.7,41.1,5.7c6.6,2,13.1,4.5,19.4,7.4
					c6.2,3,12.3,6.3,18.1,10.1c-3-1.7-6.1-3.2-9.2-4.8c-3.1-1.5-6.2-2.9-9.4-4.2c-6.3-2.6-12.8-4.9-19.4-6.6
					c-13.2-3.5-26.9-5.4-40.5-5.1c-3.4,0-6.8,0.3-10.2,0.5c-3.4,0.4-6.8,0.7-10.2,1.3c-6.7,1.1-13.4,2.6-20,4.6
					c-6.5,2-13,4.4-19.2,7.2C-253.5,1961.2-259.5,1964.5-265.5,1967.9z"/>
			</g>
			<g>
				<path class="st5" d="M-274.4,2079.5c5.7-3.9,11.6-7.5,17.8-10.6c6.2-3.1,12.6-5.7,19.2-8c6.6-2.2,13.3-3.9,20.2-5.1
					c3.4-0.7,6.9-1,10.3-1.4c3.5-0.2,6.9-0.6,10.4-0.6c13.9-0.3,27.8,1.7,41.1,5.7c6.6,2,13.1,4.5,19.4,7.4
					c6.2,3,12.3,6.3,18.1,10.1c-3-1.7-6.1-3.2-9.2-4.8c-3.1-1.5-6.2-2.9-9.4-4.2c-6.3-2.6-12.8-4.9-19.4-6.6
					c-13.2-3.5-26.9-5.4-40.5-5.1c-3.4,0-6.8,0.3-10.2,0.5c-3.4,0.4-6.8,0.7-10.2,1.3c-6.7,1.1-13.4,2.6-20,4.6
					c-6.5,2-13,4.4-19.2,7.2C-262.4,2072.7-268.4,2076-274.4,2079.5z"/>
			</g>
			<g>
				<path class="st5" d="M-274.4,2118.1c5.7-3.9,11.6-7.5,17.8-10.6c6.2-3.1,12.6-5.7,19.2-8c6.6-2.2,13.3-3.9,20.2-5.1
					c3.4-0.7,6.9-1,10.3-1.4c3.5-0.2,6.9-0.6,10.4-0.6c13.9-0.3,27.8,1.7,41.1,5.7c6.6,2,13.1,4.5,19.4,7.4
					c6.2,3,12.3,6.3,18.1,10.1c-3-1.7-6.1-3.2-9.2-4.8c-3.1-1.5-6.2-2.9-9.4-4.2c-6.3-2.6-12.8-4.9-19.4-6.6
					c-13.2-3.5-26.9-5.4-40.5-5.1c-3.4,0-6.8,0.3-10.2,0.5c-3.4,0.4-6.8,0.7-10.2,1.3c-6.7,1.1-13.4,2.6-20,4.6
					c-6.5,2-13,4.4-19.2,7.2C-262.4,2111.3-268.4,2114.6-274.4,2118.1z"/>
			</g>
			<g>
				<path class="st5" d="M-61.1,1967.9c5.7-3.9,11.6-7.5,17.8-10.6c6.2-3.1,12.6-5.7,19.2-8c6.6-2.2,13.3-3.9,20.2-5.1
					c3.4-0.7,6.9-1,10.3-1.4c3.5-0.2,6.9-0.6,10.4-0.6c13.9-0.3,27.8,1.7,41.1,5.7c6.6,2,13.1,4.5,19.4,7.4
					c6.2,3,12.3,6.3,18.1,10.1c-3-1.7-6.1-3.2-9.2-4.8c-3.1-1.5-6.2-2.9-9.4-4.2c-6.3-2.6-12.8-4.9-19.4-6.6
					c-13.2-3.5-26.9-5.4-40.5-5.1c-3.4,0-6.8,0.3-10.2,0.5c-3.4,0.4-6.8,0.7-10.2,1.3c-6.7,1.1-13.4,2.6-20,4.6
					c-6.5,2-13,4.4-19.2,7.2C-49.1,1961.2-55.2,1964.5-61.1,1967.9z"/>
			</g>
			<g>
				<path class="st5" d="M-61.1,2011.1c5.7-3.9,11.6-7.5,17.8-10.6c6.2-3.1,12.6-5.7,19.2-8c6.6-2.2,13.3-3.9,20.2-5.1
					c3.4-0.7,6.9-1,10.3-1.4c3.5-0.2,6.9-0.6,10.4-0.6c13.9-0.3,27.8,1.7,41.1,5.7c6.6,2,13.1,4.5,19.4,7.4
					c6.2,3,12.3,6.3,18.1,10.1c-3-1.7-6.1-3.2-9.2-4.8c-3.1-1.5-6.2-2.9-9.4-4.2c-6.3-2.6-12.8-4.9-19.4-6.6
					c-13.2-3.5-26.9-5.4-40.5-5.1c-3.4,0-6.8,0.3-10.2,0.5c-3.4,0.4-6.8,0.7-10.2,1.3c-6.7,1.1-13.4,2.6-20,4.6
					c-6.5,2-13,4.4-19.2,7.2C-49.1,2004.3-55.2,2007.6-61.1,2011.1z"/>
			</g>
			<g>
				<path class="st5" d="M-61.1,2051.5c5.7-3.9,11.6-7.5,17.8-10.6c6.2-3.1,12.6-5.7,19.2-8c6.6-2.2,13.3-3.9,20.2-5.1
					c3.4-0.7,6.9-1,10.3-1.4c3.5-0.2,6.9-0.6,10.4-0.6c13.9-0.3,27.8,1.7,41.1,5.7c6.6,2,13.1,4.5,19.4,7.4
					c6.2,3,12.3,6.3,18.1,10.1c-3-1.7-6.1-3.2-9.2-4.8c-3.1-1.5-6.2-2.9-9.4-4.2c-6.3-2.6-12.8-4.9-19.4-6.6
					c-13.2-3.5-26.9-5.4-40.5-5.1c-3.4,0-6.8,0.3-10.2,0.5c-3.4,0.4-6.8,0.7-10.2,1.3c-6.7,1.1-13.4,2.6-20,4.6
					c-6.5,2-13,4.4-19.2,7.2C-49.1,2044.8-55.2,2048.1-61.1,2051.5z"/>
			</g>
			<g>
				<path class="st5" d="M-265.5,1998.9c7.8-4.8,16.4-8.5,25.3-11.1c8.9-2.6,18.1-4,27.4-4.2c4.6,0,9.3,0.1,13.9,0.7
					c4.6,0.6,9.2,1.4,13.6,2.6c9,2.3,17.6,5.8,25.6,10.3c-8.5-3.6-17.1-6.5-26-8.4c-8.9-1.9-18-2.8-27-2.7c-4.5,0-9.1,0.4-13.6,1
					c-4.5,0.6-9,1.5-13.4,2.5C-248.6,1991.9-257.2,1995-265.5,1998.9z"/>
			</g>
			<g>
				<path class="st5" d="M-265.5,2029.8c7.8-4.8,16.4-8.5,25.3-11.1c8.9-2.6,18.1-4,27.4-4.2c4.6,0,9.3,0.1,13.9,0.7
					c4.6,0.6,9.2,1.4,13.6,2.6c9,2.3,17.6,5.8,25.6,10.3c-8.5-3.6-17.1-6.5-26-8.4c-8.9-1.9-18-2.8-27-2.7c-4.5,0-9.1,0.4-13.6,1
					c-4.5,0.6-9,1.5-13.4,2.5C-248.6,2022.8-257.2,2026-265.5,2029.8z"/>
			</g>
			<g>
				<path class="st5" d="M-10.5,2086.5c7.8-4.8,16.4-8.5,25.3-11.1c8.9-2.6,18.1-4,27.4-4.2c4.6,0,9.3,0.1,13.9,0.7
					c4.6,0.6,9.2,1.4,13.6,2.6c9,2.3,17.6,5.8,25.6,10.3c-8.5-3.6-17.1-6.5-26-8.4c-8.9-1.9-18-2.8-27-2.7c-4.5,0-9.1,0.4-13.6,1
					c-4.5,0.6-9,1.5-13.4,2.5C6.4,2079.5-2.2,2082.6-10.5,2086.5z"/>
			</g>
			<g>
				<path class="st5" d="M-10.5,2121.4c7.8-4.8,16.4-8.5,25.3-11.1c8.9-2.6,18.1-4,27.4-4.2c4.6,0,9.3,0.1,13.9,0.7
					c4.6,0.6,9.2,1.4,13.6,2.6c9,2.3,17.6,5.8,25.6,10.3c-8.5-3.6-17.1-6.5-26-8.4c-8.9-1.9-18-2.8-27-2.7c-4.5,0-9.1,0.4-13.6,1
					c-4.5,0.6-9,1.5-13.4,2.5C6.4,2114.4-2.2,2117.6-10.5,2121.4z"/>
			</g>
		</g>
	</g>
	<path class="st12" d="M238.3,1829c0,59.2-37,107.2-82.7,107.2c-6.7,0-13.2-1-19.4-3l-49.5,36.1l17.8-56
		c-19.2-19.6-31.6-50.1-31.6-84.3c0-59.2,37-107.2,82.7-107.2S238.3,1769.8,238.3,1829z"/>
	<path class="st12" d="M-416.8,1824c0,59.2,37,107.2,82.7,107.2c6.7,0,13.2-1,19.4-3l49.5,36.1l-17.8-56
		c19.2-19.6,31.6-50.1,31.6-84.3c0-59.2-37-107.2-82.7-107.2S-416.8,1764.8-416.8,1824z"/>
</g>
<g>
	<g>
		<g>
			<path class="st11" d="M-861.7,2220.7c0-2.6,0-4.8,0-7c0-84.2,0-168.4-0.1-252.6c0-4.7,1.2-7.3,4.1-9.9
				c43.6-38.1,90.3-42.9,139.4-22c17.8,7.6,34.8,17.8,48.7,34.6c2.7,3.3,5.1,8.6,5.7,13.3c9.3,75.2,18.4,150.5,27.4,225.8
				c0.2,1.4,0.1,2.8,0.3,5c-5.2-2.1-9.9-4-14.6-5.9c-35.5-14.3-71.7-24-109.1-23.4c-28.2,0.4-55.6,6.4-80.8,24.2
				C-847.7,2207.9-854.2,2214.3-861.7,2220.7z"/>
			<path class="st11" d="M-1092,2207.3c1.1-9.6,2.2-19.2,3.3-28.8c8.1-67.1,16.2-134.1,24.3-201.2c0.7-5.7,2.5-10.2,5.9-14
				c20.3-22.3,44.2-34.6,69.8-41.6c42.8-11.6,82.6-2.3,118.9,30c2.5,2.2,3.4,4.5,3.4,8.5c-0.1,84.4-0.1,168.8-0.1,253.2
				c0,2.4,0,4.7,0,6.9c-8.4-6.9-16-14.3-24.5-19.8c-28.8-18.8-59.8-23.3-91.6-21.6c-35.5,2-69.8,12.4-103.5,26.6
				c-1.5,0.6-3,1.2-4.5,1.8C-1090.7,2207.5-1091.1,2207.4-1092,2207.3z"/>
			<path class="st11" d="M-644.5,2228c-21.7-6.7-43.1-14.2-64.7-19.6c-37.4-9.4-75.1-12.6-112.6-1.8c-11.5,3.3-22.5,9.6-33.8,14.6
				c-0.7,0.3-1.4,0.7-2.1,0.7c12.6-12.9,26.8-21.4,42.1-27.2c29.6-11.1,59.7-11.6,90-6.9c24.5,3.8,48.4,11.1,72,20.7
				c6,2.4,9.1,5.9,8.9,14.1C-644.8,2224.5-644.6,2226.5-644.5,2228z"/>
			<path class="st11" d="M-870.4,2221.7c-32.9-19.9-67.7-23.4-103.2-20.7c-36.4,2.8-71.7,13-106.4,26.9c-1.1,0.5-2.3,0.8-3.9,1.3
				c0.5-5.2,0.7-9.9,1.6-14.3c0.4-1.8,2.2-3.7,3.7-4.4c22.9-10.4,46.3-17.7,70.3-21.9c28.2-4.9,56.3-5.7,84.3,2.2
				C-904.4,2196.4-886.2,2205.9-870.4,2221.7z"/>
			<path class="st11" d="M-871.1,2224.2c-70.2-14.6-138.2-1.2-205.5,27.4c0.4-5.2,0.6-9.8,1.3-14.3c0.2-1.5,1.8-3.2,3.1-3.7
				c28.3-12.4,57.2-21.1,86.9-25.6c27.2-4.1,54.5-4.9,81.5,2.6c11.2,3.1,22.1,8.1,33.1,12.2C-870.9,2223.2-871,2223.7-871.1,2224.2z
				"/>
			<path class="st11" d="M-651.9,2251.4c-65.9-28.1-133-41.4-202.4-27.9c0-0.4-0.1-0.9-0.1-1c1.3-0.8,2.5-1.6,3.8-2.3
				c23.6-11.8,48.3-15.5,73.4-15.2c41.5,0.6,81.5,11.5,120.8,28c2.7,1.1,3.8,2.9,4,6.4c0.1,3.4,0.5,6.9,0.8,10.3
				C-651.5,2250.2-651.7,2250.6-651.9,2251.4z"/>
		</g>
		<g>
			<g>
				<path class="st5" d="M-1047.5,1997.3c5.7-3.9,11.6-7.5,17.8-10.6c6.2-3.1,12.6-5.7,19.2-8c6.6-2.2,13.3-3.9,20.2-5.1
					c3.4-0.7,6.9-1,10.3-1.4c3.5-0.2,6.9-0.6,10.4-0.6c13.9-0.3,27.8,1.7,41.1,5.7c6.6,2,13.1,4.5,19.4,7.4
					c6.2,3,12.3,6.3,18.1,10.1c-3-1.7-6.1-3.2-9.2-4.8c-3.1-1.5-6.2-2.9-9.4-4.2c-6.3-2.6-12.8-4.9-19.4-6.6
					c-13.2-3.5-26.9-5.4-40.5-5.1c-3.4,0-6.8,0.3-10.2,0.5c-3.4,0.4-6.8,0.7-10.2,1.3c-6.7,1.1-13.4,2.6-20,4.6
					c-6.5,2-13,4.4-19.2,7.2C-1035.4,1990.6-1041.5,1993.8-1047.5,1997.3z"/>
			</g>
			<g>
				<path class="st5" d="M-1056.4,2108.8c5.7-3.9,11.6-7.5,17.8-10.6c6.2-3.1,12.6-5.7,19.2-8c6.6-2.2,13.3-3.9,20.2-5.1
					c3.4-0.7,6.9-1,10.3-1.4c3.5-0.2,6.9-0.6,10.4-0.6c13.9-0.3,27.8,1.7,41.1,5.7c6.6,2,13.1,4.5,19.4,7.4
					c6.2,3,12.3,6.3,18.1,10.1c-3-1.7-6.1-3.2-9.2-4.8c-3.1-1.5-6.2-2.9-9.4-4.2c-6.3-2.6-12.8-4.9-19.4-6.6
					c-13.2-3.5-26.9-5.4-40.5-5.1c-3.4,0-6.8,0.3-10.2,0.5c-3.4,0.4-6.8,0.7-10.2,1.3c-6.7,1.1-13.4,2.6-20,4.6
					c-6.5,2-13,4.4-19.2,7.2C-1044.4,2102.1-1050.4,2105.4-1056.4,2108.8z"/>
			</g>
			<g>
				<path class="st5" d="M-1056.4,2147.5c5.7-3.9,11.6-7.5,17.8-10.6c6.2-3.1,12.6-5.7,19.2-8c6.6-2.2,13.3-3.9,20.2-5.1
					c3.4-0.7,6.9-1,10.3-1.4c3.5-0.2,6.9-0.6,10.4-0.6c13.9-0.3,27.8,1.7,41.1,5.7c6.6,2,13.1,4.5,19.4,7.4
					c6.2,3,12.3,6.3,18.1,10.1c-3-1.7-6.1-3.2-9.2-4.8c-3.1-1.5-6.2-2.9-9.4-4.2c-6.3-2.6-12.8-4.9-19.4-6.6
					c-13.2-3.5-26.9-5.4-40.5-5.1c-3.4,0-6.8,0.3-10.2,0.5c-3.4,0.4-6.8,0.7-10.2,1.3c-6.7,1.1-13.4,2.6-20,4.6
					c-6.5,2-13,4.4-19.2,7.2C-1044.4,2140.7-1050.4,2144-1056.4,2147.5z"/>
			</g>
			<g>
				<path class="st5" d="M-843.1,1997.3c5.7-3.9,11.6-7.5,17.8-10.6c6.2-3.1,12.6-5.7,19.2-8c6.6-2.2,13.3-3.9,20.2-5.1
					c3.4-0.7,6.9-1,10.3-1.4c3.5-0.2,6.9-0.6,10.4-0.6c13.9-0.3,27.8,1.7,41.1,5.7c6.6,2,13.1,4.5,19.4,7.4
					c6.2,3,12.3,6.3,18.1,10.1c-3-1.7-6.1-3.2-9.2-4.8c-3.1-1.5-6.2-2.9-9.4-4.2c-6.3-2.6-12.8-4.9-19.4-6.6
					c-13.2-3.5-26.9-5.4-40.5-5.1c-3.4,0-6.8,0.3-10.2,0.5c-3.4,0.4-6.8,0.7-10.2,1.3c-6.7,1.1-13.4,2.6-20,4.6
					c-6.5,2-13,4.4-19.2,7.2C-831.1,1990.6-837.1,1993.8-843.1,1997.3z"/>
			</g>
			<g>
				<path class="st5" d="M-843.1,2040.5c5.7-3.9,11.6-7.5,17.8-10.6c6.2-3.1,12.6-5.7,19.2-8c6.6-2.2,13.3-3.9,20.2-5.1
					c3.4-0.7,6.9-1,10.3-1.4c3.5-0.2,6.9-0.6,10.4-0.6c13.9-0.3,27.8,1.7,41.1,5.7c6.6,2,13.1,4.5,19.4,7.4
					c6.2,3,12.3,6.3,18.1,10.1c-3-1.7-6.1-3.2-9.2-4.8c-3.1-1.5-6.2-2.9-9.4-4.2c-6.3-2.6-12.8-4.9-19.4-6.6
					c-13.2-3.5-26.9-5.4-40.5-5.1c-3.4,0-6.8,0.3-10.2,0.5c-3.4,0.4-6.8,0.7-10.2,1.3c-6.7,1.1-13.4,2.6-20,4.6
					c-6.5,2-13,4.4-19.2,7.2C-831.1,2033.7-837.1,2037-843.1,2040.5z"/>
			</g>
			<g>
				<path class="st5" d="M-843.1,2080.9c5.7-3.9,11.6-7.5,17.8-10.6c6.2-3.1,12.6-5.7,19.2-8c6.6-2.2,13.3-3.9,20.2-5.1
					c3.4-0.7,6.9-1,10.3-1.4c3.5-0.2,6.9-0.6,10.4-0.6c13.9-0.3,27.8,1.7,41.1,5.7c6.6,2,13.1,4.5,19.4,7.4
					c6.2,3,12.3,6.3,18.1,10.1c-3-1.7-6.1-3.2-9.2-4.8c-3.1-1.5-6.2-2.9-9.4-4.2c-6.3-2.6-12.8-4.9-19.4-6.6
					c-13.2-3.5-26.9-5.4-40.5-5.1c-3.4,0-6.8,0.3-10.2,0.5c-3.4,0.4-6.8,0.7-10.2,1.3c-6.7,1.1-13.4,2.6-20,4.6
					c-6.5,2-13,4.4-19.2,7.2C-831.1,2074.2-837.1,2077.4-843.1,2080.9z"/>
			</g>
			<g>
				<path class="st5" d="M-1047.5,2028.3c7.8-4.8,16.4-8.5,25.3-11.1c8.9-2.6,18.1-4,27.4-4.2c4.6,0,9.3,0.1,13.9,0.7
					c4.6,0.6,9.2,1.4,13.6,2.6c9,2.3,17.6,5.8,25.6,10.3c-8.5-3.6-17.1-6.5-26-8.4c-8.9-1.9-18-2.8-27-2.7c-4.5,0-9.1,0.4-13.6,1
					c-4.5,0.6-9,1.5-13.4,2.5C-1030.6,2021.3-1039.2,2024.4-1047.5,2028.3z"/>
			</g>
			<g>
				<path class="st5" d="M-1047.5,2059.2c7.8-4.8,16.4-8.5,25.3-11.1c8.9-2.6,18.1-4,27.4-4.2c4.6,0,9.3,0.1,13.9,0.7
					c4.6,0.6,9.2,1.4,13.6,2.6c9,2.3,17.6,5.8,25.6,10.3c-8.5-3.6-17.1-6.5-26-8.4c-8.9-1.9-18-2.8-27-2.7c-4.5,0-9.1,0.4-13.6,1
					c-4.5,0.6-9,1.5-13.4,2.5C-1030.6,2052.2-1039.2,2055.4-1047.5,2059.2z"/>
			</g>
			<g>
				<path class="st5" d="M-792.5,2115.8c7.8-4.8,16.4-8.5,25.3-11.1c8.9-2.6,18.1-4,27.4-4.2c4.6,0,9.3,0.1,13.9,0.7
					c4.6,0.6,9.2,1.4,13.6,2.6c9,2.3,17.6,5.8,25.6,10.3c-8.5-3.6-17.1-6.5-26-8.4c-8.9-1.9-18-2.8-27-2.7c-4.5,0-9.1,0.4-13.6,1
					c-4.5,0.6-9,1.5-13.4,2.5C-775.6,2108.8-784.2,2112-792.5,2115.8z"/>
			</g>
			<g>
				<path class="st5" d="M-792.5,2150.8c7.8-4.8,16.4-8.5,25.3-11.1c8.9-2.6,18.1-4,27.4-4.2c4.6,0,9.3,0.1,13.9,0.7
					c4.6,0.6,9.2,1.4,13.6,2.6c9,2.3,17.6,5.8,25.6,10.3c-8.5-3.6-17.1-6.5-26-8.4c-8.9-1.9-18-2.8-27-2.7c-4.5,0-9.1,0.4-13.6,1
					c-4.5,0.6-9,1.5-13.4,2.5C-775.6,2143.8-784.2,2146.9-792.5,2150.8z"/>
			</g>
		</g>
	</g>
	<path class="st12" d="M-543.6,1858.4c0,59.2-37,107.2-82.7,107.2c-6.7,0-13.2-1-19.4-3l-49.5,36.1l17.8-56
		c-19.2-19.6-31.6-50.1-31.6-84.3c0-59.2,37-107.2,82.7-107.2C-580.7,1751.2-543.6,1799.2-543.6,1858.4z"/>
	<path class="st12" d="M-1198.8,1853.3c0,59.2,37,107.2,82.7,107.2c6.7,0,13.2-1,19.4-3l49.5,36.1l-17.8-56
		c19.2-19.6,31.6-50.1,31.6-84.3c0-59.2-37-107.2-82.7-107.2S-1198.8,1794.1-1198.8,1853.3z"/>
</g>
<use xlink:href="#Arrow_24"  width="21.4" height="35.9" x="-10.7" y="-17.9" transform="matrix(1.6681 0 0 -1.6681 -678.5621 -9.268)" style="overflow:visible;"/>
<use xlink:href="#Arrow_24"  width="21.4" height="35.9" x="-10.7" y="-17.9" transform="matrix(1.6681 0 0 -1.6681 -40.562 -17.0382)" style="overflow:visible;"/>
</svg>
