<?xml version="1.0" encoding="utf-8"?>
<!-- Generator: Adobe Illustrator 22.0.0, SVG Export Plug-In . SVG Version: 6.00 Build 0)  -->
<svg version="1.1" id="Layer_1" xmlns="http://www.w3.org/2000/svg" xmlns:xlink="http://www.w3.org/1999/xlink" x="0px" y="0px"
	 viewBox="0 0 593.4 380.6" style="enable-background:new 0 0 593.4 380.6;" xml:space="preserve">
<style type="text/css">
	.st0{fill:none;}
	.st1{fill:#231F20;}
	.st2{fill:#FFFFFF;}
	.st3{stroke:#FFFFFF;stroke-miterlimit:10;}
	.st4{fill:#FFFFFF;stroke:#9900CC;stroke-width:1.7225;stroke-miterlimit:10;}
	.st5{fill:#993366;}
	.st6{fill:#660066;stroke:#FFFFFF;stroke-width:8.6123;stroke-miterlimit:10;}
	.st7{fill:#FFFFFF;stroke:#9900CC;stroke-width:2.0652;stroke-miterlimit:10;}
	.st8{fill:#660066;stroke:#FFFFFF;stroke-width:10.3259;stroke-miterlimit:10;}
	.st9{fill:#9900CC;}
	.st10{fill:#FFFFFF;stroke:#9900CC;stroke-width:2.545;stroke-miterlimit:10;}
	.st11{fill:#660066;stroke:#FFFFFF;stroke-width:12.7252;stroke-miterlimit:10;}
</style>
<symbol  id="Arrow_24" viewBox="-10.7 -17.9 21.4 35.9">
	<rect x="-10.7" y="-17.9" class="st0" width="21.4" height="35.9"/>
	<g>
		<polygon class="st1" points="-10.7,-17.9 -0.3,0 -10.7,17.9 0.3,17.9 10.7,0 0.3,-17.9 		"/>
	</g>
</symbol>
<g>
	<g>
		<path d="M-1921.2,612.7c0-2,0-3.6,0-5.3c0-64,0-128.1-0.1-192.1c0-3.6,1.2-5.6,4-7.5c43-29,89-32.6,137.3-16.7
			c17.6,5.8,34.3,13.5,48,26.3c2.7,2.5,5,6.5,5.6,10.1c9.2,57.2,18.1,114.5,27,171.7c0.2,1,0.1,2.1,0.2,3.8
			c-5.1-1.6-9.7-3.1-14.4-4.5c-35-10.8-70.7-18.2-107.5-17.8c-27.8,0.3-54.8,4.9-79.6,18.4C-1907.5,602.9-1913.9,607.8-1921.2,612.7
			z"/>
		<path d="M-2148.2,602.5c1.1-7.3,2.1-14.6,3.3-21.9c8-51,16-102,23.9-153c0.7-4.3,2.4-7.8,5.8-10.6c20-16.9,43.6-26.3,68.8-31.6
			c42.1-8.8,81.4-1.8,117.2,22.8c2.4,1.7,3.3,3.4,3.3,6.4c-0.1,64.2-0.1,128.4-0.1,192.6c0,1.8,0,3.6,0,5.2
			c-8.3-5.2-15.8-10.9-24.1-15.1c-28.4-14.3-58.9-17.7-90.2-16.4c-35,1.5-68.8,9.4-102,20.3c-1.5,0.5-2.9,0.9-4.4,1.4
			C-2146.9,602.6-2147.2,602.5-2148.2,602.5z"/>
		<path d="M-1707.2,618.2c-21.4-5.1-42.4-10.8-63.8-14.9c-36.8-7.1-74-9.6-111-1.4c-11.4,2.5-22.2,7.3-33.3,11.1
			c-0.7,0.2-1.3,0.5-2.1,0.5c12.4-9.8,26.4-16.3,41.5-20.7c29.2-8.5,58.9-8.8,88.7-5.3c24.2,2.9,47.7,8.5,70.9,15.7
			c5.9,1.8,9,4.5,8.7,10.7C-1707.5,615.6-1707.2,617.1-1707.2,618.2z"/>
		<path d="M-1929.8,613.4c-32.5-15.2-66.7-17.8-101.6-15.8c-35.9,2.1-70.6,9.9-104.8,20.5c-1.1,0.3-2.3,0.6-3.9,1
			c0.5-3.9,0.7-7.5,1.6-10.9c0.4-1.4,2.2-2.8,3.7-3.3c22.5-7.9,45.7-13.4,69.3-16.6c27.7-3.8,55.5-4.3,83,1.7
			C-1963.3,594.2-1945.4,601.4-1929.8,613.4z"/>
		<path d="M-1930.5,615.3c-69.2-11.1-136.2-0.9-202.5,20.8c0.4-3.9,0.6-7.5,1.3-10.9c0.2-1.1,1.8-2.4,3-2.8
			c27.9-9.4,56.4-16.1,85.7-19.4c26.8-3.1,53.7-3.7,80.3,2c11,2.4,21.8,6.1,32.7,9.2C-1930.3,614.6-1930.4,615-1930.5,615.3z"/>
		<path d="M-1714.5,636c-64.9-21.4-131.1-31.5-199.4-21.2c0-0.3-0.1-0.7-0.1-0.7c1.2-0.6,2.5-1.2,3.8-1.7
			c23.3-9,47.6-11.8,72.3-11.5c40.9,0.5,80.3,8.7,119.1,21.3c2.7,0.9,3.8,2.2,3.9,4.9c0.1,2.6,0.5,5.2,0.8,7.8
			C-1714.1,635.1-1714.3,635.4-1714.5,636z"/>
	</g>
	<g>
		<path class="st2" d="M-2103.2,442.8c11.5-6.8,24-11.8,37-15.3c13-3.5,26.4-5.3,39.9-5.5c6.7-0.1,13.5,0.2,20.1,1
			c6.7,0.8,13.3,1.9,19.8,3.5c13,3.2,25.7,7.9,37.3,14.5c-12.4-4.7-25.1-8.5-38.1-10.9c-6.5-1.2-13-2.2-19.5-2.7
			c-6.5-0.6-13.1-0.9-19.6-0.7c-1.6,0-3.3,0-4.9,0.1l-4.9,0.2c-3.3,0.3-6.5,0.5-9.8,0.9c-6.5,0.7-13,1.8-19.4,3.2
			C-2078.3,433.7-2090.9,437.7-2103.2,442.8z"/>
	</g>
	<g>
		<path class="st2" d="M-2112,527.6c11.5-6.8,24-11.8,37-15.3c13-3.5,26.4-5.3,39.9-5.5c6.7-0.1,13.5,0.2,20.1,1
			c6.7,0.8,13.3,1.9,19.8,3.5c13,3.2,25.7,7.9,37.3,14.5c-12.4-4.7-25.1-8.5-38.1-10.9c-6.5-1.2-13-2.2-19.5-2.7
			c-6.5-0.6-13.1-0.9-19.6-0.7c-1.6,0-3.3,0-4.9,0.1l-4.9,0.2c-3.3,0.3-6.5,0.5-9.8,0.9c-6.5,0.7-13,1.8-19.4,3.2
			C-2087.1,518.5-2099.7,522.6-2112,527.6z"/>
	</g>
	<g>
		<path class="st2" d="M-2112,557c11.5-6.8,24-11.8,37-15.3c13-3.5,26.4-5.3,39.9-5.5c6.7-0.1,13.5,0.2,20.1,1
			c6.7,0.8,13.3,1.9,19.8,3.5c13,3.2,25.7,7.9,37.3,14.5c-12.4-4.7-25.1-8.5-38.1-10.9c-6.5-1.2-13-2.2-19.5-2.7
			c-6.5-0.6-13.1-0.9-19.6-0.7c-1.6,0-3.3,0-4.9,0.1l-4.9,0.2c-3.3,0.3-6.5,0.5-9.8,0.9c-6.5,0.7-13,1.8-19.4,3.2
			C-2087.1,547.9-2099.7,551.9-2112,557z"/>
	</g>
	<g>
		<path class="st2" d="M-1902.9,442.8c11.5-6.8,24-11.8,37-15.3c13-3.5,26.4-5.3,39.9-5.5c6.7-0.1,13.5,0.2,20.1,1
			c6.7,0.8,13.3,1.9,19.8,3.5c13,3.2,25.7,7.9,37.3,14.5c-12.4-4.7-25.1-8.5-38.1-10.9c-6.5-1.2-13-2.2-19.5-2.7
			c-6.5-0.6-13.1-0.9-19.6-0.7c-1.6,0-3.3,0-4.9,0.1l-4.9,0.2c-3.3,0.3-6.5,0.5-9.8,0.9c-6.5,0.7-13,1.8-19.4,3.2
			C-1877.9,433.7-1890.6,437.7-1902.9,442.8z"/>
	</g>
	<g>
		<path class="st2" d="M-1902.9,475.6c11.5-6.8,24-11.8,37-15.3c13-3.5,26.4-5.3,39.9-5.5c6.7-0.1,13.5,0.2,20.1,1
			c6.7,0.8,13.3,1.9,19.8,3.5c13,3.2,25.7,7.9,37.3,14.5c-12.4-4.7-25.1-8.5-38.1-10.9c-6.5-1.2-13-2.2-19.5-2.7
			c-6.5-0.6-13.1-0.9-19.6-0.7c-1.6,0-3.3,0-4.9,0.1l-4.9,0.2c-3.3,0.3-6.5,0.5-9.8,0.9c-6.5,0.7-13,1.8-19.4,3.2
			C-1877.9,466.6-1890.6,470.6-1902.9,475.6z"/>
	</g>
	<g>
		<path class="st2" d="M-1902.9,506.4c11.5-6.8,24-11.8,37-15.3c13-3.5,26.4-5.3,39.9-5.5c6.7-0.1,13.5,0.2,20.1,1
			c6.7,0.8,13.3,1.9,19.8,3.5c13,3.2,25.7,7.9,37.3,14.5c-12.4-4.7-25.1-8.5-38.1-10.9c-6.5-1.2-13-2.2-19.5-2.7
			c-6.5-0.6-13.1-0.9-19.6-0.7c-1.6,0-3.3,0-4.9,0.1l-4.9,0.2c-3.3,0.3-6.5,0.5-9.8,0.9c-6.5,0.7-13,1.8-19.4,3.2
			C-1877.9,497.3-1890.6,501.3-1902.9,506.4z"/>
	</g>
	<g>
		<path class="st2" d="M-2103.3,466.3c8-4,16.5-7,25.2-9c8.7-2,17.7-3.1,26.7-3.2c4.5,0,9,0.1,13.5,0.6c4.5,0.5,8.9,1.1,13.3,2
			c8.8,1.8,17.4,4.6,25.5,8.4c-8.5-2.6-17.2-4.6-25.9-6c-8.7-1.3-17.5-2-26.3-1.9c-4.4,0-8.8,0.3-13.2,0.7c-4.4,0.4-8.7,1-13.1,1.8
			C-2086.2,461.3-2094.8,463.5-2103.3,466.3z"/>
	</g>
	<g>
		<path class="st2" d="M-2103.3,489.9c8-4,16.5-7,25.2-9c8.7-2,17.7-3.1,26.7-3.2c4.5,0,9,0.1,13.5,0.6c4.5,0.5,8.9,1.1,13.3,2
			c8.8,1.8,17.4,4.6,25.5,8.4c-8.5-2.6-17.2-4.6-25.9-6c-8.7-1.3-17.5-2-26.3-1.9c-4.4,0-8.8,0.3-13.2,0.7c-4.4,0.4-8.7,1-13.1,1.8
			C-2086.2,484.8-2094.8,487.1-2103.3,489.9z"/>
	</g>
	<g>
		<path class="st2" d="M-1853,532.9c8-4,16.5-7,25.2-9c8.7-2,17.7-3.1,26.7-3.2c4.5,0,9,0.1,13.5,0.6c4.5,0.5,8.9,1.1,13.3,2
			c8.8,1.8,17.4,4.6,25.5,8.4c-8.5-2.6-17.2-4.6-25.9-6c-8.7-1.3-17.5-2-26.3-1.9c-4.4,0-8.8,0.3-13.2,0.7c-4.4,0.4-8.7,1-13.1,1.8
			C-1836,527.9-1844.5,530.1-1853,532.9z"/>
	</g>
	<g>
		<path class="st2" d="M-1853,559.5c8-4,16.5-7,25.2-9c8.7-2,17.7-3.1,26.7-3.2c4.5,0,9,0.1,13.5,0.6c4.5,0.5,8.9,1.1,13.3,2
			c8.8,1.8,17.4,4.6,25.5,8.4c-8.5-2.6-17.2-4.6-25.9-6c-8.7-1.3-17.5-2-26.3-1.9c-4.4,0-8.8,0.3-13.2,0.7c-4.4,0.4-8.7,1-13.1,1.8
			C-1836,554.5-1844.5,556.7-1853,559.5z"/>
	</g>
</g>
<g>
	<g>
		<g>
			<path d="M-1316,601.2c0-1.8,0-3.3,0-4.8c0-57.4,0-114.8-0.1-172.2c0-3.2,1-5,3.6-6.7c38.5-26,79.8-29.2,123.1-15
				c15.8,5.2,30.7,12.1,43,23.6c2.4,2.2,4.5,5.8,5,9.1c8.2,51.3,16.2,102.6,24.2,153.9c0.1,0.9,0.1,1.9,0.2,3.4
				c-4.6-1.4-8.7-2.8-12.9-4c-31.4-9.7-63.3-16.3-96.4-16c-24.9,0.3-49.2,4.4-71.3,16.5C-1303.7,592.4-1309.4,596.8-1316,601.2z"/>
			<path d="M-1519.4,592c1-6.6,1.9-13.1,2.9-19.6c7.1-45.7,14.3-91.4,21.4-137.1c0.6-3.9,2.2-6.9,5.2-9.5
				c17.9-15.2,39-23.6,61.7-28.3c37.8-7.9,73-1.6,105,20.5c2.2,1.5,3,3.1,3,5.8c-0.1,57.5-0.1,115.1-0.1,172.6c0,1.6,0,3.2,0,4.7
				c-7.4-4.7-14.2-9.8-21.6-13.5c-25.4-12.8-52.8-15.9-80.9-14.7c-31.4,1.4-61.7,8.4-91.4,18.2c-1.3,0.4-2.6,0.8-4,1.2
				C-1518.3,592.2-1518.6,592.1-1519.4,592z"/>
			<path d="M-1124.1,606.2c-19.2-4.5-38-9.7-57.2-13.4c-33-6.4-66.3-8.6-99.5-1.2c-10.2,2.3-19.9,6.6-29.8,9.9
				c-0.6,0.2-1.2,0.5-1.9,0.5c11.1-8.8,23.7-14.6,37.2-18.5c26.1-7.6,52.8-7.9,79.5-4.7c21.7,2.6,42.8,7.6,63.6,14.1
				c5.3,1.7,8.1,4,7.8,9.6C-1124.5,603.8-1124.2,605.1-1124.1,606.2z"/>
			<path d="M-1323.7,601.9c-29.1-13.6-59.8-16-91.1-14.1c-32.1,1.9-63.3,8.9-94,18.4c-1,0.3-2,0.5-3.5,0.9c0.5-3.5,0.6-6.7,1.4-9.8
				c0.3-1.2,2-2.5,3.3-3c20.2-7.1,40.9-12,62.1-14.9c24.9-3.4,49.7-3.9,74.4,1.5C-1353.7,584.6-1337.7,591.1-1323.7,601.9z"/>
			<path d="M-1324.3,603.5c-62-10-122.1-0.8-181.6,18.7c0.4-3.5,0.5-6.7,1.1-9.8c0.2-1,1.6-2.2,2.7-2.5c25-8.4,50.6-14.4,76.8-17.4
				c24.1-2.8,48.1-3.3,72,1.8c9.9,2.1,19.5,5.5,29.3,8.3C-1324.1,602.9-1324.2,603.2-1324.3,603.5z"/>
			<path d="M-1130.7,622.1c-58.2-19.2-117.5-28.2-178.7-19c0-0.3-0.1-0.6-0.1-0.7c1.1-0.5,2.2-1.1,3.4-1.5
				c20.9-8.1,42.6-10.6,64.8-10.3c36.6,0.4,72,7.8,106.7,19.1c2.4,0.8,3.4,2,3.5,4.4c0.1,2.3,0.5,4.7,0.7,7
				C-1130.3,621.3-1130.5,621.6-1130.7,622.1z"/>
		</g>
		<g>
			<path class="st2" d="M-1479.1,448.9c10.3-6.1,21.5-10.6,33.1-13.7c11.6-3.1,23.7-4.8,35.7-4.9c6,0,12.1,0.2,18.1,0.9
				c6,0.7,11.9,1.7,17.8,3.2c11.7,2.8,23,7.1,33.4,13c-11.1-4.3-22.5-7.6-34.1-9.8c-5.8-1.1-11.6-1.9-17.5-2.4
				c-5.9-0.6-11.7-0.8-17.6-0.7c-2.9,0-5.9,0.1-8.8,0.3c-2.9,0.2-5.9,0.4-8.8,0.8c-5.8,0.6-11.7,1.6-17.4,2.8
				C-1456.8,440.8-1468.1,444.4-1479.1,448.9z"/>
		</g>
		<g>
			<path class="st2" d="M-1487,524.9c10.3-6.1,21.5-10.6,33.1-13.7c11.6-3.1,23.7-4.8,35.7-4.9c6,0,12.1,0.2,18.1,0.9
				c6,0.7,11.9,1.7,17.8,3.2c11.7,2.8,23,7.1,33.4,13c-11.2-4.3-22.5-7.6-34.1-9.8c-5.8-1.1-11.6-1.9-17.5-2.4
				c-5.9-0.6-11.7-0.8-17.6-0.7c-2.9,0-5.9,0.1-8.8,0.3c-2.9,0.2-5.9,0.4-8.8,0.8c-5.8,0.6-11.7,1.6-17.4,2.8
				C-1464.7,516.8-1476,520.4-1487,524.9z"/>
		</g>
		<g>
			<path class="st2" d="M-1487,551.3c10.3-6.1,21.5-10.6,33.1-13.7c11.6-3.1,23.7-4.8,35.7-4.9c6,0,12.1,0.2,18.1,0.9
				c6,0.7,11.9,1.7,17.8,3.2c11.7,2.8,23,7.1,33.4,13c-11.2-4.3-22.5-7.6-34.1-9.8c-5.8-1.1-11.6-1.9-17.5-2.4
				c-5.9-0.6-11.7-0.8-17.6-0.7c-2.9,0-5.9,0.1-8.8,0.3c-2.9,0.2-5.9,0.4-8.8,0.8c-5.8,0.6-11.7,1.6-17.4,2.8
				C-1464.7,543.1-1476,546.7-1487,551.3z"/>
		</g>
		<g>
			<path class="st2" d="M-1299.6,448.9c10.3-6.1,21.5-10.6,33.1-13.7c11.6-3.1,23.7-4.8,35.7-4.9c6,0,12.1,0.2,18.1,0.9
				c6,0.7,11.9,1.7,17.8,3.2c11.7,2.8,23,7.1,33.4,13c-11.2-4.3-22.5-7.6-34.1-9.8c-5.8-1.1-11.6-1.9-17.5-2.4
				c-5.9-0.6-11.7-0.8-17.6-0.7c-2.9,0-5.9,0.1-8.8,0.3c-2.9,0.2-5.9,0.4-8.8,0.8c-5.8,0.6-11.7,1.6-17.4,2.8
				C-1277.2,440.8-1288.5,444.4-1299.6,448.9z"/>
		</g>
		<g>
			<path class="st2" d="M-1299.6,478.3c10.3-6.1,21.5-10.6,33.1-13.7c11.6-3.1,23.7-4.8,35.7-4.9c6,0,12.1,0.2,18.1,0.9
				c6,0.7,11.9,1.7,17.8,3.2c11.7,2.8,23,7.1,33.4,13c-11.2-4.3-22.5-7.6-34.1-9.8c-5.8-1.1-11.6-1.9-17.5-2.4
				c-5.9-0.6-11.7-0.8-17.6-0.7c-2.9,0-5.9,0.1-8.8,0.3c-2.9,0.2-5.9,0.4-8.8,0.8c-5.8,0.6-11.7,1.6-17.4,2.8
				C-1277.2,470.2-1288.5,473.8-1299.6,478.3z"/>
		</g>
		<g>
			<path class="st2" d="M-1299.6,505.9c10.3-6.1,21.5-10.6,33.1-13.7c11.6-3.1,23.7-4.8,35.7-4.9c6,0,12.1,0.2,18.1,0.9
				c6,0.7,11.9,1.7,17.8,3.2c11.7,2.8,23,7.1,33.4,13c-11.2-4.3-22.5-7.6-34.1-9.8c-5.8-1.1-11.6-1.9-17.5-2.4
				c-5.9-0.6-11.7-0.8-17.6-0.7c-2.9,0-5.9,0.1-8.8,0.3c-2.9,0.2-5.9,0.4-8.8,0.8c-5.8,0.6-11.7,1.6-17.4,2.8
				C-1277.2,497.8-1288.5,501.3-1299.6,505.9z"/>
		</g>
		<g>
			<path class="st2" d="M-1479.2,470c7.2-3.6,14.8-6.2,22.6-8c7.8-1.8,15.9-2.8,24-2.9c4,0,8.1,0.1,12.1,0.5c4,0.4,8,1,11.9,1.8
				c7.9,1.6,15.6,4.1,22.8,7.5c-7.7-2.3-15.4-4.2-23.2-5.3c-7.8-1.2-15.7-1.8-23.6-1.7c-3.9,0-7.9,0.3-11.8,0.6
				c-3.9,0.3-7.8,0.9-11.7,1.6C-1463.9,465.5-1471.6,467.5-1479.2,470z"/>
		</g>
		<g>
			<path class="st2" d="M-1479.2,491.1c7.2-3.6,14.8-6.2,22.6-8c7.8-1.8,15.9-2.8,24-2.9c4,0,8.1,0.1,12.1,0.5c4,0.4,8,1,11.9,1.8
				c7.9,1.6,15.6,4.1,22.8,7.5c-7.7-2.3-15.4-4.2-23.2-5.3c-7.8-1.2-15.7-1.8-23.6-1.7c-3.9,0-7.9,0.3-11.8,0.6
				c-3.9,0.3-7.8,0.9-11.7,1.6C-1463.9,486.6-1471.6,488.6-1479.2,491.1z"/>
		</g>
		<g>
			<path class="st2" d="M-1254.9,529.7c7.2-3.6,14.8-6.2,22.6-8c7.8-1.8,15.9-2.8,24-2.9c4,0,8.1,0.1,12.1,0.5c4,0.4,8,1,11.9,1.8
				c7.9,1.6,15.6,4.1,22.8,7.5c-7.7-2.3-15.4-4.2-23.2-5.3c-7.8-1.2-15.7-1.8-23.6-1.7c-3.9,0-7.9,0.3-11.8,0.6
				c-3.9,0.3-7.8,0.9-11.7,1.6C-1239.6,525.2-1247.3,527.2-1254.9,529.7z"/>
		</g>
		<g>
			<path class="st2" d="M-1254.9,553.5c7.2-3.6,14.8-6.2,22.6-8c7.8-1.8,15.9-2.8,24-2.9c4,0,8.1,0.1,12.1,0.5c4,0.4,8,1,11.9,1.8
				c7.9,1.6,15.6,4.1,22.8,7.5c-7.7-2.3-15.4-4.2-23.2-5.3c-7.8-1.2-15.7-1.8-23.6-1.7c-3.9,0-7.9,0.3-11.8,0.6
				c-3.9,0.3-7.8,0.9-11.7,1.6C-1239.6,549-1247.3,551-1254.9,553.5z"/>
		</g>
	</g>
	<path class="st3" d="M-1010.3,317.5c0,40.9-33.1,74-74,74c-6,0-11.8-0.7-17.4-2.1l-44.3,24.9l15.9-38.6
		c-17.2-13.6-28.3-34.6-28.3-58.2c0-40.9,33.1-74,74-74S-1010.3,276.7-1010.3,317.5z"/>
</g>
<g>
	<g>
		<path class="st4" d="M-625.4,592.9c0-1.5,0-2.9,0-4.2c0-50.1,0-100.1-0.1-150.2c0-2.8,0.9-4.4,3.1-5.9
			c33.6-22.6,69.6-25.5,107.4-13.1c13.7,4.5,26.8,10.6,37.5,20.6c2.1,2,3.9,5.1,4.4,7.9c7.2,44.7,14.1,89.5,21.1,134.3
			c0.1,0.8,0.1,1.6,0.2,3c-4-1.2-7.6-2.4-11.2-3.5c-27.4-8.5-55.2-14.2-84.1-13.9c-21.7,0.2-42.9,3.8-62.2,14.4
			C-614.7,585.3-619.7,589.1-625.4,592.9z"/>
		<path class="st4" d="M-802.8,584.9c0.9-5.7,1.7-11.4,2.6-17.1c6.2-39.9,12.5-79.7,18.7-119.6c0.5-3.4,1.9-6.1,4.6-8.3
			c15.6-13.3,34.1-20.6,53.8-24.7c32.9-6.9,63.6-1.4,91.6,17.8c1.9,1.3,2.6,2.7,2.6,5c-0.1,50.2-0.1,100.4-0.1,150.6
			c0,1.4,0,2.8,0,4.1c-6.5-4.1-12.4-8.5-18.8-11.8c-22.2-11.2-46.1-13.9-70.5-12.8c-27.4,1.2-53.8,7.4-79.7,15.8
			c-1.1,0.4-2.3,0.7-3.5,1.1C-801.9,585.1-802.1,585-802.8,584.9z"/>
		<path class="st4" d="M-458,597.3c-16.7-4-33.2-8.4-49.9-11.7c-28.8-5.6-57.8-7.5-86.8-1.1c-8.9,2-17.4,5.7-26,8.7
			c-0.5,0.2-1,0.4-1.7,0.4c9.7-7.6,20.7-12.7,32.4-16.2c22.8-6.6,46-6.9,69.4-4.1c18.9,2.2,37.3,6.6,55.5,12.3
			c4.6,1.4,7,3.5,6.8,8.4C-458.3,595.2-458.1,596.4-458,597.3z"/>
		<path class="st4" d="M-632.1,593.5c-25.4-11.9-52.1-13.9-79.5-12.3c-28,1.6-55.2,7.8-82,16c-0.9,0.3-1.8,0.5-3,0.8
			c0.4-3.1,0.5-5.9,1.2-8.5c0.3-1.1,1.7-2.2,2.9-2.6c17.6-6.2,35.7-10.5,54.2-13c21.7-2.9,43.4-3.4,64.9,1.3
			C-658.3,578.4-644.3,584.1-632.1,593.5z"/>
		<path class="st4" d="M-632.7,595c-54.1-8.7-106.5-0.7-158.4,16.3c0.3-3.1,0.4-5.8,1-8.5c0.2-0.9,1.4-1.9,2.4-2.2
			c21.8-7.4,44.1-12.6,67-15.2c21-2.4,42-2.9,62.8,1.5c8.6,1.8,17,4.8,25.5,7.2C-632.5,594.4-632.6,594.7-632.7,595z"/>
		<path class="st4" d="M-463.8,611.2c-50.8-16.7-102.5-24.6-155.9-16.6c0-0.2-0.1-0.5-0.1-0.6c1-0.5,1.9-1,3-1.3
			c18.2-7,37.2-9.2,56.6-9c32,0.4,62.8,6.8,93.1,16.6c2.1,0.7,2.9,1.7,3.1,3.8c0.1,2,0.4,4.1,0.6,6.1
			C-463.5,610.4-463.6,610.7-463.8,611.2z"/>
	</g>
	<g>
		<g>
			<path class="st5" d="M-768.5,460.1c4.6-2.5,9.3-4.6,14.2-6.5c4.9-1.9,9.8-3.4,14.9-4.7c5-1.3,10.2-2.3,15.4-3
				c5.2-0.7,10.4-1.1,15.6-1.1c10.4-0.2,20.9,1,31.1,3.3c5.1,1.2,10.1,2.6,15,4.4c4.9,1.8,9.7,3.8,14.3,6.2c-2.4-1-4.8-2-7.2-2.9
				c-2.4-0.9-4.9-1.7-7.4-2.5c-4.9-1.6-9.9-2.9-15-3.9c-10.1-2-20.5-3.1-30.8-2.9c-5.2,0-10.3,0.4-15.4,1
				c-5.1,0.6-10.2,1.5-15.3,2.6c-5,1.1-10,2.6-14.9,4.3C-759,456-763.8,457.9-768.5,460.1z"/>
		</g>
		<g>
			<path class="st5" d="M-775.4,526.4c4.6-2.5,9.3-4.6,14.2-6.5c4.9-1.9,9.8-3.4,14.9-4.7c5-1.3,10.2-2.3,15.4-3
				c5.2-0.7,10.4-1.1,15.6-1.1c10.4-0.2,20.9,1,31.1,3.3c5.1,1.2,10.1,2.6,15,4.4c4.9,1.8,9.7,3.8,14.3,6.2c-2.4-1-4.8-2-7.2-2.9
				c-2.4-0.9-4.9-1.7-7.4-2.5c-4.9-1.6-9.9-2.9-15-3.9c-10.1-2-20.5-3.1-30.8-2.9c-5.2,0-10.3,0.4-15.4,1
				c-5.1,0.6-10.2,1.5-15.3,2.6c-5,1.1-10,2.6-14.9,4.3C-765.9,522.3-770.6,524.3-775.4,526.4z"/>
		</g>
		<g>
			<path class="st5" d="M-775.4,549.4c4.6-2.5,9.3-4.6,14.2-6.5c4.9-1.9,9.8-3.4,14.9-4.7c5-1.3,10.2-2.3,15.4-3
				c5.2-0.7,10.4-1.1,15.6-1.1c10.4-0.2,20.9,1,31.1,3.3c5.1,1.2,10.1,2.6,15,4.4c4.9,1.8,9.7,3.8,14.3,6.2c-2.4-1-4.8-2-7.2-2.9
				c-2.4-0.9-4.9-1.7-7.4-2.5c-4.9-1.6-9.9-2.9-15-3.9c-10.1-2-20.5-3.1-30.8-2.9c-5.2,0-10.3,0.4-15.4,1
				c-5.1,0.6-10.2,1.5-15.3,2.6c-5,1.1-10,2.6-14.9,4.3C-765.9,545.2-770.6,547.2-775.4,549.4z"/>
		</g>
		<g>
			<path class="st5" d="M-611.1,460.1c4.6-2.5,9.3-4.6,14.2-6.5c4.9-1.9,9.8-3.4,14.9-4.7c5-1.3,10.2-2.3,15.4-3
				c5.2-0.7,10.4-1.1,15.6-1.1c10.4-0.2,20.9,1,31.1,3.3c5.1,1.2,10.1,2.6,15,4.4c4.9,1.8,9.7,3.8,14.3,6.2c-2.4-1-4.8-2-7.2-2.9
				c-2.4-0.9-4.9-1.7-7.4-2.5c-4.9-1.6-9.9-2.9-15-3.9c-10.1-2-20.5-3.1-30.8-2.9c-5.2,0-10.3,0.4-15.4,1
				c-5.1,0.6-10.2,1.5-15.3,2.6c-5,1.1-10,2.6-14.9,4.3C-601.5,456-606.3,457.9-611.1,460.1z"/>
		</g>
		<g>
			<path class="st5" d="M-611.1,485.7c4.6-2.5,9.3-4.6,14.2-6.5c4.9-1.9,9.8-3.4,14.9-4.7c5-1.3,10.2-2.3,15.4-3
				c5.2-0.7,10.4-1.1,15.6-1.1c10.4-0.2,20.9,1,31.1,3.3c5.1,1.2,10.1,2.6,15,4.4c4.9,1.8,9.7,3.8,14.3,6.2c-2.4-1-4.8-2-7.2-2.9
				c-2.4-0.9-4.9-1.7-7.4-2.5c-4.9-1.6-9.9-2.9-15-3.9c-10.1-2-20.5-3.1-30.8-2.9c-5.2,0-10.3,0.4-15.4,1
				c-5.1,0.6-10.2,1.5-15.3,2.6c-5,1.1-10,2.6-14.9,4.3C-601.5,481.6-606.3,483.6-611.1,485.7z"/>
		</g>
		<g>
			<path class="st5" d="M-611.1,509.8c4.6-2.5,9.3-4.6,14.2-6.5c4.9-1.9,9.8-3.4,14.9-4.7c5-1.3,10.2-2.3,15.4-3
				c5.2-0.7,10.4-1.1,15.6-1.1c10.4-0.2,20.9,1,31.1,3.3c5.1,1.2,10.1,2.6,15,4.4c4.9,1.8,9.7,3.8,14.3,6.2c-2.4-1-4.8-2-7.2-2.9
				c-2.4-0.9-4.9-1.7-7.4-2.5c-4.9-1.6-9.9-2.9-15-3.9c-10.1-2-20.5-3.1-30.8-2.9c-5.2,0-10.3,0.4-15.4,1
				c-5.1,0.6-10.2,1.5-15.3,2.6c-5,1.1-10,2.6-14.9,4.3C-601.5,505.7-606.3,507.6-611.1,509.8z"/>
		</g>
		<g>
			<path class="st5" d="M-768.6,478.5c12.6-5.9,26.6-9,40.6-9.2c3.5,0,7,0.1,10.5,0.4c3.5,0.3,7,0.8,10.4,1.5
				c6.9,1.3,13.6,3.5,20,6.3c-13.2-4.3-27-6.7-40.8-6.5c-6.9,0.1-13.8,0.8-20.6,2C-755.3,474.3-762,476.1-768.6,478.5z"/>
		</g>
		<g>
			<path class="st5" d="M-768.6,496.9c12.6-5.9,26.6-9,40.6-9.2c3.5,0,7,0.1,10.5,0.4c3.5,0.3,7,0.8,10.4,1.5
				c6.9,1.3,13.6,3.5,20,6.3c-13.2-4.3-27-6.7-40.8-6.5c-6.9,0.1-13.8,0.8-20.6,2C-755.3,492.7-762,494.5-768.6,496.9z"/>
		</g>
		<g>
			<path class="st5" d="M-572.1,530.5c12.6-5.9,26.6-9,40.6-9.2c3.5,0,7,0.1,10.5,0.4c3.5,0.3,7,0.8,10.4,1.5
				c6.9,1.3,13.6,3.5,20,6.3c-13.2-4.3-27-6.7-40.8-6.5c-6.9,0.1-13.8,0.8-20.6,2C-558.8,526.4-565.5,528.2-572.1,530.5z"/>
		</g>
		<g>
			<path class="st5" d="M-572.1,551.3c12.6-5.9,26.6-9,40.6-9.2c3.5,0,7,0.1,10.5,0.4c3.5,0.3,7,0.8,10.4,1.5
				c6.9,1.3,13.6,3.5,20,6.3c-13.2-4.3-27-6.7-40.8-6.5c-6.9,0.1-13.8,0.8-20.6,2C-558.8,547.2-565.5,549-572.1,551.3z"/>
		</g>
	</g>
	<path class="st6" d="M-380.4,377.5c0,35.2-28.5,63.7-63.7,63.7c-5.2,0-10.2-0.6-15-1.8l-38.1,21.4l13.7-33.3
		c-14.8-11.7-24.3-29.8-24.3-50.1c0-35.2,28.5-63.7,63.7-63.7S-380.4,342.3-380.4,377.5z"/>
	<path class="st6" d="M-885.1,374.5c0,35.2,28.5,63.7,63.7,63.7c5.2,0,10.2-0.6,15-1.8l38.1,21.4l-13.7-33.3
		c14.8-11.7,24.3-29.8,24.3-50.1c0-35.2-28.5-63.7-63.7-63.7C-856.6,310.8-885.1,339.3-885.1,374.5z"/>
</g>
<g>
	<g>
		<g>
			<path class="st7" d="M305.2,356.3c0-1.9,0-3.5,0-5.2c0-62.3,0-124.6-0.1-186.9c0-3.5,1.1-5.4,3.6-7.3
				c38.8-28.2,80.4-31.7,124.1-16.3c15.9,5.6,31,13.2,43.4,25.6c2.4,2.4,4.5,6.3,5,9.9c8.3,55.7,16.3,111.4,24.4,167.1
				c0.1,1,0.1,2,0.2,3.7c-4.6-1.6-8.8-3-13-4.4c-31.6-10.5-63.8-17.7-97.1-17.3c-25.1,0.3-49.5,4.7-71.9,17.9
				C317.6,346.7,311.8,351.5,305.2,356.3z"/>
			<path class="st7" d="M100.2,346.3c1-7.1,1.9-14.2,3-21.3c7.2-49.6,14.4-99.2,21.6-148.8c0.6-4.2,2.2-7.5,5.3-10.3
				c18.1-16.5,39.3-25.6,62.1-30.8c38.1-8.6,73.5-1.7,105.8,22.2c2.2,1.6,3,3.3,3,6.3c-0.1,62.4-0.1,124.9-0.1,187.3
				c0,1.8,0,3.5,0,5.1c-7.5-5.1-14.3-10.6-21.8-14.7c-25.6-13.9-53.2-17.3-81.5-16c-31.6,1.5-62.1,9.2-92.1,19.7
				c-1.3,0.5-2.7,0.9-4,1.3C101.3,346.5,101,346.4,100.2,346.3z"/>
			<path class="st7" d="M498.5,361.7c-19.3-4.9-38.3-10.5-57.6-14.5c-33.3-6.9-66.8-9.3-100.2-1.4c-10.3,2.4-20.1,7.1-30.1,10.8
				c-0.6,0.2-1.2,0.5-1.9,0.5c11.2-9.5,23.9-15.9,37.5-20.1c26.3-8.2,53.2-8.6,80.1-5.1c21.8,2.8,43.1,8.2,64.1,15.3
				c5.3,1.8,8.1,4.4,7.9,10.4C498.2,359.1,498.4,360.6,498.5,361.7z"/>
			<path class="st7" d="M297.4,357c-29.3-14.8-60.2-17.3-91.8-15.3c-32.4,2-63.8,9.7-94.7,19.9c-1,0.3-2.1,0.6-3.5,1
				c0.5-3.8,0.6-7.3,1.4-10.6c0.3-1.3,2-2.7,3.3-3.2c20.3-7.7,41.2-13.1,62.6-16.2c25.1-3.7,50.1-4.2,75,1.6
				C267.1,338.2,283.3,345.3,297.4,357z"/>
			<path class="st7" d="M296.8,358.8c-62.5-10.8-123-0.9-182.9,20.3c0.4-3.8,0.5-7.3,1.1-10.6c0.2-1.1,1.6-2.4,2.7-2.8
				c25.2-9.2,51-15.6,77.4-18.9c24.2-3,48.5-3.6,72.5,1.9c10,2.3,19.7,6,29.5,9C297,358.1,296.9,358.5,296.8,358.8z"/>
			<path class="st7" d="M491.9,379c-58.6-20.8-118.4-30.6-180.1-20.6c0-0.3-0.1-0.7-0.1-0.7c1.1-0.6,2.2-1.2,3.4-1.7
				c21-8.8,43-11.5,65.3-11.2c36.9,0.5,72.6,8.5,107.5,20.7c2.4,0.8,3.4,2.2,3.5,4.8c0.1,2.5,0.5,5.1,0.7,7.6
				C492.3,378.1,492.1,378.4,491.9,379z"/>
		</g>
		<g>
			<g>
				<path class="st5" d="M139.8,191c10.4-6,21.7-10.7,33.4-14c5.8-1.7,11.8-2.8,17.8-3.7c6-0.9,12.1-1.3,18.1-1.4
					c12.1-0.2,24.3,1.2,36.1,4.1c11.8,2.9,23.2,7.3,33.7,13.1c-2.7-1.3-5.5-2.4-8.3-3.6c-2.8-1.1-5.6-2.2-8.5-3.1
					c-5.7-1.9-11.5-3.6-17.3-4.8c-5.9-1.3-11.8-2.3-17.7-2.9c-6-0.7-12-0.9-17.9-0.8c-3,0-6,0.2-9,0.3c-3,0.3-6,0.5-8.9,0.9
					c-5.9,0.8-11.8,1.9-17.7,3.3C162,181.5,150.7,185.6,139.8,191z"/>
			</g>
			<g>
				<path class="st5" d="M131.9,273.5c10.4-6,21.7-10.7,33.4-14c5.8-1.7,11.8-2.8,17.8-3.7c6-0.9,12.1-1.3,18.1-1.4
					c12.1-0.2,24.3,1.2,36.1,4.1c11.8,2.9,23.2,7.3,33.7,13.1c-2.7-1.3-5.5-2.4-8.3-3.6c-2.8-1.1-5.6-2.2-8.5-3.1
					c-5.7-1.9-11.5-3.6-17.3-4.8c-5.9-1.3-11.8-2.3-17.7-2.9c-6-0.7-12-0.9-17.9-0.8c-3,0-6,0.2-9,0.3c-3,0.3-6,0.5-8.9,0.9
					c-5.9,0.8-11.8,1.9-17.7,3.3C154.1,264,142.7,268.2,131.9,273.5z"/>
			</g>
			<g>
				<path class="st5" d="M131.9,302.1c10.4-6,21.7-10.7,33.4-14c5.8-1.7,11.8-2.8,17.8-3.7c6-0.9,12.1-1.3,18.1-1.4
					c12.1-0.2,24.3,1.2,36.1,4.1c11.8,2.9,23.2,7.3,33.7,13.1c-2.7-1.3-5.5-2.4-8.3-3.6c-2.8-1.1-5.6-2.2-8.5-3.1
					c-5.7-1.9-11.5-3.6-17.3-4.8c-5.9-1.3-11.8-2.3-17.7-2.9c-6-0.7-12-0.9-17.9-0.8c-3,0-6,0.2-9,0.3c-3,0.3-6,0.5-8.9,0.9
					c-5.9,0.8-11.8,1.9-17.7,3.3C154.1,292.6,142.7,296.7,131.9,302.1z"/>
			</g>
			<g>
				<path class="st5" d="M321.7,191c10.4-6,21.7-10.7,33.4-14c5.8-1.7,11.8-2.8,17.8-3.7c6-0.9,12.1-1.3,18.1-1.4
					c12.1-0.2,24.3,1.2,36.1,4.1c11.8,2.9,23.2,7.3,33.7,13.1c-2.7-1.3-5.5-2.4-8.3-3.6c-2.8-1.1-5.6-2.2-8.5-3.1
					c-5.7-1.9-11.5-3.6-17.3-4.8c-5.9-1.3-11.8-2.3-17.7-2.9c-6-0.7-12-0.9-17.9-0.8c-3,0-6,0.2-9,0.3c-3,0.3-6,0.5-8.9,0.9
					c-5.9,0.8-11.8,1.9-17.7,3.3C343.9,181.5,332.5,185.6,321.7,191z"/>
			</g>
			<g>
				<path class="st5" d="M321.7,222.9c10.4-6,21.7-10.7,33.4-14c5.8-1.7,11.8-2.8,17.8-3.7c6-0.9,12.1-1.3,18.1-1.4
					c12.1-0.2,24.3,1.2,36.1,4.1c11.8,2.9,23.2,7.3,33.7,13.1c-2.7-1.3-5.5-2.4-8.3-3.6c-2.8-1.1-5.6-2.2-8.5-3.1
					c-5.7-1.9-11.5-3.6-17.3-4.8c-5.9-1.3-11.8-2.3-17.7-2.9c-6-0.7-12-0.9-17.9-0.8c-3,0-6,0.2-9,0.3c-3,0.3-6,0.5-8.9,0.9
					c-5.9,0.8-11.8,1.9-17.7,3.3C343.9,213.4,332.5,217.6,321.7,222.9z"/>
			</g>
			<g>
				<path class="st5" d="M321.7,252.8c10.4-6,21.7-10.7,33.4-14c5.8-1.7,11.8-2.8,17.8-3.7c6-0.9,12.1-1.3,18.1-1.4
					c12.1-0.2,24.3,1.2,36.1,4.1c11.8,2.9,23.2,7.3,33.7,13.1c-2.7-1.3-5.5-2.4-8.3-3.6c-2.8-1.1-5.6-2.2-8.5-3.1
					c-5.7-1.9-11.5-3.6-17.3-4.8c-5.9-1.3-11.8-2.3-17.7-2.9c-6-0.7-12-0.9-17.9-0.8c-3,0-6,0.2-9,0.3c-3,0.3-6,0.5-8.9,0.9
					c-5.9,0.8-11.8,1.9-17.7,3.3C343.9,243.3,332.5,247.5,321.7,252.8z"/>
			</g>
			<g>
				<path class="st5" d="M139.8,213.9c7.2-3.6,14.9-6.5,22.8-8.3c7.9-1.9,16-2.9,24.2-3c4.1,0,8.1,0.1,12.2,0.5c4,0.4,8.1,1,12,1.9
					c7.9,1.7,15.7,4.3,23,7.7c-15.2-5.4-31.2-8.3-47.2-8.1c-8,0.1-16,1-23.8,2.5C155,208.7,147.3,211,139.8,213.9z"/>
			</g>
			<g>
				<path class="st5" d="M139.8,236.8c7.2-3.6,14.9-6.5,22.8-8.3c7.9-1.9,16-2.9,24.2-3c4.1,0,8.1,0.1,12.2,0.5c4,0.4,8.1,1,12,1.9
					c7.9,1.7,15.7,4.3,23,7.7c-15.2-5.4-31.2-8.3-47.2-8.1c-8,0.1-16,1-23.8,2.5C155,231.6,147.3,233.9,139.8,236.8z"/>
			</g>
			<g>
				<path class="st5" d="M366.8,278.7c7.2-3.6,14.9-6.5,22.8-8.3c7.9-1.9,16-2.9,24.2-3c4.1,0,8.1,0.1,12.2,0.5c4,0.4,8.1,1,12,1.9
					c7.9,1.7,15.7,4.3,23,7.7c-15.2-5.4-31.2-8.3-47.2-8.1c-8,0.1-16,1-23.8,2.5C382,273.5,374.3,275.8,366.8,278.7z"/>
			</g>
			<g>
				<path class="st5" d="M366.8,304.5c7.2-3.6,14.9-6.5,22.8-8.3c7.9-1.9,16-2.9,24.2-3c4.1,0,8.1,0.1,12.2,0.5c4,0.4,8.1,1,12,1.9
					c7.9,1.7,15.7,4.3,23,7.7c-15.2-5.4-31.2-8.3-47.2-8.1c-8,0.1-16,1-23.8,2.5C382,299.4,374.3,301.6,366.8,304.5z"/>
			</g>
		</g>
	</g>
	<path class="st8" d="M588.2,88.2c0,43.8-33,79.3-73.6,79.3c-6,0-11.8-0.8-17.3-2.2l-44,26.7l15.8-41.4
		C452,136.1,441,113.5,441,88.2c0-43.8,33-79.3,73.6-79.3C555.3,8.9,588.2,44.4,588.2,88.2z"/>
	<path class="st8" d="M5.2,84.5c0,43.8,33,79.3,73.6,79.3c6,0,11.8-0.8,17.3-2.2l44,26.7l-15.8-41.4c17.1-14.5,28.1-37.1,28.1-62.4
		c0-43.8-33-79.3-73.6-79.3S5.2,40.7,5.2,84.5z"/>
</g>
<rect x="-2191.3" y="1303" class="st9" width="832" height="832"/>
<rect x="-1365.3" y="2135" class="st9" width="802" height="775"/>
<g>
	<g>
		<g>
			<path class="st10" d="M-1809.8,1885.6c0-2.6,0-4.8,0-7c0-84.2,0-168.4-0.1-252.6c0-4.7,1.2-7.3,4.1-9.9
				c43.6-38.1,90.3-42.9,139.4-22c17.8,7.6,34.8,17.8,48.7,34.6c2.7,3.3,5.1,8.6,5.7,13.3c9.3,75.2,18.4,150.5,27.4,225.8
				c0.2,1.4,0.1,2.8,0.3,5c-5.2-2.1-9.9-4-14.6-5.9c-35.5-14.3-71.7-24-109.1-23.4c-28.2,0.4-55.6,6.4-80.8,24.2
				C-1795.9,1872.8-1802.4,1879.2-1809.8,1885.6z"/>
			<path class="st10" d="M-2040.2,1872.2c1.1-9.6,2.2-19.2,3.3-28.8c8.1-67.1,16.2-134.1,24.3-201.2c0.7-5.7,2.5-10.2,5.9-14
				c20.3-22.3,44.2-34.6,69.8-41.6c42.8-11.6,82.6-2.3,118.9,30c2.5,2.2,3.4,4.5,3.4,8.5c-0.1,84.4-0.1,168.8-0.1,253.2
				c0,2.4,0,4.7,0,6.9c-8.4-6.9-16-14.3-24.5-19.8c-28.8-18.8-59.8-23.3-91.6-21.6c-35.5,2-69.8,12.4-103.5,26.6
				c-1.5,0.6-3,1.2-4.5,1.8C-2038.9,1872.4-2039.2,1872.3-2040.2,1872.2z"/>
			<path class="st10" d="M-1592.6,1892.9c-21.7-6.7-43.1-14.2-64.7-19.6c-37.4-9.4-75.1-12.6-112.6-1.8
				c-11.5,3.3-22.5,9.6-33.8,14.6c-0.7,0.3-1.4,0.7-2.1,0.7c12.6-12.9,26.8-21.4,42.1-27.2c29.6-11.1,59.7-11.6,90-6.9
				c24.5,3.8,48.4,11.1,72,20.7c6,2.4,9.1,5.9,8.9,14.1C-1593,1889.4-1592.7,1891.5-1592.6,1892.9z"/>
			<path class="st10" d="M-1818.5,1886.6c-32.9-19.9-67.7-23.4-103.2-20.7c-36.4,2.8-71.7,13-106.4,26.9c-1.1,0.5-2.3,0.8-3.9,1.3
				c0.5-5.2,0.7-9.9,1.6-14.3c0.4-1.8,2.2-3.7,3.7-4.4c22.9-10.4,46.3-17.7,70.3-21.9c28.2-4.9,56.3-5.7,84.3,2.2
				C-1852.6,1861.3-1834.4,1870.8-1818.5,1886.6z"/>
			<path class="st10" d="M-1819.3,1889.1c-70.2-14.6-138.2-1.2-205.5,27.4c0.4-5.2,0.6-9.8,1.3-14.3c0.2-1.5,1.8-3.2,3.1-3.7
				c28.3-12.4,57.2-21.1,86.9-25.6c27.2-4.1,54.5-4.9,81.5,2.6c11.2,3.1,22.1,8.1,33.1,12.2
				C-1819,1888.1-1819.2,1888.6-1819.3,1889.1z"/>
			<path class="st10" d="M-1600.1,1916.3c-65.9-28.1-133-41.4-202.4-27.9c0-0.4-0.1-0.9-0.1-1c1.3-0.8,2.5-1.6,3.8-2.3
				c23.6-11.8,48.3-15.5,73.4-15.2c41.5,0.6,81.5,11.5,120.8,28c2.7,1.1,3.8,2.9,4,6.4c0.1,3.4,0.5,6.9,0.8,10.3
				C-1599.6,1915.1-1599.9,1915.5-1600.1,1916.3z"/>
		</g>
		<g>
			<g>
				<path class="st5" d="M-1995.6,1662.2c5.7-3.9,11.6-7.5,17.8-10.6c6.2-3.1,12.6-5.7,19.2-8c6.6-2.2,13.3-3.9,20.2-5.1
					c3.4-0.7,6.9-1,10.3-1.4c3.5-0.2,6.9-0.6,10.4-0.6c13.9-0.3,27.8,1.7,41.1,5.7c6.6,2,13.1,4.5,19.4,7.4
					c6.2,3,12.3,6.3,18.1,10.1c-3-1.7-6.1-3.2-9.2-4.8c-3.1-1.5-6.2-2.9-9.4-4.2c-6.3-2.6-12.8-4.9-19.4-6.6
					c-13.2-3.5-26.9-5.4-40.5-5.1c-3.4,0-6.8,0.3-10.2,0.5c-3.4,0.4-6.8,0.7-10.2,1.3c-6.7,1.1-13.4,2.6-20,4.6
					c-6.5,2-13,4.4-19.2,7.2C-1983.6,1655.5-1989.6,1658.7-1995.6,1662.2z"/>
			</g>
			<g>
				<path class="st5" d="M-2004.5,1773.7c5.7-3.9,11.6-7.5,17.8-10.6c6.2-3.1,12.6-5.7,19.2-8c6.6-2.2,13.3-3.9,20.2-5.1
					c3.4-0.7,6.9-1,10.3-1.4c3.5-0.2,6.9-0.6,10.4-0.6c13.9-0.3,27.8,1.7,41.1,5.7c6.6,2,13.1,4.5,19.4,7.4
					c6.2,3,12.3,6.3,18.1,10.1c-3-1.7-6.1-3.2-9.2-4.8c-3.1-1.5-6.2-2.9-9.4-4.2c-6.3-2.6-12.8-4.9-19.4-6.6
					c-13.2-3.5-26.9-5.4-40.5-5.1c-3.4,0-6.8,0.3-10.2,0.5c-3.4,0.4-6.8,0.7-10.2,1.3c-6.7,1.1-13.4,2.6-20,4.6
					c-6.5,2-13,4.4-19.2,7.2C-1992.5,1767-1998.6,1770.3-2004.5,1773.7z"/>
			</g>
			<g>
				<path class="st5" d="M-2004.5,1812.4c5.7-3.9,11.6-7.5,17.8-10.6c6.2-3.1,12.6-5.7,19.2-8c6.6-2.2,13.3-3.9,20.2-5.1
					c3.4-0.7,6.9-1,10.3-1.4c3.5-0.2,6.9-0.6,10.4-0.6c13.9-0.3,27.8,1.7,41.1,5.7c6.6,2,13.1,4.5,19.4,7.4
					c6.2,3,12.3,6.3,18.1,10.1c-3-1.7-6.1-3.2-9.2-4.8c-3.1-1.5-6.2-2.9-9.4-4.2c-6.3-2.6-12.8-4.9-19.4-6.6
					c-13.2-3.5-26.9-5.4-40.5-5.1c-3.4,0-6.8,0.3-10.2,0.5c-3.4,0.4-6.8,0.7-10.2,1.3c-6.7,1.1-13.4,2.6-20,4.6
					c-6.5,2-13,4.4-19.2,7.2C-1992.5,1805.6-1998.6,1808.9-2004.5,1812.4z"/>
			</g>
			<g>
				<path class="st5" d="M-1791.2,1662.2c5.7-3.9,11.6-7.5,17.8-10.6c6.2-3.1,12.6-5.7,19.2-8c6.6-2.2,13.3-3.9,20.2-5.1
					c3.4-0.7,6.9-1,10.3-1.4c3.5-0.2,6.9-0.6,10.4-0.6c13.9-0.3,27.8,1.7,41.1,5.7c6.6,2,13.1,4.5,19.4,7.4
					c6.2,3,12.3,6.3,18.1,10.1c-3-1.7-6.1-3.2-9.2-4.8c-3.1-1.5-6.2-2.9-9.4-4.2c-6.3-2.6-12.8-4.9-19.4-6.6
					c-13.2-3.5-26.9-5.4-40.5-5.1c-3.4,0-6.8,0.3-10.2,0.5c-3.4,0.4-6.8,0.7-10.2,1.3c-6.7,1.1-13.4,2.6-20,4.6
					c-6.5,2-13,4.4-19.2,7.2C-1779.2,1655.5-1785.3,1658.7-1791.2,1662.2z"/>
			</g>
			<g>
				<path class="st5" d="M-1791.2,1705.4c5.7-3.9,11.6-7.5,17.8-10.6c6.2-3.1,12.6-5.7,19.2-8c6.6-2.2,13.3-3.9,20.2-5.1
					c3.4-0.7,6.9-1,10.3-1.4c3.5-0.2,6.9-0.6,10.4-0.6c13.9-0.3,27.8,1.7,41.1,5.7c6.6,2,13.1,4.5,19.4,7.4
					c6.2,3,12.3,6.3,18.1,10.1c-3-1.7-6.1-3.2-9.2-4.8c-3.1-1.5-6.2-2.9-9.4-4.2c-6.3-2.6-12.8-4.9-19.4-6.6
					c-13.2-3.5-26.9-5.4-40.5-5.1c-3.4,0-6.8,0.3-10.2,0.5c-3.4,0.4-6.8,0.7-10.2,1.3c-6.7,1.1-13.4,2.6-20,4.6
					c-6.5,2-13,4.4-19.2,7.2C-1779.2,1698.6-1785.3,1701.9-1791.2,1705.4z"/>
			</g>
			<g>
				<path class="st5" d="M-1791.2,1745.8c5.7-3.9,11.6-7.5,17.8-10.6c6.2-3.1,12.6-5.7,19.2-8c6.6-2.2,13.3-3.9,20.2-5.1
					c3.4-0.7,6.9-1,10.3-1.4c3.5-0.2,6.9-0.6,10.4-0.6c13.9-0.3,27.8,1.7,41.1,5.7c6.6,2,13.1,4.5,19.4,7.4
					c6.2,3,12.3,6.3,18.1,10.1c-3-1.7-6.1-3.2-9.2-4.8c-3.1-1.5-6.2-2.9-9.4-4.2c-6.3-2.6-12.8-4.9-19.4-6.6
					c-13.2-3.5-26.9-5.4-40.5-5.1c-3.4,0-6.8,0.3-10.2,0.5c-3.4,0.4-6.8,0.7-10.2,1.3c-6.7,1.1-13.4,2.6-20,4.6
					c-6.5,2-13,4.4-19.2,7.2C-1779.2,1739.1-1785.3,1742.3-1791.2,1745.8z"/>
			</g>
			<g>
				<path class="st5" d="M-1995.7,1693.2c7.8-4.8,16.4-8.5,25.3-11.1c8.9-2.6,18.1-4,27.4-4.2c4.6,0,9.3,0.1,13.9,0.7
					c4.6,0.6,9.2,1.4,13.6,2.6c9,2.3,17.6,5.8,25.6,10.3c-8.5-3.6-17.1-6.5-26-8.4c-8.9-1.9-18-2.8-27-2.7c-4.5,0-9.1,0.4-13.6,1
					c-4.5,0.6-9,1.5-13.4,2.5C-1978.7,1686.2-1987.3,1689.3-1995.7,1693.2z"/>
			</g>
			<g>
				<path class="st5" d="M-1995.7,1724.1c7.8-4.8,16.4-8.5,25.3-11.1c8.9-2.6,18.1-4,27.4-4.2c4.6,0,9.3,0.1,13.9,0.7
					c4.6,0.6,9.2,1.4,13.6,2.6c9,2.3,17.6,5.8,25.6,10.3c-8.5-3.6-17.1-6.5-26-8.4c-8.9-1.9-18-2.8-27-2.7c-4.5,0-9.1,0.4-13.6,1
					c-4.5,0.6-9,1.5-13.4,2.5C-1978.7,1717.1-1987.3,1720.3-1995.7,1724.1z"/>
			</g>
			<g>
				<path class="st5" d="M-1740.6,1780.7c7.8-4.8,16.4-8.5,25.3-11.1c8.9-2.6,18.1-4,27.4-4.2c4.6,0,9.3,0.1,13.9,0.7
					c4.6,0.6,9.2,1.4,13.6,2.6c9,2.3,17.6,5.8,25.6,10.3c-8.5-3.6-17.1-6.5-26-8.4c-8.9-1.9-18-2.8-27-2.7c-4.5,0-9.1,0.4-13.6,1
					c-4.5,0.6-9,1.5-13.4,2.5C-1723.7,1773.7-1732.3,1776.9-1740.6,1780.7z"/>
			</g>
			<g>
				<path class="st5" d="M-1740.6,1815.7c7.8-4.8,16.4-8.5,25.3-11.1c8.9-2.6,18.1-4,27.4-4.2c4.6,0,9.3,0.1,13.9,0.7
					c4.6,0.6,9.2,1.4,13.6,2.6c9,2.3,17.6,5.8,25.6,10.3c-8.5-3.6-17.1-6.5-26-8.4c-8.9-1.9-18-2.8-27-2.7c-4.5,0-9.1,0.4-13.6,1
					c-4.5,0.6-9,1.5-13.4,2.5C-1723.7,1808.7-1732.3,1811.8-1740.6,1815.7z"/>
			</g>
		</g>
	</g>
	<path class="st11" d="M-1491.8,1523.3c0,59.2-37,107.2-82.7,107.2c-6.7,0-13.2-1-19.4-3l-49.5,36.1l17.8-56
		c-19.2-19.6-31.6-50.1-31.6-84.3c0-59.2,37-107.2,82.7-107.2S-1491.8,1464.1-1491.8,1523.3z"/>
	<path class="st11" d="M-2146.9,1518.2c0,59.2,37,107.2,82.7,107.2c6.7,0,13.2-1,19.4-3l49.5,36.1l-17.8-56
		c19.2-19.6,31.6-50.1,31.6-84.3c0-59.2-37-107.2-82.7-107.2S-2146.9,1459-2146.9,1518.2z"/>
</g>
<g>
	<g>
		<g>
			<path class="st10" d="M-979.8,1859.6c0-2.6,0-4.8,0-7c0-84.2,0-168.4-0.1-252.6c0-4.7,1.2-7.3,4.1-9.9
				c43.6-38.1,90.3-42.9,139.4-22c17.8,7.6,34.8,17.8,48.7,34.6c2.7,3.3,5.1,8.6,5.7,13.3c9.3,75.2,18.4,150.5,27.4,225.8
				c0.2,1.4,0.1,2.8,0.3,5c-5.2-2.1-9.9-4-14.6-5.9c-35.5-14.3-71.7-24-109.1-23.4c-28.2,0.4-55.6,6.4-80.8,24.2
				C-965.9,1846.8-972.4,1853.3-979.8,1859.6z"/>
			<path class="st10" d="M-1210.2,1846.2c1.1-9.6,2.2-19.2,3.3-28.8c8.1-67.1,16.2-134.1,24.3-201.2c0.7-5.7,2.5-10.2,5.9-14
				c20.3-22.3,44.2-34.6,69.8-41.6c42.8-11.6,82.6-2.3,118.9,30c2.5,2.2,3.4,4.5,3.4,8.5c-0.1,84.4-0.1,168.8-0.1,253.2
				c0,2.4,0,4.7,0,6.9c-8.4-6.9-16-14.3-24.5-19.8c-28.8-18.8-59.8-23.3-91.6-21.6c-35.5,2-69.8,12.4-103.5,26.6
				c-1.5,0.6-3,1.2-4.5,1.8C-1208.9,1846.4-1209.2,1846.3-1210.2,1846.2z"/>
			<path class="st10" d="M-762.6,1867c-21.7-6.7-43.1-14.2-64.7-19.6c-37.4-9.4-75.1-12.6-112.6-1.8c-11.5,3.3-22.5,9.6-33.8,14.6
				c-0.7,0.3-1.4,0.7-2.1,0.7c12.6-12.9,26.8-21.4,42.1-27.2c29.6-11.1,59.7-11.6,90-6.9c24.5,3.8,48.4,11.1,72,20.7
				c6,2.4,9.1,5.9,8.9,14.1C-763,1863.4-762.7,1865.5-762.6,1867z"/>
			<path class="st10" d="M-988.6,1860.6c-32.9-19.9-67.7-23.4-103.2-20.7c-36.4,2.8-71.7,13-106.4,26.9c-1.1,0.5-2.3,0.8-3.9,1.3
				c0.5-5.2,0.7-9.9,1.6-14.3c0.4-1.8,2.2-3.7,3.7-4.4c22.9-10.4,46.3-17.7,70.3-21.9c28.2-4.9,56.3-5.7,84.3,2.2
				C-1022.6,1835.3-1004.4,1844.8-988.6,1860.6z"/>
			<path class="st10" d="M-989.3,1863.1c-70.2-14.6-138.2-1.2-205.5,27.4c0.4-5.2,0.6-9.8,1.3-14.3c0.2-1.5,1.8-3.2,3.1-3.7
				c28.3-12.4,57.2-21.1,86.9-25.6c27.2-4.1,54.5-4.9,81.5,2.6c11.2,3.1,22.1,8.1,33.1,12.2
				C-989.1,1862.1-989.2,1862.6-989.3,1863.1z"/>
			<path class="st10" d="M-770.1,1890.3c-65.9-28.1-133-41.4-202.4-27.9c0-0.4-0.1-0.9-0.1-1c1.3-0.8,2.5-1.6,3.8-2.3
				c23.6-11.8,48.3-15.5,73.4-15.2c41.5,0.6,81.5,11.5,120.8,28c2.7,1.1,3.8,2.9,4,6.4c0.1,3.4,0.5,6.9,0.8,10.3
				C-769.7,1889.1-769.9,1889.5-770.1,1890.3z"/>
		</g>
		<g>
			<g>
				<path class="st5" d="M-1165.6,1636.2c5.7-3.9,11.6-7.5,17.8-10.6c6.2-3.1,12.6-5.7,19.2-8c6.6-2.2,13.3-3.9,20.2-5.1
					c3.4-0.7,6.9-1,10.3-1.4c3.5-0.2,6.9-0.6,10.4-0.6c13.9-0.3,27.8,1.7,41.1,5.7c6.6,2,13.1,4.5,19.4,7.4
					c6.2,3,12.3,6.3,18.1,10.1c-3-1.7-6.1-3.2-9.2-4.8c-3.1-1.5-6.2-2.9-9.4-4.2c-6.3-2.6-12.8-4.9-19.4-6.6
					c-13.2-3.5-26.9-5.4-40.5-5.1c-3.4,0-6.8,0.3-10.2,0.5c-3.4,0.4-6.8,0.7-10.2,1.3c-6.7,1.1-13.4,2.6-20,4.6
					c-6.5,2-13,4.4-19.2,7.2C-1153.6,1629.5-1159.7,1632.8-1165.6,1636.2z"/>
			</g>
			<g>
				<path class="st5" d="M-1174.5,1747.7c5.7-3.9,11.6-7.5,17.8-10.6c6.2-3.1,12.6-5.7,19.2-8c6.6-2.2,13.3-3.9,20.2-5.1
					c3.4-0.7,6.9-1,10.3-1.4c3.5-0.2,6.9-0.6,10.4-0.6c13.9-0.3,27.8,1.7,41.1,5.7c6.6,2,13.1,4.5,19.4,7.4
					c6.2,3,12.3,6.3,18.1,10.1c-3-1.7-6.1-3.2-9.2-4.8c-3.1-1.5-6.2-2.9-9.4-4.2c-6.3-2.6-12.8-4.9-19.4-6.6
					c-13.2-3.5-26.9-5.4-40.5-5.1c-3.4,0-6.8,0.3-10.2,0.5c-3.4,0.4-6.8,0.7-10.2,1.3c-6.7,1.1-13.4,2.6-20,4.6
					c-6.5,2-13,4.4-19.2,7.2C-1162.5,1741-1168.6,1744.3-1174.5,1747.7z"/>
			</g>
			<g>
				<path class="st5" d="M-1174.5,1786.4c5.7-3.9,11.6-7.5,17.8-10.6c6.2-3.1,12.6-5.7,19.2-8c6.6-2.2,13.3-3.9,20.2-5.1
					c3.4-0.7,6.9-1,10.3-1.4c3.5-0.2,6.9-0.6,10.4-0.6c13.9-0.3,27.8,1.7,41.1,5.7c6.6,2,13.1,4.5,19.4,7.4
					c6.2,3,12.3,6.3,18.1,10.1c-3-1.7-6.1-3.2-9.2-4.8c-3.1-1.5-6.2-2.9-9.4-4.2c-6.3-2.6-12.8-4.9-19.4-6.6
					c-13.2-3.5-26.9-5.4-40.5-5.1c-3.4,0-6.8,0.3-10.2,0.5c-3.4,0.4-6.8,0.7-10.2,1.3c-6.7,1.1-13.4,2.6-20,4.6
					c-6.5,2-13,4.4-19.2,7.2C-1162.5,1779.6-1168.6,1782.9-1174.5,1786.4z"/>
			</g>
			<g>
				<path class="st5" d="M-961.3,1636.2c5.7-3.9,11.6-7.5,17.8-10.6c6.2-3.1,12.6-5.7,19.2-8c6.6-2.2,13.3-3.9,20.2-5.1
					c3.4-0.7,6.9-1,10.3-1.4c3.5-0.2,6.9-0.6,10.4-0.6c13.9-0.3,27.8,1.7,41.1,5.7c6.6,2,13.1,4.5,19.4,7.4
					c6.2,3,12.3,6.3,18.1,10.1c-3-1.7-6.1-3.2-9.2-4.8c-3.1-1.5-6.2-2.9-9.4-4.2c-6.3-2.6-12.8-4.9-19.4-6.6
					c-13.2-3.5-26.9-5.4-40.5-5.1c-3.4,0-6.8,0.3-10.2,0.5c-3.4,0.4-6.8,0.7-10.2,1.3c-6.7,1.1-13.4,2.6-20,4.6
					c-6.5,2-13,4.4-19.2,7.2C-949.3,1629.5-955.3,1632.8-961.3,1636.2z"/>
			</g>
			<g>
				<path class="st5" d="M-961.3,1679.4c5.7-3.9,11.6-7.5,17.8-10.6c6.2-3.1,12.6-5.7,19.2-8c6.6-2.2,13.3-3.9,20.2-5.1
					c3.4-0.7,6.9-1,10.3-1.4c3.5-0.2,6.9-0.6,10.4-0.6c13.9-0.3,27.8,1.7,41.1,5.7c6.6,2,13.1,4.5,19.4,7.4
					c6.2,3,12.3,6.3,18.1,10.1c-3-1.7-6.1-3.2-9.2-4.8c-3.1-1.5-6.2-2.9-9.4-4.2c-6.3-2.6-12.8-4.9-19.4-6.6
					c-13.2-3.5-26.9-5.4-40.5-5.1c-3.4,0-6.8,0.3-10.2,0.5c-3.4,0.4-6.8,0.7-10.2,1.3c-6.7,1.1-13.4,2.6-20,4.6
					c-6.5,2-13,4.4-19.2,7.2C-949.3,1672.6-955.3,1675.9-961.3,1679.4z"/>
			</g>
			<g>
				<path class="st5" d="M-961.3,1719.8c5.7-3.9,11.6-7.5,17.8-10.6c6.2-3.1,12.6-5.7,19.2-8c6.6-2.2,13.3-3.9,20.2-5.1
					c3.4-0.7,6.9-1,10.3-1.4c3.5-0.2,6.9-0.6,10.4-0.6c13.9-0.3,27.8,1.7,41.1,5.7c6.6,2,13.1,4.5,19.4,7.4
					c6.2,3,12.3,6.3,18.1,10.1c-3-1.7-6.1-3.2-9.2-4.8c-3.1-1.5-6.2-2.9-9.4-4.2c-6.3-2.6-12.8-4.9-19.4-6.6
					c-13.2-3.5-26.9-5.4-40.5-5.1c-3.4,0-6.8,0.3-10.2,0.5c-3.4,0.4-6.8,0.7-10.2,1.3c-6.7,1.1-13.4,2.6-20,4.6
					c-6.5,2-13,4.4-19.2,7.2C-949.3,1713.1-955.3,1716.3-961.3,1719.8z"/>
			</g>
			<g>
				<path class="st5" d="M-1165.7,1667.2c7.8-4.8,16.4-8.5,25.3-11.1c8.9-2.6,18.1-4,27.4-4.2c4.6,0,9.3,0.1,13.9,0.7
					c4.6,0.6,9.2,1.4,13.6,2.6c9,2.3,17.6,5.8,25.6,10.3c-8.5-3.6-17.1-6.5-26-8.4c-8.9-1.9-18-2.8-27-2.7c-4.5,0-9.1,0.4-13.6,1
					c-4.5,0.6-9,1.5-13.4,2.5C-1148.7,1660.2-1157.3,1663.3-1165.7,1667.2z"/>
			</g>
			<g>
				<path class="st5" d="M-1165.7,1698.1c7.8-4.8,16.4-8.5,25.3-11.1c8.9-2.6,18.1-4,27.4-4.2c4.6,0,9.3,0.1,13.9,0.7
					c4.6,0.6,9.2,1.4,13.6,2.6c9,2.3,17.6,5.8,25.6,10.3c-8.5-3.6-17.1-6.5-26-8.4c-8.9-1.9-18-2.8-27-2.7c-4.5,0-9.1,0.4-13.6,1
					c-4.5,0.6-9,1.5-13.4,2.5C-1148.7,1691.1-1157.3,1694.3-1165.7,1698.1z"/>
			</g>
			<g>
				<path class="st5" d="M-910.7,1754.8c7.8-4.8,16.4-8.5,25.3-11.1c8.9-2.6,18.1-4,27.4-4.2c4.6,0,9.3,0.1,13.9,0.7
					c4.6,0.6,9.2,1.4,13.6,2.6c9,2.3,17.6,5.8,25.6,10.3c-8.5-3.6-17.1-6.5-26-8.4c-8.9-1.9-18-2.8-27-2.7c-4.5,0-9.1,0.4-13.6,1
					c-4.5,0.6-9,1.5-13.4,2.5C-893.7,1747.7-902.3,1750.9-910.7,1754.8z"/>
			</g>
			<g>
				<path class="st5" d="M-910.7,1789.7c7.8-4.8,16.4-8.5,25.3-11.1c8.9-2.6,18.1-4,27.4-4.2c4.6,0,9.3,0.1,13.9,0.7
					c4.6,0.6,9.2,1.4,13.6,2.6c9,2.3,17.6,5.8,25.6,10.3c-8.5-3.6-17.1-6.5-26-8.4c-8.9-1.9-18-2.8-27-2.7c-4.5,0-9.1,0.4-13.6,1
					c-4.5,0.6-9,1.5-13.4,2.5C-893.7,1782.7-902.3,1785.8-910.7,1789.7z"/>
			</g>
		</g>
	</g>
	<path class="st11" d="M-661.8,1497.3c0,59.2-37,107.2-82.7,107.2c-6.7,0-13.2-1-19.4-3l-49.5,36.1l17.8-56
		c-19.2-19.6-31.6-50.1-31.6-84.3c0-59.2,37-107.2,82.7-107.2C-698.9,1390.1-661.8,1438.1-661.8,1497.3z"/>
	<path class="st11" d="M-1316.9,1492.2c0,59.2,37,107.2,82.7,107.2c6.7,0,13.2-1,19.4-3l49.5,36.1l-17.8-56
		c19.2-19.6,31.6-50.1,31.6-84.3c0-59.2-37-107.2-82.7-107.2C-1279.9,1385.1-1316.9,1433-1316.9,1492.2z"/>
</g>
<g>
	<g>
		<g>
			<path class="st10" d="M-999.7,2703.6c0-2.6,0-4.8,0-7c0-84.2,0-168.4-0.1-252.6c0-4.7,1.2-7.3,4.1-9.9
				c43.6-38.1,90.3-42.9,139.4-22c17.8,7.6,34.8,17.8,48.7,34.6c2.7,3.3,5.1,8.6,5.7,13.3c9.3,75.2,18.4,150.5,27.4,225.8
				c0.2,1.4,0.1,2.8,0.3,5c-5.2-2.1-9.9-4-14.6-5.9c-35.5-14.3-71.7-24-109.1-23.4c-28.2,0.4-55.6,6.4-80.8,24.2
				C-985.8,2690.8-992.3,2697.3-999.7,2703.6z"/>
			<path class="st10" d="M-1230.1,2690.2c1.1-9.6,2.2-19.2,3.3-28.8c8.1-67.1,16.2-134.1,24.3-201.2c0.7-5.7,2.5-10.2,5.9-14
				c20.3-22.3,44.2-34.6,69.8-41.6c42.8-11.6,82.6-2.3,118.9,30c2.5,2.2,3.4,4.5,3.4,8.5c-0.1,84.4-0.1,168.8-0.1,253.2
				c0,2.4,0,4.7,0,6.9c-8.4-6.9-16-14.3-24.5-19.8c-28.8-18.8-59.8-23.3-91.6-21.6c-35.5,2-69.8,12.4-103.5,26.6
				c-1.5,0.6-3,1.2-4.5,1.8C-1228.8,2690.4-1229.1,2690.3-1230.1,2690.2z"/>
			<path class="st10" d="M-782.5,2711c-21.7-6.7-43.1-14.2-64.7-19.6c-37.4-9.4-75.1-12.6-112.6-1.8c-11.5,3.3-22.5,9.6-33.8,14.6
				c-0.7,0.3-1.4,0.7-2.1,0.7c12.6-12.9,26.8-21.4,42.1-27.2c29.6-11.1,59.7-11.6,90-6.9c24.5,3.8,48.4,11.1,72,20.7
				c6,2.4,9.1,5.9,8.9,14.1C-782.9,2707.4-782.6,2709.5-782.5,2711z"/>
			<path class="st10" d="M-1008.4,2704.6c-32.9-19.9-67.7-23.4-103.2-20.7c-36.4,2.8-71.7,13-106.4,26.9c-1.1,0.5-2.3,0.8-3.9,1.3
				c0.5-5.2,0.7-9.9,1.6-14.3c0.4-1.8,2.2-3.7,3.7-4.4c22.9-10.4,46.3-17.7,70.3-21.9c28.2-4.9,56.3-5.7,84.3,2.2
				C-1042.5,2679.3-1024.3,2688.8-1008.4,2704.6z"/>
			<path class="st10" d="M-1009.2,2707.1c-70.2-14.6-138.2-1.2-205.5,27.4c0.4-5.2,0.6-9.8,1.3-14.3c0.2-1.5,1.8-3.2,3.1-3.7
				c28.3-12.4,57.2-21.1,86.9-25.6c27.2-4.1,54.5-4.9,81.5,2.6c11.2,3.1,22.1,8.1,33.1,12.2
				C-1009,2706.1-1009.1,2706.6-1009.2,2707.1z"/>
			<path class="st10" d="M-790,2734.3c-65.9-28.1-133-41.4-202.4-27.9c0-0.4-0.1-0.9-0.1-1c1.3-0.8,2.5-1.6,3.8-2.3
				c23.6-11.8,48.3-15.5,73.4-15.2c41.5,0.6,81.5,11.5,120.8,28c2.7,1.1,3.8,2.9,4,6.4c0.1,3.4,0.5,6.9,0.8,10.3
				C-789.6,2733.1-789.8,2733.5-790,2734.3z"/>
		</g>
		<g>
			<g>
				<path class="st5" d="M-1185.5,2480.2c5.7-3.9,11.6-7.5,17.8-10.6c6.2-3.1,12.6-5.7,19.2-8c6.6-2.2,13.3-3.9,20.2-5.1
					c3.4-0.7,6.9-1,10.3-1.4c3.5-0.2,6.9-0.6,10.4-0.6c13.9-0.3,27.8,1.7,41.1,5.7c6.6,2,13.1,4.5,19.4,7.4
					c6.2,3,12.3,6.3,18.1,10.1c-3-1.7-6.1-3.2-9.2-4.8c-3.1-1.5-6.2-2.9-9.4-4.2c-6.3-2.6-12.8-4.9-19.4-6.6
					c-13.2-3.5-26.9-5.4-40.5-5.1c-3.4,0-6.8,0.3-10.2,0.5c-3.4,0.4-6.8,0.7-10.2,1.3c-6.7,1.1-13.4,2.6-20,4.6
					c-6.5,2-13,4.4-19.2,7.2C-1173.5,2473.5-1179.6,2476.8-1185.5,2480.2z"/>
			</g>
			<g>
				<path class="st5" d="M-1194.4,2591.7c5.7-3.9,11.6-7.5,17.8-10.6c6.2-3.1,12.6-5.7,19.2-8c6.6-2.2,13.3-3.9,20.2-5.1
					c3.4-0.7,6.9-1,10.3-1.4c3.5-0.2,6.9-0.6,10.4-0.6c13.9-0.3,27.8,1.7,41.1,5.7c6.6,2,13.1,4.5,19.4,7.4
					c6.2,3,12.3,6.3,18.1,10.1c-3-1.7-6.1-3.2-9.2-4.8c-3.1-1.5-6.2-2.9-9.4-4.2c-6.3-2.6-12.8-4.9-19.4-6.6
					c-13.2-3.5-26.9-5.4-40.5-5.1c-3.4,0-6.8,0.3-10.2,0.5c-3.4,0.4-6.8,0.7-10.2,1.3c-6.7,1.1-13.4,2.6-20,4.6
					c-6.5,2-13,4.4-19.2,7.2C-1182.4,2585-1188.5,2588.3-1194.4,2591.7z"/>
			</g>
			<g>
				<path class="st5" d="M-1194.4,2630.4c5.7-3.9,11.6-7.5,17.8-10.6c6.2-3.1,12.6-5.7,19.2-8c6.6-2.2,13.3-3.9,20.2-5.1
					c3.4-0.7,6.9-1,10.3-1.4c3.5-0.2,6.9-0.6,10.4-0.6c13.9-0.3,27.8,1.7,41.1,5.7c6.6,2,13.1,4.5,19.4,7.4
					c6.2,3,12.3,6.3,18.1,10.1c-3-1.7-6.1-3.2-9.2-4.8c-3.1-1.5-6.2-2.9-9.4-4.2c-6.3-2.6-12.8-4.9-19.4-6.6
					c-13.2-3.5-26.9-5.4-40.5-5.1c-3.4,0-6.8,0.3-10.2,0.5c-3.4,0.4-6.8,0.7-10.2,1.3c-6.7,1.1-13.4,2.6-20,4.6
					c-6.5,2-13,4.4-19.2,7.2C-1182.4,2623.6-1188.5,2626.9-1194.4,2630.4z"/>
			</g>
			<g>
				<path class="st5" d="M-981.2,2480.2c5.7-3.9,11.6-7.5,17.8-10.6c6.2-3.1,12.6-5.7,19.2-8c6.6-2.2,13.3-3.9,20.2-5.1
					c3.4-0.7,6.9-1,10.3-1.4c3.5-0.2,6.9-0.6,10.4-0.6c13.9-0.3,27.8,1.7,41.1,5.7c6.6,2,13.1,4.5,19.4,7.4
					c6.2,3,12.3,6.3,18.1,10.1c-3-1.7-6.1-3.2-9.2-4.8c-3.1-1.5-6.2-2.9-9.4-4.2c-6.3-2.6-12.8-4.9-19.4-6.6
					c-13.2-3.5-26.9-5.4-40.5-5.1c-3.4,0-6.8,0.3-10.2,0.5c-3.4,0.4-6.8,0.7-10.2,1.3c-6.7,1.1-13.4,2.6-20,4.6
					c-6.5,2-13,4.4-19.2,7.2C-969.2,2473.5-975.2,2476.8-981.2,2480.2z"/>
			</g>
			<g>
				<path class="st5" d="M-981.2,2523.4c5.7-3.9,11.6-7.5,17.8-10.6c6.2-3.1,12.6-5.7,19.2-8c6.6-2.2,13.3-3.9,20.2-5.1
					c3.4-0.7,6.9-1,10.3-1.4c3.5-0.2,6.9-0.6,10.4-0.6c13.9-0.3,27.8,1.7,41.1,5.7c6.6,2,13.1,4.5,19.4,7.4
					c6.2,3,12.3,6.3,18.1,10.1c-3-1.7-6.1-3.2-9.2-4.8c-3.1-1.5-6.2-2.9-9.4-4.2c-6.3-2.6-12.8-4.9-19.4-6.6
					c-13.2-3.5-26.9-5.4-40.5-5.1c-3.4,0-6.8,0.3-10.2,0.5c-3.4,0.4-6.8,0.7-10.2,1.3c-6.7,1.1-13.4,2.6-20,4.6
					c-6.5,2-13,4.4-19.2,7.2C-969.2,2516.6-975.2,2519.9-981.2,2523.4z"/>
			</g>
			<g>
				<path class="st5" d="M-981.2,2563.8c5.7-3.9,11.6-7.5,17.8-10.6c6.2-3.1,12.6-5.7,19.2-8c6.6-2.2,13.3-3.9,20.2-5.1
					c3.4-0.7,6.9-1,10.3-1.4c3.5-0.2,6.9-0.6,10.4-0.6c13.9-0.3,27.8,1.7,41.1,5.7c6.6,2,13.1,4.5,19.4,7.4
					c6.2,3,12.3,6.3,18.1,10.1c-3-1.7-6.1-3.2-9.2-4.8c-3.1-1.5-6.2-2.9-9.4-4.2c-6.3-2.6-12.8-4.9-19.4-6.6
					c-13.2-3.5-26.9-5.4-40.5-5.1c-3.4,0-6.8,0.3-10.2,0.5c-3.4,0.4-6.8,0.7-10.2,1.3c-6.7,1.1-13.4,2.6-20,4.6
					c-6.5,2-13,4.4-19.2,7.2C-969.2,2557.1-975.2,2560.3-981.2,2563.8z"/>
			</g>
			<g>
				<path class="st5" d="M-1185.6,2511.2c7.8-4.8,16.4-8.5,25.3-11.1c8.9-2.6,18.1-4,27.4-4.2c4.6,0,9.3,0.1,13.9,0.7
					c4.6,0.6,9.2,1.4,13.6,2.6c9,2.3,17.6,5.8,25.6,10.3c-8.5-3.6-17.1-6.5-26-8.4c-8.9-1.9-18-2.8-27-2.7c-4.5,0-9.1,0.4-13.6,1
					c-4.5,0.6-9,1.5-13.4,2.5C-1168.6,2504.2-1177.2,2507.3-1185.6,2511.2z"/>
			</g>
			<g>
				<path class="st5" d="M-1185.6,2542.1c7.8-4.8,16.4-8.5,25.3-11.1c8.9-2.6,18.1-4,27.4-4.2c4.6,0,9.3,0.1,13.9,0.7
					c4.6,0.6,9.2,1.4,13.6,2.6c9,2.3,17.6,5.8,25.6,10.3c-8.5-3.6-17.1-6.5-26-8.4c-8.9-1.9-18-2.8-27-2.7c-4.5,0-9.1,0.4-13.6,1
					c-4.5,0.6-9,1.5-13.4,2.5C-1168.6,2535.1-1177.2,2538.3-1185.6,2542.1z"/>
			</g>
			<g>
				<path class="st5" d="M-930.6,2598.8c7.8-4.8,16.4-8.5,25.3-11.1c8.9-2.6,18.1-4,27.4-4.2c4.6,0,9.3,0.1,13.9,0.7
					c4.6,0.6,9.2,1.4,13.6,2.6c9,2.3,17.6,5.8,25.6,10.3c-8.5-3.6-17.1-6.5-26-8.4c-8.9-1.9-18-2.8-27-2.7c-4.5,0-9.1,0.4-13.6,1
					c-4.5,0.6-9,1.5-13.4,2.5C-913.6,2591.7-922.2,2594.9-930.6,2598.8z"/>
			</g>
			<g>
				<path class="st5" d="M-930.6,2633.7c7.8-4.8,16.4-8.5,25.3-11.1c8.9-2.6,18.1-4,27.4-4.2c4.6,0,9.3,0.1,13.9,0.7
					c4.6,0.6,9.2,1.4,13.6,2.6c9,2.3,17.6,5.8,25.6,10.3c-8.5-3.6-17.1-6.5-26-8.4c-8.9-1.9-18-2.8-27-2.7c-4.5,0-9.1,0.4-13.6,1
					c-4.5,0.6-9,1.5-13.4,2.5C-913.6,2626.7-922.2,2629.8-930.6,2633.7z"/>
			</g>
		</g>
	</g>
	<path class="st11" d="M-681.7,2341.3c0,59.2-37,107.2-82.7,107.2c-6.7,0-13.2-1-19.4-3l-49.5,36.1l17.8-56
		c-19.2-19.6-31.6-50.1-31.6-84.3c0-59.2,37-107.2,82.7-107.2S-681.7,2282.1-681.7,2341.3z"/>
	<path class="st11" d="M-1336.8,2336.2c0,59.2,37,107.2,82.7,107.2c6.7,0,13.2-1,19.4-3l49.5,36.1l-17.8-56
		c19.2-19.6,31.6-50.1,31.6-84.3c0-59.2-37-107.2-82.7-107.2S-1336.8,2277-1336.8,2336.2z"/>
</g>
<g>
	<g>
		<g>
			<path class="st10" d="M-1781.7,2733c0-2.6,0-4.8,0-7c0-84.2,0-168.4-0.1-252.6c0-4.7,1.2-7.3,4.1-9.9
				c43.6-38.1,90.3-42.9,139.4-22c17.8,7.6,34.8,17.8,48.7,34.6c2.7,3.3,5.1,8.6,5.7,13.3c9.3,75.2,18.4,150.5,27.4,225.8
				c0.2,1.4,0.1,2.8,0.3,5c-5.2-2.1-9.9-4-14.6-5.9c-35.5-14.3-71.7-24-109.1-23.4c-28.2,0.4-55.6,6.4-80.8,24.2
				C-1767.8,2720.2-1774.3,2726.6-1781.7,2733z"/>
			<path class="st10" d="M-2012,2719.6c1.1-9.6,2.2-19.2,3.3-28.8c8.1-67.1,16.2-134.1,24.3-201.2c0.7-5.7,2.5-10.2,5.9-14
				c20.3-22.3,44.2-34.6,69.8-41.6c42.8-11.6,82.6-2.3,118.9,30c2.5,2.2,3.4,4.5,3.4,8.5c-0.1,84.4-0.1,168.8-0.1,253.2
				c0,2.4,0,4.7,0,6.9c-8.4-6.9-16-14.3-24.5-19.8c-28.8-18.8-59.8-23.3-91.6-21.6c-35.5,2-69.8,12.4-103.5,26.6
				c-1.5,0.6-3,1.2-4.5,1.8C-2010.8,2719.8-2011.1,2719.7-2012,2719.6z"/>
			<path class="st10" d="M-1564.5,2740.3c-21.7-6.7-43.1-14.2-64.7-19.6c-37.4-9.4-75.1-12.6-112.6-1.8
				c-11.5,3.3-22.5,9.6-33.8,14.6c-0.7,0.3-1.4,0.7-2.1,0.7c12.6-12.9,26.8-21.4,42.1-27.2c29.6-11.1,59.7-11.6,90-6.9
				c24.5,3.8,48.4,11.1,72,20.7c6,2.4,9.1,5.9,8.9,14.1C-1564.9,2736.8-1564.6,2738.8-1564.5,2740.3z"/>
			<path class="st10" d="M-1790.4,2734c-32.9-19.9-67.7-23.4-103.2-20.7c-36.4,2.8-71.7,13-106.4,26.9c-1.1,0.5-2.3,0.8-3.9,1.3
				c0.5-5.2,0.7-9.9,1.6-14.3c0.4-1.8,2.2-3.7,3.7-4.4c22.9-10.4,46.3-17.7,70.3-21.9c28.2-4.9,56.3-5.7,84.3,2.2
				C-1824.4,2708.7-1806.3,2718.2-1790.4,2734z"/>
			<path class="st10" d="M-1791.2,2736.5c-70.2-14.6-138.2-1.2-205.5,27.4c0.4-5.2,0.6-9.8,1.3-14.3c0.2-1.5,1.8-3.2,3.1-3.7
				c28.3-12.4,57.2-21.1,86.9-25.6c27.2-4.1,54.5-4.9,81.5,2.6c11.2,3.1,22.1,8.1,33.1,12.2
				C-1790.9,2735.5-1791.1,2736-1791.2,2736.5z"/>
			<path class="st10" d="M-1572,2763.7c-65.9-28.1-133-41.4-202.4-27.9c0-0.4-0.1-0.9-0.1-1c1.3-0.8,2.5-1.6,3.8-2.3
				c23.6-11.8,48.3-15.5,73.4-15.2c41.5,0.6,81.5,11.5,120.8,28c2.7,1.1,3.8,2.9,4,6.4c0.1,3.4,0.5,6.9,0.8,10.3
				C-1571.5,2762.5-1571.7,2762.9-1572,2763.7z"/>
		</g>
		<g>
			<g>
				<path class="st5" d="M-1967.5,2509.6c5.7-3.9,11.6-7.5,17.8-10.6c6.2-3.1,12.6-5.7,19.2-8c6.6-2.2,13.3-3.9,20.2-5.1
					c3.4-0.7,6.9-1,10.3-1.4c3.5-0.2,6.9-0.6,10.4-0.6c13.9-0.3,27.8,1.7,41.1,5.7c6.6,2,13.1,4.5,19.4,7.4
					c6.2,3,12.3,6.3,18.1,10.1c-3-1.7-6.1-3.2-9.2-4.8c-3.1-1.5-6.2-2.9-9.4-4.2c-6.3-2.6-12.8-4.9-19.4-6.6
					c-13.2-3.5-26.9-5.4-40.5-5.1c-3.4,0-6.8,0.3-10.2,0.5c-3.4,0.4-6.8,0.7-10.2,1.3c-6.7,1.1-13.4,2.6-20,4.6
					c-6.5,2-13,4.4-19.2,7.2C-1955.5,2502.8-1961.5,2506.1-1967.5,2509.6z"/>
			</g>
			<g>
				<path class="st5" d="M-1976.4,2621.1c5.7-3.9,11.6-7.5,17.8-10.6c6.2-3.1,12.6-5.7,19.2-8c6.6-2.2,13.3-3.9,20.2-5.1
					c3.4-0.7,6.9-1,10.3-1.4c3.5-0.2,6.9-0.6,10.4-0.6c13.9-0.3,27.8,1.7,41.1,5.7c6.6,2,13.1,4.5,19.4,7.4
					c6.2,3,12.3,6.3,18.1,10.1c-3-1.7-6.1-3.2-9.2-4.8c-3.1-1.5-6.2-2.9-9.4-4.2c-6.3-2.6-12.8-4.9-19.4-6.6
					c-13.2-3.5-26.9-5.4-40.5-5.1c-3.4,0-6.8,0.3-10.2,0.5c-3.4,0.4-6.8,0.7-10.2,1.3c-6.7,1.1-13.4,2.6-20,4.6
					c-6.5,2-13,4.4-19.2,7.2C-1964.4,2614.4-1970.5,2617.7-1976.4,2621.1z"/>
			</g>
			<g>
				<path class="st5" d="M-1976.4,2659.8c5.7-3.9,11.6-7.5,17.8-10.6c6.2-3.1,12.6-5.7,19.2-8c6.6-2.2,13.3-3.9,20.2-5.1
					c3.4-0.7,6.9-1,10.3-1.4c3.5-0.2,6.9-0.6,10.4-0.6c13.9-0.3,27.8,1.7,41.1,5.7c6.6,2,13.1,4.5,19.4,7.4
					c6.2,3,12.3,6.3,18.1,10.1c-3-1.7-6.1-3.2-9.2-4.8c-3.1-1.5-6.2-2.9-9.4-4.2c-6.3-2.6-12.8-4.9-19.4-6.6
					c-13.2-3.5-26.9-5.4-40.5-5.1c-3.4,0-6.8,0.3-10.2,0.5c-3.4,0.4-6.8,0.7-10.2,1.3c-6.7,1.1-13.4,2.6-20,4.6
					c-6.5,2-13,4.4-19.2,7.2C-1964.4,2653-1970.5,2656.3-1976.4,2659.8z"/>
			</g>
			<g>
				<path class="st5" d="M-1763.1,2509.6c5.7-3.9,11.6-7.5,17.8-10.6c6.2-3.1,12.6-5.7,19.2-8c6.6-2.2,13.3-3.9,20.2-5.1
					c3.4-0.7,6.9-1,10.3-1.4c3.5-0.2,6.9-0.6,10.4-0.6c13.9-0.3,27.8,1.7,41.1,5.7c6.6,2,13.1,4.5,19.4,7.4
					c6.2,3,12.3,6.3,18.1,10.1c-3-1.7-6.1-3.2-9.2-4.8c-3.1-1.5-6.2-2.9-9.4-4.2c-6.3-2.6-12.8-4.9-19.4-6.6
					c-13.2-3.5-26.9-5.4-40.5-5.1c-3.4,0-6.8,0.3-10.2,0.5c-3.4,0.4-6.8,0.7-10.2,1.3c-6.7,1.1-13.4,2.6-20,4.6
					c-6.5,2-13,4.4-19.2,7.2C-1751.1,2502.8-1757.2,2506.1-1763.1,2509.6z"/>
			</g>
			<g>
				<path class="st5" d="M-1763.1,2552.8c5.7-3.9,11.6-7.5,17.8-10.6c6.2-3.1,12.6-5.7,19.2-8c6.6-2.2,13.3-3.9,20.2-5.1
					c3.4-0.7,6.9-1,10.3-1.4c3.5-0.2,6.9-0.6,10.4-0.6c13.9-0.3,27.8,1.7,41.1,5.7c6.6,2,13.1,4.5,19.4,7.4
					c6.2,3,12.3,6.3,18.1,10.1c-3-1.7-6.1-3.2-9.2-4.8c-3.1-1.5-6.2-2.9-9.4-4.2c-6.3-2.6-12.8-4.9-19.4-6.6
					c-13.2-3.5-26.9-5.4-40.5-5.1c-3.4,0-6.8,0.3-10.2,0.5c-3.4,0.4-6.8,0.7-10.2,1.3c-6.7,1.1-13.4,2.6-20,4.6
					c-6.5,2-13,4.4-19.2,7.2C-1751.1,2546-1757.2,2549.3-1763.1,2552.8z"/>
			</g>
			<g>
				<path class="st5" d="M-1763.1,2593.2c5.7-3.9,11.6-7.5,17.8-10.6c6.2-3.1,12.6-5.7,19.2-8c6.6-2.2,13.3-3.9,20.2-5.1
					c3.4-0.7,6.9-1,10.3-1.4c3.5-0.2,6.9-0.6,10.4-0.6c13.9-0.3,27.8,1.7,41.1,5.7c6.6,2,13.1,4.5,19.4,7.4
					c6.2,3,12.3,6.3,18.1,10.1c-3-1.7-6.1-3.2-9.2-4.8c-3.1-1.5-6.2-2.9-9.4-4.2c-6.3-2.6-12.8-4.9-19.4-6.6
					c-13.2-3.5-26.9-5.4-40.5-5.1c-3.4,0-6.8,0.3-10.2,0.5c-3.4,0.4-6.8,0.7-10.2,1.3c-6.7,1.1-13.4,2.6-20,4.6
					c-6.5,2-13,4.4-19.2,7.2C-1751.1,2586.4-1757.2,2589.7-1763.1,2593.2z"/>
			</g>
			<g>
				<path class="st5" d="M-1967.6,2540.6c7.8-4.8,16.4-8.5,25.3-11.1c8.9-2.6,18.1-4,27.4-4.2c4.6,0,9.3,0.1,13.9,0.7
					c4.6,0.6,9.2,1.4,13.6,2.6c9,2.3,17.6,5.8,25.6,10.3c-8.5-3.6-17.1-6.5-26-8.4c-8.9-1.9-18-2.8-27-2.7c-4.5,0-9.1,0.4-13.6,1
					c-4.5,0.6-9,1.5-13.4,2.5C-1950.6,2533.6-1959.2,2536.7-1967.6,2540.6z"/>
			</g>
			<g>
				<path class="st5" d="M-1967.6,2571.5c7.8-4.8,16.4-8.5,25.3-11.1c8.9-2.6,18.1-4,27.4-4.2c4.6,0,9.3,0.1,13.9,0.7
					c4.6,0.6,9.2,1.4,13.6,2.6c9,2.3,17.6,5.8,25.6,10.3c-8.5-3.6-17.1-6.5-26-8.4c-8.9-1.9-18-2.8-27-2.7c-4.5,0-9.1,0.4-13.6,1
					c-4.5,0.6-9,1.5-13.4,2.5C-1950.6,2564.5-1959.2,2567.7-1967.6,2571.5z"/>
			</g>
			<g>
				<path class="st5" d="M-1712.5,2628.1c7.8-4.8,16.4-8.5,25.3-11.1c8.9-2.6,18.1-4,27.4-4.2c4.6,0,9.3,0.1,13.9,0.7
					c4.6,0.6,9.2,1.4,13.6,2.6c9,2.3,17.6,5.8,25.6,10.3c-8.5-3.6-17.1-6.5-26-8.4c-8.9-1.9-18-2.8-27-2.7c-4.5,0-9.1,0.4-13.6,1
					c-4.5,0.6-9,1.5-13.4,2.5C-1695.6,2621.1-1704.2,2624.3-1712.5,2628.1z"/>
			</g>
			<g>
				<path class="st5" d="M-1712.5,2663.1c7.8-4.8,16.4-8.5,25.3-11.1c8.9-2.6,18.1-4,27.4-4.2c4.6,0,9.3,0.1,13.9,0.7
					c4.6,0.6,9.2,1.4,13.6,2.6c9,2.3,17.6,5.8,25.6,10.3c-8.5-3.6-17.1-6.5-26-8.4c-8.9-1.9-18-2.8-27-2.7c-4.5,0-9.1,0.4-13.6,1
					c-4.5,0.6-9,1.5-13.4,2.5C-1695.6,2656.1-1704.2,2659.2-1712.5,2663.1z"/>
			</g>
		</g>
	</g>
	<path class="st11" d="M-1463.7,2370.7c0,59.2-37,107.2-82.7,107.2c-6.7,0-13.2-1-19.4-3l-49.5,36.1l17.8-56
		c-19.2-19.6-31.6-50.1-31.6-84.3c0-59.2,37-107.2,82.7-107.2C-1500.7,2263.5-1463.7,2311.5-1463.7,2370.7z"/>
	<path class="st11" d="M-2118.8,2365.6c0,59.2,37,107.2,82.7,107.2c6.7,0,13.2-1,19.4-3l49.5,36.1l-17.8-56
		c19.2-19.6,31.6-50.1,31.6-84.3c0-59.2-37-107.2-82.7-107.2S-2118.8,2306.4-2118.8,2365.6z"/>
</g>
<use xlink:href="#Arrow_24"  width="21.4" height="35.9" x="-10.7" y="-17.9" transform="matrix(1.6681 0 0 -1.6681 -1598.6096 503.0228)" style="overflow:visible;"/>
<use xlink:href="#Arrow_24"  width="21.4" height="35.9" x="-10.7" y="-17.9" transform="matrix(1.6681 0 0 -1.6681 -960.6096 495.2526)" style="overflow:visible;"/>
</svg>
